<svg width="612" height="561" viewBox="0 0 612 561" fill="none" xmlns="http://www.w3.org/2000/svg">
<path opacity="0.1" d="M342.841 87.7438C309.296 86.5818 277.349 75.7669 246.858 63.9441C216.368 52.1213 186.116 39.0034 153.377 32.7035C132.316 28.6716 108.237 28.0976 91.2679 39.3744C74.9438 50.2313 69.6612 68.97 66.8308 86.3578C64.729 99.4406 63.4399 113.209 69.2899 125.452C73.3464 133.957 80.5556 141.104 85.537 149.252C102.884 177.587 90.6234 212.531 71.8261 240.202C63.0125 253.179 52.7836 265.562 45.9808 279.401C39.1779 293.24 36.0252 309.046 41.9803 323.143C47.8794 337.143 61.9406 347.601 77.1717 354.986C108.11 369.973 144.563 374.264 180.112 376.686C258.804 382.062 337.909 379.738 416.811 377.386C446.006 376.518 475.333 375.643 504.058 371.135C520.011 368.629 536.482 364.653 548.063 355.035C562.775 342.848 566.405 322.219 556.554 306.939C540.027 281.312 494.347 274.942 482.794 247.439C476.44 232.299 482.969 215.436 492.203 201.401C512.024 171.302 545.239 144.856 546.991 110.402C548.196 86.7638 532.222 63.0831 507.533 51.8903C481.652 40.1654 445.76 41.6424 426.669 61.0531C407.01 81.0868 372.456 88.7727 342.841 87.7438Z" fill="#3480E3"/>
<path opacity="0.1" d="M276.214 561C393.83 561 489.177 548.113 489.177 532.216C489.177 516.32 393.83 503.433 276.214 503.433C158.598 503.433 63.2507 516.32 63.2507 532.216C63.2507 548.113 158.598 561 276.214 561Z" fill="#3480E3"/>
<path d="M328.773 146.718C328.773 146.718 322.18 133.719 323.07 129.855C323.96 125.991 318.432 117.738 318.432 117.738L318.79 104.047C318.79 104.047 318.026 105.446 314.046 106.671C313.71 106.23 313.346 105.796 312.967 105.383C311.526 103.884 309.924 102.548 308.189 101.401L301.183 86.2948L294.408 75.9279C294.408 75.9279 283.724 54.2282 272.69 49.4403L270.952 46.0453C271.009 46.0116 271.052 45.9577 271.071 45.8942C271.091 45.8307 271.086 45.7623 271.057 45.7023L269.292 42.2514C269.26 42.1917 269.208 42.1458 269.144 42.1225C269.081 42.0993 269.011 42.1003 268.948 42.1254L267.26 38.8214C266.615 34.5398 264.931 30.4808 262.356 26.9986C262.181 26.7536 261.991 26.5296 261.809 26.2986L264.556 26.2006C266.966 26.1096 269.656 25.8996 271.274 24.1006C271.854 23.4301 272.282 22.6421 272.529 21.7907C272.737 21.1235 272.873 20.4359 272.935 19.7397C272.935 19.6347 272.935 19.5297 272.935 19.4317C272.935 19.1937 272.935 18.9604 272.935 18.7317C272.935 18.5427 272.935 18.3607 272.935 18.1717C272.935 17.9827 272.935 17.8707 272.935 17.7237C272.935 17.5767 272.858 17.2407 272.816 17.0237C272.816 16.9328 272.816 16.8418 272.76 16.7508C272.701 16.4765 272.629 16.2055 272.543 15.9388C272.522 15.8865 272.506 15.8326 272.493 15.7778C272.395 15.4978 272.29 15.2178 272.171 14.9448C272.152 14.9088 272.136 14.8713 272.122 14.8328C271.996 14.5598 271.856 14.2938 271.709 14.0348L271.667 13.9508C271.615 13.8421 271.557 13.7369 271.492 13.6358C269.593 10.6538 266.258 8.91086 263.084 7.33589C260.123 5.78016 257.083 4.37832 253.976 3.13595C242.427 -1.19168 229.669 -1.01173 218.246 3.63994C217.117 4.06677 216.048 4.63605 215.065 5.33392C213.694 6.49344 212.522 7.86966 211.597 9.40786L206.167 17.4227C205.408 18.3977 204.814 19.4901 204.409 20.6567C203.393 24.4646 206.581 28.2796 206.223 32.2065C206.041 34.1595 204.99 35.9515 204.787 37.9045C204.528 40.4244 205.698 42.8534 206.84 45.1283L214.609 60.5281C214.196 62.5511 213.741 64.6231 213.243 66.625C209.663 70.321 208.458 72.337 208.129 73.4289L208.024 73.4849C207.315 73.9424 206.705 74.5375 206.23 75.2349L198.846 82.4028C198.846 82.4028 186.011 85.7348 183.341 89.9557C183.341 89.9557 163.199 89.0737 163.374 117.178C163.374 117.178 162.484 127.72 161.973 129.127C161.462 130.534 161.973 144.758 161.973 144.758L161.735 173.57C161.735 173.57 160.964 188.85 161.735 194.296C162.505 199.742 163.395 220.469 163.395 220.469C163.395 220.469 168.208 240.671 166.429 247.873C164.719 254.768 166.429 269.846 169.231 269.909C169.764 271.008 170.373 271.547 171.039 271.239C171.329 271.114 171.626 271.006 171.929 270.917V288.13C171.929 288.13 168.461 312.245 172.349 316.829C169.771 320.497 166.744 326.755 165.973 328.4L138.72 326.937L135.252 327.91L132.071 328.799L130.144 373.088L130.915 373.144L130.859 374.495L132.681 374.628L130.144 419.231L167.872 422.332C166.212 426.049 164.285 430.032 163.535 430.417C162.134 431.117 159.079 429.017 158.365 429.885C157.65 430.753 155.513 431.817 153.019 431.285C150.525 430.753 148.921 433.567 148.921 433.567C148.921 433.567 149.285 433.889 149.831 434.484C145.782 433.994 140.661 436.164 137.879 437.564C136.632 438.194 135.854 438.663 135.854 438.663H128.498L132.541 464.429L135.392 466.375L136.093 486.675C136.093 486.675 147.498 521.808 152.725 521.577C153.064 521.565 153.397 521.479 153.701 521.327C154.004 521.175 154.271 520.959 154.484 520.695C157.286 517.461 155.345 506.352 155.345 506.352V487.858C155.345 487.858 159.619 485.982 159.143 484.575C158.666 483.168 166.037 467.775 166.695 466.375C166.714 466.364 166.729 466.347 166.739 466.327C166.749 466.307 166.753 466.285 166.751 466.263C166.751 464.681 169.96 462.924 169.778 462.224C169.596 461.524 177.625 457.128 178.185 453.265C178.745 449.401 184.063 451.508 184.063 451.508L190.831 443.738C191.034 453.209 191.419 459.837 192.085 461.517C195.294 469.602 196.541 482.251 196.541 482.251C196.541 482.251 194.579 491.911 196.541 495.075C197.746 497.007 200.548 499.079 202.496 500.794C200.471 506.926 200.759 519.96 200.759 519.96V527.449L215.73 531.649C215.73 531.649 216.2 527.904 216.914 527.904C217.629 527.904 227.136 535.163 227.136 535.163C227.136 535.163 263.736 535.632 272.998 535.163C276.501 534.988 277.454 533.483 276.914 531.663C276.025 528.632 271.029 524.705 266.587 524.404C259.455 523.935 250.424 516.446 250.424 516.446C250.424 516.446 251.125 514.801 247.335 512.463C244.715 510.853 237.463 504.336 232.979 500.521C233.19 500.234 233.407 499.947 233.61 499.639C233.61 499.639 227.55 491.239 228.804 487.515C230.058 483.791 228.264 478.415 228.264 478.415C228.264 478.415 224.88 468.048 224.88 462.777C224.88 459.438 224.376 440.448 224.012 426.98L227.136 427.239L227.199 425.895L228.601 426.021L241.849 427.239L241.443 413.092C247.825 410.292 253.136 407.695 255.336 406.036C262.818 400.436 269.236 400.065 269.236 400.065C269.236 400.065 284.383 391.987 286.702 388.648C289.021 385.309 288.804 361.069 288.804 361.069L287.557 309.116V309.074C287.557 309.074 286.492 283.958 284.348 278.512C283.563 276.496 281.622 269.776 279.5 262.104C280.72 261.979 281.952 262.031 283.157 262.258C283.234 264.134 283.283 265.422 283.283 265.863C283.283 268.845 287.557 271.379 287.557 271.379L284.53 204.18V158.464C293.862 161.432 316.428 162.356 316.428 162.356C332.69 161.502 328.773 146.718 328.773 146.718ZM240.749 88.9827H240.7C241.031 87.221 241.464 85.4798 241.996 83.7678L240.749 88.9827ZM179.502 319.468C185.03 320.378 191.412 320.112 191.896 319.041C191.945 318.936 192.008 318.747 192.092 318.502C192.267 318.81 192.435 319.125 192.61 319.447L192.071 329.583V329.814L173.855 328.834C175.13 323.409 177.54 320.763 179.502 319.468ZM240.224 370.61L239.754 354.195C240.567 351.171 241.296 348.427 241.919 346.075C242.199 348.028 242.438 349.827 242.62 351.486C244.343 367.061 241.8 370.099 240.224 370.61ZM292.068 124.507C291.025 124.906 287.052 122.407 283.283 119.817C283.283 119.341 283.318 118.872 283.339 118.417C283.871 107.7 266.405 101.03 261.06 99.7976C259.762 99.4631 258.504 98.9938 257.304 98.3976C254.456 96.9882 251.687 95.4249 249.009 93.7147L249.079 93.5117C249.079 93.5117 242.185 89.1507 242.038 83.7118C243.609 78.7647 245.592 73.9577 247.965 69.341C248.098 69.068 248.246 68.781 248.386 68.508C251.644 67.4956 254.685 65.8862 257.353 63.7621C258.425 77.7619 278.701 89.8087 278.701 89.8087L280.866 93.3087L281.377 94.1346C280.284 94.7786 279.759 95.2966 280.13 95.5976C281.671 96.8296 285.399 103.802 286.94 106.748C287.36 107.546 287.641 108.043 287.641 108.043C287.641 108.043 290.954 117.052 292.853 124.591C292.601 124.486 292.323 124.457 292.054 124.507H292.068Z" fill="url(#paint0_linear)"/>
<path d="M299.901 88.1987L299.663 88.5137L298.85 89.5987L283.262 100.603L279.955 95.1706L277.853 91.6707C277.853 91.6707 246.781 73.051 260.142 55.1032C273.502 37.1555 293.245 77.8529 293.245 77.8529L299.901 88.1987Z" fill="#FFC5D3"/>
<path d="M268.55 44.353C268.484 44.2218 268.324 44.169 268.192 44.235C268.061 44.3011 268.008 44.4611 268.074 44.5923L269.807 48.0308C269.873 48.162 270.034 48.2148 270.165 48.1487C270.296 48.0826 270.349 47.9227 270.283 47.7915L268.55 44.353Z" fill="#3A3768"/>
<path d="M250.761 49.1606L250.754 49.1637C250.682 49.2003 250.652 49.2886 250.689 49.3611L251.206 50.3864C251.242 50.4589 251.331 50.4881 251.403 50.4516L251.41 50.4485C251.482 50.4119 251.511 50.3236 251.475 50.2511L250.958 49.2258C250.922 49.1532 250.833 49.1241 250.761 49.1606Z" fill="#3A3768"/>
<path d="M252.175 51.5884C252.134 51.5055 252.033 51.4722 251.95 51.5139C251.867 51.5556 251.833 51.6566 251.875 51.7395L252.855 53.6838C252.897 53.7667 252.998 53.8 253.081 53.7583C253.164 53.7166 253.197 53.6156 253.156 53.5327L252.175 51.5884Z" fill="#3A3768"/>
<path d="M253.686 54.6147C253.646 54.5353 253.55 54.5033 253.47 54.5433C253.391 54.5833 253.359 54.6801 253.399 54.7595L254.394 56.7351C254.434 56.8145 254.531 56.8465 254.611 56.8065C254.69 56.7665 254.722 56.6697 254.682 56.5903L253.686 54.6147Z" fill="#3A3768"/>
<path d="M263.113 37.6014L250.022 44.188C249.248 44.5775 248.937 45.5202 249.327 46.2937L264.182 75.7649C264.571 76.5384 265.515 76.8496 266.289 76.4601L279.379 69.8735C280.154 69.484 280.465 68.5413 280.075 67.7678L265.22 38.2966C264.831 37.5231 263.887 37.2119 263.113 37.6014Z" fill="#3A3768"/>
<path d="M261.438 39.4724C261.363 39.5096 261.296 39.5613 261.241 39.6245C261.186 39.6877 261.145 39.7612 261.119 39.8407C261.093 39.9202 261.083 40.0041 261.089 40.0875C261.096 40.1709 261.119 40.2521 261.158 40.3264L261.214 40.4454C261.252 40.5203 261.276 40.602 261.283 40.6859C261.289 40.7698 261.279 40.8543 261.253 40.9343C261.227 41.0144 261.186 41.0885 261.131 41.1524C261.076 41.2162 261.009 41.2686 260.934 41.3064L254.194 44.6944C254.119 44.7328 254.038 44.7561 253.955 44.7628C253.871 44.7695 253.787 44.7595 253.708 44.7334C253.628 44.7074 253.554 44.6657 253.491 44.611C253.428 44.5562 253.376 44.4893 253.339 44.4144L253.276 44.2954C253.239 44.2204 253.187 44.1536 253.124 44.0986C253.061 44.0436 252.987 44.0016 252.908 43.975C252.829 43.9483 252.745 43.9376 252.661 43.9433C252.578 43.949 252.496 43.9711 252.421 44.0084L251.111 44.6734C250.967 44.744 250.839 44.8425 250.734 44.9631C250.629 45.0837 250.549 45.224 250.499 45.3758C250.449 45.5277 250.429 45.688 250.442 45.8474C250.454 46.0068 250.498 46.1621 250.572 46.3043L264.892 74.7029C265.039 74.9905 265.294 75.2085 265.601 75.3095C265.908 75.4104 266.242 75.3861 266.531 75.2419L278.288 69.327C278.575 69.1802 278.794 68.9257 278.895 68.6189C278.996 68.3122 278.971 67.978 278.827 67.689L264.5 39.2764C264.428 39.1334 264.328 39.0059 264.206 38.9014C264.085 38.7968 263.944 38.7172 263.792 38.6672C263.64 38.6171 263.479 38.5976 263.319 38.6096C263.159 38.6217 263.003 38.6651 262.86 38.7375L261.438 39.4724Z" fill="#3480E3"/>
<path d="M257.521 41.6231L255.751 42.5141C255.626 42.5767 255.576 42.7283 255.639 42.8526C255.701 42.9769 255.853 43.0269 255.977 42.9643L257.748 42.0733C257.873 42.0107 257.923 41.8592 257.86 41.7349C257.797 41.6106 257.646 41.5605 257.521 41.6231Z" fill="#E6E8EC"/>
<path d="M258.439 41.7054C258.598 41.7054 258.727 41.5769 258.727 41.4184C258.727 41.2599 258.598 41.1314 258.439 41.1314C258.281 41.1314 258.152 41.2599 258.152 41.4184C258.152 41.5769 258.281 41.7054 258.439 41.7054Z" fill="#E6E8EC"/>
<path d="M271.527 148.398L267.148 265.8C267.148 265.8 281.861 260.9 284.138 264.575C286.415 268.25 281.685 205.776 281.685 205.776L271.527 148.398Z" fill="#5F5570"/>
<path opacity="0.15" d="M271.527 148.398L267.148 265.8C267.148 265.8 281.861 260.9 284.138 264.575C286.415 268.25 281.685 205.776 281.685 205.776L271.527 148.398Z" fill="black"/>
<path d="M272.227 535.373C263.119 535.842 227.157 535.373 227.157 535.373C227.157 535.373 217.811 528.142 217.111 528.142C216.41 528.142 215.948 531.873 215.948 531.873L201.235 527.673V520.212C201.235 520.212 200.766 498.967 205.2 498.043C209.635 497.119 229.259 498.043 229.259 498.043C229.96 497.812 243.271 510.412 247.006 512.743C250.74 515.074 250.039 516.712 250.039 516.712C250.039 516.712 258.916 524.174 265.922 524.643C270.287 524.937 275.198 528.842 276.074 531.873C276.606 533.7 275.66 535.198 272.227 535.373Z" fill="#BC8487"/>
<path opacity="0.1" d="M272.227 535.373C263.119 535.842 227.157 535.373 227.157 535.373C227.157 535.373 217.811 528.142 217.111 528.142C216.41 528.142 215.948 531.873 215.948 531.873L201.235 527.673V520.359L215.009 525.342L225.987 531.873H276.074C276.606 533.7 275.66 535.198 272.227 535.373Z" fill="black"/>
<path opacity="0.1" d="M231.333 524.411C231.333 524.411 242.543 513.681 250.039 516.712Z" fill="black"/>
<path d="M160.362 484.974C160.831 486.374 156.627 488.243 156.627 488.243V506.674C156.627 506.674 158.533 517.741 155.78 520.968C155.573 521.229 155.312 521.443 155.014 521.594C154.717 521.745 154.39 521.83 154.056 521.843C148.921 522.074 137.711 487.074 137.711 487.074L137.01 466.851L134.208 464.912L130.236 439.244H137.48C137.48 439.244 138.244 438.775 139.47 438.145C142.973 436.36 150.308 433.245 154.294 436.213L167.837 466.697C167.837 466.697 159.899 483.574 160.362 484.974Z" fill="#BC8487"/>
<path opacity="0.1" d="M155.78 520.968C155.573 521.229 155.312 521.443 155.014 521.594C154.717 521.745 154.39 521.83 154.056 521.843C148.921 522.074 137.711 487.074 137.711 487.074L137.01 466.851L134.208 464.912L130.236 439.244H137.48C137.48 439.244 138.244 438.775 139.47 438.145L141.214 464.443L142.146 487.074C142.146 487.074 150.945 511.714 155.78 520.968Z" fill="black"/>
<path d="M285.714 389.369C283.437 392.694 268.549 400.744 268.549 400.744C268.549 400.744 262.244 401.094 254.887 406.694C251.083 409.592 237.863 415.339 225.987 420.218C214.897 424.775 204.969 428.569 204.969 428.569L193.535 441.869L184.827 451.998C184.827 451.998 179.572 449.898 179.047 453.748C178.521 457.597 170.639 461.972 170.815 462.672C170.99 463.372 167.837 465.122 167.837 466.697C167.837 468.272 156.102 455.323 156.277 447.448C156.452 439.573 150.322 434.148 150.322 434.148C150.322 434.148 151.898 431.348 154.35 431.873C156.803 432.398 158.904 431.348 159.605 430.473C160.306 429.598 163.283 431.698 164.684 430.998C166.086 430.298 171.69 416.473 171.69 416.473L193.528 401.836L236.966 372.745L238.97 371.401C238.97 371.401 244.75 374.047 242.403 352.368C241.947 348.168 241.183 343.065 240.02 336.849C232.839 298.525 258.586 294.15 258.586 294.15L281.181 301.675L286.611 310.075V310.117L287.837 361.874C287.837 361.874 287.991 386.045 285.714 389.369Z" fill="#433A59"/>
<path opacity="0.1" d="M225.812 413.869C225.812 413.869 225.882 416.354 225.987 420.218C214.897 424.775 204.969 428.569 204.969 428.569L193.535 441.869C193.346 430.844 193.388 416.522 193.535 401.843L236.973 372.752C231.599 392.652 225.812 413.869 225.812 413.869Z" fill="black"/>
<path opacity="0.1" d="M286.59 310.096V310.138L252.61 310.796C252.61 310.796 246.655 334.07 245.779 338.97C245.562 340.174 244.245 345.319 242.381 352.389C241.926 348.189 241.162 343.086 239.999 336.87C232.818 298.546 258.565 294.171 258.565 294.171L281.16 301.696L286.59 310.096Z" fill="black"/>
<path d="M197.087 246.571L192.709 330.57C192.709 330.57 189.556 453.944 192.709 461.993C195.861 470.043 197.087 482.643 197.087 482.643C197.087 482.643 195.161 492.268 197.087 495.418C199.014 498.568 205.144 502.068 204.969 503.818C204.794 505.568 223.71 515.018 233.519 499.968C233.519 499.968 227.564 491.568 228.79 487.893C230.016 484.218 228.264 478.793 228.264 478.793C228.264 478.793 224.936 468.468 224.936 463.197C224.936 457.926 223.71 413.848 223.71 413.848C223.71 413.848 242.802 343.849 243.678 338.949C244.553 334.049 250.509 310.775 250.509 310.775L286.59 310.075C286.59 310.075 285.539 285.05 283.437 279.625C281.335 274.2 271.001 234.476 271.001 234.476L197.087 246.571Z" fill="#433A59"/>
<path d="M136.87 328.918L133.739 329.814L133.612 332.908L227.508 334.119V332.901L136.87 328.918Z" fill="#7B728F"/>
<path d="M247.622 71.308C233.96 98.9926 242.445 104.782 243.797 105.495C240.903 104.152 203.295 86.4978 208.241 82.0178C211.457 79.0989 214.21 66.4011 215.829 57.3012C216.788 51.8693 217.349 47.7183 217.349 47.7183L256.814 54.9492C252.989 61.1091 249.948 66.534 247.622 71.308Z" fill="#FFC5D3"/>
<path opacity="0.1" d="M299.691 88.5137L298.878 89.5987L283.262 100.603L279.955 95.1706C284.768 92.3707 299.201 87.4707 299.201 87.4707L299.691 88.5137Z" fill="black"/>
<path d="M314.088 113.748C312.687 118.648 289.042 113.748 289.042 113.748L286.59 109.898C286.59 109.898 286.344 109.408 285.931 108.61C284.418 105.678 280.754 98.7336 279.24 97.5016C277.314 95.9266 299.908 88.2267 299.908 88.2267L306.83 103.277C308.536 104.423 310.111 105.754 311.524 107.245C313.276 109.142 314.726 111.515 314.088 113.748Z" fill="#E5E8EF"/>
<path d="M274.855 116.002C274.855 116.002 288.867 127.048 290.968 126.25C293.07 125.452 327.05 148.377 327.05 148.377C327.05 148.377 330.903 163.077 314.964 163.952C314.964 163.952 281.16 162.552 279.759 157.652C278.358 152.752 274.855 116.002 274.855 116.002Z" fill="#5F5570"/>
<path opacity="0.1" d="M236.672 93.7987L221.433 109.548L242.802 245.346L251.209 240.447C251.209 240.447 272.928 250.071 274.679 241.147C276.431 232.222 275.948 197.047 275.948 197.047L273.103 133.502C273.103 133.502 263.119 111.277 263.119 110.577C263.119 109.877 248.722 99.0276 248.722 99.0276L241.926 93.7777L236.672 93.7987Z" fill="black"/>
<path d="M236.672 91.6987L221.433 107.448L242.802 243.247L251.209 238.347C251.209 238.347 272.928 247.971 274.679 239.047C276.431 230.122 275.948 194.947 275.948 194.947L273.103 131.402C273.103 131.402 263.119 109.177 263.119 108.477C263.119 107.777 248.722 96.9276 248.722 96.9276L241.926 91.6777L236.672 91.6987Z" fill="#E5E8EF"/>
<path opacity="0.1" d="M237.547 93.9737L233.344 102.549L237.547 106.979C237.547 106.979 252.61 137.373 249.633 155.398L252.785 214.722L262.944 224.697L271.001 215.401L267.148 161.502C267.148 161.502 256.814 117.052 245.955 103.228L242.802 90.9777L237.547 93.9737Z" fill="black"/>
<path d="M237.547 92.5737L233.344 101.149L237.547 105.579C237.547 105.579 252.61 135.973 249.633 153.998L252.785 213.322L262.944 223.297L271.001 214.001L267.148 160.102C267.148 160.102 256.814 115.652 245.955 101.828L242.802 89.5777L237.547 92.5737Z" fill="#BC8487"/>
<path opacity="0.1" d="M256.814 54.9492C252.989 61.1091 249.976 66.534 247.622 71.308C245.142 72.0385 242.571 72.4086 239.985 72.407C231.326 72.407 226.338 66.4221 221.433 60.0661C220.312 58.6242 216.627 58.9602 215.829 57.2662C216.788 51.8343 217.349 47.6833 217.349 47.6833L256.814 54.9492Z" fill="black"/>
<path d="M266.84 44.8694C266.839 51.2593 264.556 57.4394 260.402 62.2974C256.247 67.1555 250.494 70.3726 244.176 71.3698C237.859 72.367 231.393 71.0789 225.942 67.7372C220.49 64.3955 216.412 59.2197 214.44 53.1411C212.468 47.0625 212.732 40.4803 215.184 34.5789C217.637 28.6774 222.117 23.8443 227.818 20.9492C233.52 18.054 240.068 17.287 246.285 18.7861C252.503 20.2852 257.98 23.9519 261.732 29.1266C265.052 33.7054 266.84 39.2152 266.84 44.8694V44.8694Z" fill="#FFC5D3"/>
<path opacity="0.1" d="M231.417 104.649L209.348 78.0489C209.348 78.0489 207.309 77.2299 214.196 70.027C214.196 70.027 239.488 89.7247 241.057 93.0707C242.627 96.4166 231.417 104.649 231.417 104.649Z" fill="black"/>
<path d="M230.716 103.249L208.647 76.6489C208.647 76.6489 206.609 75.8299 213.496 68.627C213.496 68.627 238.787 88.3247 240.357 91.6707C241.926 95.0166 230.716 103.249 230.716 103.249Z" fill="#E5E8EF"/>
<path d="M286.59 272.541C286.59 272.541 282.386 270.021 282.386 267.046C282.386 264.071 280.284 222.072 280.284 222.072C280.284 222.072 277.202 197.005 273.979 177.083C272.087 165.345 270.147 155.384 268.773 153.41L268.717 153.326C265.039 148.601 265.74 125.501 242.795 91.7267C243.103 91.9367 251.013 97.4806 256.807 100.267C257.986 100.859 259.224 101.328 260.499 101.667C265.754 102.892 282.919 109.541 282.393 120.216C281.868 130.891 283.619 155.391 283.619 155.391V205.601L286.59 272.541Z" fill="#5F5570"/>
<path d="M286.59 109.898C286.59 109.898 293.946 130.198 292.895 135.273C291.844 140.348 309.885 160.298 309.885 160.298L327.05 148.398C327.05 148.398 320.569 135.448 321.445 131.598C322.321 127.748 316.891 119.523 316.891 119.523L317.241 105.887C317.241 105.887 314.089 111.802 286.59 109.898Z" fill="#5F5570"/>
<path opacity="0.1" d="M261.732 29.1266L248.421 29.6306C247.121 29.6221 245.825 29.7845 244.567 30.1136C239.81 31.5766 237.617 36.6305 237.442 41.1734C237.267 45.7164 234.64 50.8053 229.546 51.2043C229.039 51.2903 228.519 51.1747 228.096 50.8823C227.773 50.5389 227.559 50.1079 227.48 49.6433C226.749 46.9962 225.62 44.4754 224.131 42.1674C222.029 42.5454 220.474 44.5404 219.927 46.6263C219.381 48.7123 219.528 50.9103 219.535 53.0733C219.541 55.8203 219.276 58.5612 218.743 61.2561C216.571 58.4391 214.981 55.2189 214.066 51.7826C213.151 48.3463 212.928 44.7625 213.412 41.2396C213.895 37.7166 215.074 34.3247 216.881 31.2612C218.688 28.1976 221.086 25.5235 223.937 23.3942C226.787 21.2649 230.033 19.7229 233.485 18.8579C236.937 17.9929 240.527 17.8221 244.045 18.3555C247.564 18.8889 250.942 20.1158 253.982 21.9649C257.022 23.814 259.663 26.2484 261.753 29.1266H261.732Z" fill="black"/>
<path d="M243.874 29.4136C245.131 29.0845 246.427 28.9221 247.727 28.9306L263.89 28.3286C266.258 28.2376 268.899 28.0276 270.49 26.2706C271.061 25.5997 271.481 24.8145 271.723 23.9677C272.139 22.6147 272.261 21.1885 272.081 19.7845C271.901 18.3806 271.423 17.0312 270.679 15.8268C268.808 12.8518 265.53 11.1228 262.405 9.52686C259.497 7.97453 256.51 6.5727 253.458 5.32692C242.12 1.02503 229.567 1.20528 218.358 5.83092C217.25 6.25565 216.2 6.81771 215.233 7.50389C213.882 8.66056 212.731 10.0324 211.828 11.5638L206.51 19.5717C205.777 20.5495 205.211 21.6424 204.836 22.8057C203.834 26.6066 206.938 30.4076 206.616 34.3205C206.433 36.2665 205.404 38.0515 205.214 39.9974C204.962 42.5104 206.111 44.8974 207.239 47.1863L216.585 66.0231C218.094 61.6306 218.859 57.0173 218.848 52.3733C218.848 50.2103 218.666 48.0123 219.241 45.9263C219.815 43.8404 221.342 41.8454 223.444 41.4674C224.937 43.7743 226.069 46.2953 226.8 48.9433C226.877 49.4085 227.092 49.8399 227.417 50.1823C227.839 50.4754 228.36 50.5911 228.867 50.5043C233.988 50.1053 236.573 45.0654 236.763 40.4734C236.952 35.8815 239.117 30.8766 243.874 29.4136Z" fill="#8F7080"/>
<path d="M133.739 329.814L140.282 327.945L238.949 333.314L228.089 334.714L133.739 329.814Z" fill="#7B728F"/>
<path opacity="0.1" d="M133.739 329.814L140.282 327.945L238.949 333.314L228.089 334.714L133.739 329.814Z" fill="black"/>
<path d="M241.632 427.813L228.615 426.602L224.047 426.182V353.845L225.252 337.052L225.518 333.314H238.949L241.632 427.813Z" fill="#7B728F"/>
<path opacity="0.1" d="M238.073 425.244L227.69 424.096L224.047 423.697V355.112L225.006 339.194L225.217 335.645H235.929L238.073 425.244Z" fill="black"/>
<path d="M166.87 329.814C166.87 329.814 173.351 315.611 176.069 315.17C178.788 314.729 183.776 315.17 183.776 315.17L183.334 319.286C183.334 319.286 176.679 319.811 174.577 330.92L166.87 329.814Z" fill="#7B728F"/>
<path opacity="0.1" d="M166.87 329.814C166.87 329.814 173.351 315.611 176.069 315.17C178.788 314.729 183.776 315.17 183.776 315.17L183.334 319.286C183.334 319.286 176.679 319.811 174.577 330.92L166.87 329.814Z" fill="black"/>
<path d="M192.008 313.687C192.008 313.687 209.432 322.345 207.155 332.495L197.697 331.97C197.697 331.97 193.143 316.837 189.556 316.046C185.969 315.255 192.008 313.687 192.008 313.687Z" fill="#7B728F"/>
<path d="M256.814 176.572V177.083L256.464 235.372C256.464 235.372 247.531 284.371 245.079 286.296C242.627 288.221 188.855 282.971 188.855 282.971L164.509 118.998C164.334 90.9987 184.126 91.8737 184.126 91.8737C186.753 87.6737 199.364 84.3488 199.364 84.3488L206.37 77.5239L206.595 77.2089C207.06 76.5154 207.661 75.9227 208.36 75.4659V75.4659C209.803 74.6329 210.721 75.7319 211.247 76.8169C211.483 77.3263 211.666 77.8588 211.793 78.4059C240.175 99.2026 256.814 176.572 256.814 176.572Z" fill="#5F5570"/>
<path opacity="0.1" d="M256.113 177.272V177.783C247.307 161.684 213.376 100.687 204.093 97.6486L207.666 95.1986C207.666 95.1986 210.049 93.7987 205.67 92.3987C205.67 92.3987 198.839 93.2737 198.664 85.0488L205.894 77.9089L207.659 76.1659L210.546 77.5169C210.783 78.0263 210.966 78.5588 211.092 79.1059C239.474 99.9026 256.113 177.272 256.113 177.272Z" fill="black"/>
<path d="M256.814 176.572V177.083C248.007 160.984 214.077 99.9866 204.794 96.9486L208.367 94.4986C208.367 94.4986 210.749 93.0987 206.37 91.6987C206.37 91.6987 199.539 92.5737 199.364 84.3488L206.595 77.2089L208.36 75.4659L211.247 76.8169C211.483 77.3263 211.666 77.8588 211.793 78.4059C240.175 99.2026 256.814 176.572 256.814 176.572Z" fill="#433A59"/>
<path opacity="0.1" d="M269.481 154.082L269.425 153.998C265.747 149.273 266.447 126.173 243.503 92.3987C243.811 92.6087 251.721 98.1526 257.515 100.939L255.896 106.272L259.399 108.141L269.481 154.082Z" fill="black"/>
<path d="M268.78 153.382L268.724 153.298C265.046 148.573 265.747 125.473 242.802 91.6987C243.11 91.9087 251.02 97.4526 256.814 100.239L255.196 105.573L258.699 107.441L268.78 153.382Z" fill="#433A59"/>
<path opacity="0.1" d="M241.793 86.3088L240.357 92.3707C240.357 92.3707 241.408 98.4396 247.706 98.9646L248.722 96.0736C248.722 96.0736 241.926 91.7197 241.793 86.3088Z" fill="black"/>
<path d="M241.793 85.6088L240.357 91.6707C240.357 91.6707 241.408 97.7396 247.706 98.2646L248.722 95.3736C248.722 95.3736 241.926 91.0197 241.793 85.6088Z" fill="#E5E8EF"/>
<path opacity="0.1" d="M232.734 334.294L228.615 426.602L224.047 426.182V353.845L225.252 337.052L232.734 334.294Z" fill="black"/>
<path d="M134.677 369.945L131.875 419.875L227.157 427.813L231.333 334.294L134.677 369.945Z" fill="#7B728F"/>
<path opacity="0.1" d="M132.576 375.314L134.439 331.214L232.034 335.694L227.389 382.314L132.576 375.314Z" fill="black"/>
<path d="M131.875 373.914L133.739 329.814L231.333 334.294L226.688 380.914L131.875 373.914Z" fill="#7B728F"/>
<path d="M184.652 373.97H172.916V387.619H184.652V373.97Z" fill="#C3BBC8"/>
<path d="M174.668 284.546L172.916 289.271C172.916 289.271 169.238 315.171 173.792 318.32C178.346 321.47 191.833 321.645 192.533 320.07C193.234 318.495 198.138 300.646 198.138 300.646C198.138 300.646 202.517 313.771 204.794 312.721C207.071 311.671 199.539 286.723 199.539 286.723L174.668 284.546Z" fill="#FFC5D3"/>
<path opacity="0.1" d="M172.916 264.946V289.971C172.916 289.971 191.483 293.471 199.539 287.423C199.539 287.423 192.008 263.196 194.81 257.071C197.613 250.946 172.916 264.946 172.916 264.946Z" fill="black"/>
<path d="M172.916 264.246V289.271C172.916 289.271 191.483 292.771 199.539 286.723C199.539 286.723 192.008 262.496 194.81 256.371C197.613 250.246 172.916 264.246 172.916 264.246Z" fill="#E5E8EF"/>
<path opacity="0.1" d="M170.815 117.773L165.91 120.398C165.91 120.398 165.035 130.898 164.509 132.298C163.984 133.698 164.509 147.873 164.509 147.873L164.271 176.572C164.271 176.572 163.514 191.797 164.271 197.222C165.028 202.647 165.875 223.297 165.875 223.297C165.875 223.297 170.611 243.422 168.86 250.596C167.108 257.771 169.035 273.871 172.013 272.471C174.99 271.071 202.489 265.646 203.89 264.596C205.291 263.546 204.591 253.746 203.89 252.521C203.19 251.296 198.986 234.672 199.336 230.822C199.687 226.972 198.11 193.197 198.11 193.197C198.11 193.197 200.737 157.148 201.788 148.748C202.839 140.348 199.687 115.673 196.884 115.323C194.082 114.973 185.878 95.8986 170.815 117.773Z" fill="black"/>
<path d="M169.413 116.373L164.509 118.998C164.509 118.998 163.633 129.498 163.108 130.898C162.582 132.298 163.108 146.473 163.108 146.473L162.87 175.172C162.87 175.172 162.113 190.397 162.87 195.822C163.626 201.247 164.474 221.897 164.474 221.897C164.474 221.897 169.21 242.022 167.459 249.196C165.707 256.371 167.634 272.471 170.611 271.071C173.589 269.671 201.088 264.246 202.489 263.196C203.89 262.146 203.19 252.346 202.489 251.121C201.788 249.896 197.585 233.272 197.935 229.422C198.285 225.572 196.709 191.797 196.709 191.797C196.709 191.797 199.336 155.748 200.387 147.348C201.438 138.948 198.285 114.273 195.483 113.923C192.681 113.573 184.476 94.4987 169.413 116.373Z" fill="#5F5570"/>
<g opacity="0.1">
<path opacity="0.1" d="M222.386 38.8424C220.284 39.2204 218.729 41.2154 218.183 43.3014C217.636 45.3874 217.783 47.5853 217.79 49.7483C217.804 54.392 217.041 59.0053 215.534 63.3981L206.181 44.5614C205.999 44.1904 205.81 43.8054 205.628 43.4204C206.061 44.7167 206.597 45.9761 207.232 47.1863L216.585 66.0231C218.092 61.6303 218.855 57.0169 218.841 52.3733C218.841 50.2103 218.666 48.0123 219.234 45.9264C219.801 43.8404 221.335 41.8454 223.437 41.4674C224.116 42.5292 224.722 43.6353 225.252 44.7784C224.54 42.6914 223.578 40.6982 222.386 38.8424V38.8424Z" fill="black"/>
<path opacity="0.1" d="M270.847 16.1278C271.258 17.8499 271.2 19.6506 270.679 21.3427C270.435 22.1899 270.012 22.9752 269.439 23.6457C267.849 25.4026 265.235 25.6126 262.839 25.7036L246.683 26.3056C245.381 26.2971 244.083 26.4595 242.823 26.7886C238.073 28.2516 235.873 33.3055 235.698 37.8485C235.523 42.3914 232.895 47.4803 227.802 47.8793C227.295 47.9653 226.774 47.8498 226.352 47.5573V47.5573C226.513 48.0123 226.667 48.4743 226.8 48.9573C226.872 49.4227 227.085 49.855 227.41 50.1963C227.832 50.4887 228.353 50.6043 228.86 50.5183C233.988 50.1193 236.567 45.0794 236.756 40.4874C236.945 35.8955 239.131 30.8906 243.881 29.4276C245.141 29.0984 246.439 28.936 247.741 28.9446L263.897 28.3426C266.265 28.2516 268.907 28.0416 270.497 26.2846C271.07 25.6141 271.493 24.8289 271.737 23.9817C272.134 22.6813 272.26 21.3135 272.107 19.9626C271.954 18.6117 271.525 17.3065 270.847 16.1278V16.1278Z" fill="black"/>
</g>
<path opacity="0.1" d="M244.539 303.229C244.539 303.229 250.607 300.079 252.947 300.254C255.287 300.429 276.298 327.126 276.298 327.126L244.539 303.229Z" fill="black"/>
<path opacity="0.1" d="M182.305 122.547C182.305 122.547 171.214 127.279 171.508 130.548C171.803 133.817 182.305 122.547 182.305 122.547Z" fill="black"/>
<path opacity="0.1" d="M176.903 138.017C176.903 138.017 165.266 152.885 167.837 153.382C170.408 153.879 176.903 138.017 176.903 138.017Z" fill="black"/>
<path opacity="0.1" d="M215.829 160.298C215.829 160.298 216.893 193.547 208.36 197.747L215.829 160.298Z" fill="black"/>
<path opacity="0.1" d="M171.48 249.077C171.48 249.077 179.691 244.415 181.576 245.346C183.461 246.277 171.48 249.077 171.48 249.077Z" fill="black"/>
<path opacity="0.1" d="M172.916 255.524C172.916 255.524 178.101 255.895 180.56 254.824C183.019 253.753 172.916 255.524 172.916 255.524Z" fill="black"/>
<path opacity="0.1" d="M296.678 133.089C296.678 133.089 303.11 151.548 306.816 151.548Z" fill="black"/>
<path opacity="0.1" d="M205.221 486.612C205.221 486.612 217.286 483.343 219.065 486.612C220.845 489.881 205.221 486.612 205.221 486.612Z" fill="black"/>
<path opacity="0.1" d="M166.87 438.145C166.87 438.145 163.865 442.744 167.837 444.144C171.809 445.544 166.87 438.145 166.87 438.145Z" fill="black"/>
<path opacity="0.1" d="M247.005 373.97C247.005 373.97 256.113 382.076 260.415 382.314C264.717 382.552 247.005 373.97 247.005 373.97Z" fill="black"/>
<path d="M605.744 41.8804C605.744 41.8804 546.76 38.3035 553.71 79.6029C553.71 79.6029 552.308 86.9038 558.95 90.2217C558.95 90.2217 559.055 87.1558 565.003 88.1987C567.119 88.5495 569.268 88.6529 571.407 88.5067C574.295 88.3106 577.041 87.1831 579.233 85.2938C579.233 85.2938 595.816 78.4549 602.262 51.3723C602.262 51.3723 607.033 45.4644 606.844 43.9454L596.888 48.1943C596.888 48.1943 600.293 55.3692 597.589 61.3331C597.589 61.3331 597.266 48.4533 595.354 48.7333C594.961 48.7963 590.176 51.2183 590.176 51.2183C590.176 51.2183 596.033 63.7201 591.612 72.799C591.612 72.799 593.294 57.3992 588.355 52.1213L581.349 56.2092C581.349 56.2092 588.193 69.117 583.555 79.6519C583.555 79.6519 584.746 63.4961 579.877 57.2032L573.53 62.1521C573.53 62.1521 579.954 74.8779 576.038 83.6138C576.038 83.6138 575.526 64.8051 572.15 63.3841C572.15 63.3841 566.601 68.284 565.753 70.286C565.753 70.286 570.153 79.5259 567.42 84.3978C567.42 84.3978 565.746 71.868 564.373 71.798C564.373 71.798 558.838 80.0999 558.264 85.7978C558.264 85.7978 558.502 77.3279 563.035 71.007C563.035 71.007 557.682 71.924 554.557 75.3959C554.557 75.3959 555.419 69.523 564.366 69.012C564.366 69.012 568.934 62.7121 570.16 62.3271C570.16 62.3271 561.227 61.5851 555.811 63.9791C555.811 63.9791 560.583 58.4422 571.799 60.9621L578.105 55.8522C578.105 55.8522 566.342 54.2422 561.36 56.0202C561.36 56.0202 567.098 51.1203 579.793 54.6902L586.617 50.6093C586.617 50.6093 576.591 48.4533 570.622 49.2093C570.622 49.2093 576.928 45.8143 588.614 49.4963L593.518 47.3053C593.518 47.3053 586.176 45.8633 584.025 45.6394C581.874 45.4154 581.755 44.8134 581.755 44.8134C586.409 44.0385 591.187 44.5692 595.557 46.3463C595.557 46.3463 605.926 42.5034 605.744 41.8804Z" fill="#3480E3"/>
<path d="M488.665 33.9635C488.665 33.9635 462.042 32.3605 465.153 51.0223C465.153 51.0223 464.53 54.3192 467.521 55.8172C467.521 55.8172 467.57 54.4172 470.253 54.9002C471.211 55.0646 472.185 55.1116 473.154 55.0402C474.448 54.9435 475.676 54.4329 476.657 53.5842V53.5842C476.657 53.5842 484.146 50.4903 487.061 38.2545C487.061 38.2545 489.219 35.5875 489.163 34.9015L484.651 36.8195C484.651 36.8195 486.185 40.0604 484.98 42.7554C484.98 42.7554 484.833 36.9385 483.964 37.0715C483.789 37.0715 481.631 38.1985 481.631 38.1985C481.631 38.1985 484.273 43.8474 482.276 47.9493C482.276 47.9493 483.04 40.9914 480.805 38.6044L477.645 40.4524C477.645 40.4524 480.735 46.2833 478.64 51.0433C478.64 51.0433 479.179 43.7424 476.979 40.9004L474.114 43.1404C474.114 43.1404 477.014 48.8873 475.242 52.8353C475.242 52.8353 475.011 44.3374 473.49 43.6934C473.49 43.6934 470.982 45.9053 470.597 46.8153C470.597 46.8153 472.587 51.0153 471.353 53.1922C471.353 53.1922 470.597 47.5293 469.952 47.5013C469.952 47.5013 467.451 51.2533 467.192 53.8012C467.313 51.4248 468.057 49.122 469.35 47.1233C467.906 47.3949 466.573 48.0837 465.517 49.1043C465.517 49.1043 465.91 46.4513 469.966 46.2203C469.966 46.2203 472.033 43.3714 472.587 43.2034C472.587 43.2034 468.551 42.8604 466.099 43.9454C466.099 43.9454 468.257 41.4464 473.322 42.5454L476.125 40.2354C476.125 40.2354 470.807 39.5354 468.558 40.3124C468.558 40.3124 471.15 38.1005 476.881 39.7104L479.971 37.8695C479.971 37.8695 475.438 36.8965 472.741 37.2465C472.741 37.2465 475.585 35.7135 480.875 37.3725L483.075 36.3855C483.075 36.3855 479.761 35.7345 478.787 35.6295C477.813 35.5245 477.764 35.2585 477.764 35.2585C479.867 34.9134 482.025 35.1556 483.999 35.9585C483.999 35.9585 488.749 34.2575 488.665 33.9635Z" fill="#3480E3"/>
<path opacity="0.1" d="M593.133 509.194C603.553 509.194 612 507.768 612 506.009C612 504.25 603.553 502.824 593.133 502.824C582.713 502.824 574.265 504.25 574.265 506.009C574.265 507.768 582.713 509.194 593.133 509.194Z" fill="#3480E3"/>
<path opacity="0.1" d="M18.8673 461.783C29.2874 461.783 37.7346 460.357 37.7346 458.598C37.7346 456.839 29.2874 455.413 18.8673 455.413C8.44718 455.413 0 456.839 0 458.598C0 460.357 8.44718 461.783 18.8673 461.783Z" fill="#3480E3"/>
<path opacity="0.1" d="M580.003 447.504C590.423 447.504 598.871 446.078 598.871 444.319C598.871 442.56 590.423 441.134 580.003 441.134C569.583 441.134 561.136 442.56 561.136 444.319C561.136 446.078 569.583 447.504 580.003 447.504Z" fill="#3480E3"/>
<path opacity="0.1" d="M91.8424 478.87C102.263 478.87 110.71 477.444 110.71 475.685C110.71 473.926 102.263 472.5 91.8424 472.5C81.4223 472.5 72.9751 473.926 72.9751 475.685C72.9751 477.444 81.4223 478.87 91.8424 478.87Z" fill="#3480E3"/>
<path opacity="0.1" d="M495.903 481.607C506.323 481.607 514.77 480.181 514.77 478.422C514.77 476.663 506.323 475.237 495.903 475.237C485.482 475.237 477.035 476.663 477.035 478.422C477.035 480.181 485.482 481.607 495.903 481.607Z" fill="#3480E3"/>
<path d="M551.839 544.9C567.398 544.9 580.01 542.769 580.01 540.14C580.01 537.511 567.398 535.38 551.839 535.38C536.28 535.38 523.668 537.511 523.668 540.14C523.668 542.769 536.28 544.9 551.839 544.9Z" fill="#3480E3"/>
<path d="M563.483 532.356C564.767 531.31 565.702 529.899 566.166 528.31C566.517 526.7 565.83 524.81 564.289 524.187C562.565 523.53 560.723 524.719 559.328 525.923C557.934 527.127 556.33 528.506 554.501 528.254C555.442 527.402 556.147 526.322 556.546 525.117C556.945 523.912 557.025 522.625 556.778 521.381C556.696 520.865 556.476 520.381 556.141 519.981C555.188 518.959 553.45 519.4 552.308 520.205C548.665 522.767 547.649 527.708 547.628 532.16C547.264 530.55 547.572 528.877 547.558 527.26C547.544 525.643 547.103 523.76 545.709 522.906C544.848 522.445 543.882 522.215 542.906 522.241C541.267 522.185 539.445 522.347 538.331 523.544C536.93 525.027 537.301 527.526 538.506 529.143C539.711 530.76 541.554 531.803 543.25 532.937C544.607 533.743 545.765 534.847 546.633 536.164C546.74 536.345 546.824 536.538 546.886 536.738H557.157C559.453 535.569 561.581 534.095 563.483 532.356V532.356Z" fill="#3480E3"/>
<path d="M92.8162 397.398C92.8162 397.398 96.6696 402.424 91.0437 409.998C85.4179 417.572 80.7798 423.998 82.6364 428.73C82.6364 428.73 91.1278 414.632 98.0498 414.436C104.972 414.24 100.418 405.896 92.8162 397.398Z" fill="#3480E3"/>
<path opacity="0.1" d="M92.8162 397.398C93.1533 397.882 93.4177 398.413 93.6009 398.973C100.341 406.883 103.935 414.268 97.4542 414.457C91.422 414.625 84.1848 425.405 82.4473 428.128C82.5044 428.339 82.5722 428.547 82.6504 428.751C82.6504 428.751 91.1418 414.653 98.0637 414.457C104.986 414.261 100.418 405.896 92.8162 397.398Z" fill="black"/>
<path d="M99.9694 403.824C99.9694 405.595 99.7732 407.03 99.528 407.03C99.2828 407.03 99.0867 405.63 99.0867 403.824C99.0867 402.018 99.3319 402.886 99.5771 402.886C99.8223 402.886 99.9694 402.053 99.9694 403.824Z" fill="#FFD037"/>
<path d="M102.429 405.938C100.873 406.785 99.514 407.296 99.4019 407.086C99.2898 406.876 100.446 406.008 102.001 405.161C103.556 404.314 102.947 404.93 103.059 405.161C103.171 405.392 103.984 405.098 102.429 405.938Z" fill="#FFD037"/>
<path d="M72.4917 397.398C72.4917 397.398 68.6384 402.424 74.2642 409.998C79.8901 417.572 84.5281 423.998 82.6715 428.73C82.6715 428.73 74.1872 414.632 67.2582 414.436C60.3292 414.24 64.8901 405.896 72.4917 397.398Z" fill="#3480E3"/>
<path opacity="0.1" d="M72.4917 397.398C72.1537 397.883 71.8871 398.413 71.7 398.973C64.9602 406.883 61.3731 414.268 67.8467 414.457C73.8859 414.625 81.1231 425.405 82.8606 428.128C82.8043 428.34 82.7341 428.548 82.6505 428.751C82.6505 428.751 74.1661 414.653 67.2371 414.457C60.3081 414.261 64.8901 405.896 72.4917 397.398Z" fill="black"/>
<path d="M65.3314 403.824C65.3314 405.595 65.5346 407.03 65.7798 407.03C66.025 407.03 66.2212 405.63 66.2212 403.824C66.2212 402.018 65.976 402.886 65.7308 402.886C65.4856 402.886 65.3314 402.053 65.3314 403.824Z" fill="#FFD037"/>
<path d="M62.8863 405.938C64.4417 406.785 65.7939 407.296 65.913 407.086C66.0321 406.876 64.8621 406.008 63.3067 405.161C61.7514 404.314 62.3679 404.93 62.2488 405.161C62.1297 405.392 61.324 405.098 62.8863 405.938Z" fill="#FFD037"/>
<path d="M66.5576 428.114C66.5576 428.114 77.3189 427.785 80.5697 425.475C83.8205 423.165 97.125 420.414 97.9237 424.117C98.7224 427.82 114.101 442.52 101.952 442.618C89.8037 442.716 73.7177 440.728 70.481 438.754C67.2442 436.78 66.5576 428.114 66.5576 428.114Z" fill="#A8A8A8"/>
<path opacity="0.2" d="M102.162 441.33C90.0138 441.428 73.9279 439.44 70.6911 437.466C68.232 435.968 67.2442 430.585 66.9149 428.1H66.5576C66.5576 428.1 67.2582 436.773 70.4739 438.74C73.6897 440.707 89.7966 442.702 101.945 442.604C105.448 442.604 106.66 441.33 106.597 439.482C106.107 440.609 104.769 441.309 102.162 441.33Z" fill="black"/>
<defs>
<linearGradient id="paint0_linear" x1="228.846" y1="535.373" x2="228.846" y2="-4.36192e-06" gradientUnits="userSpaceOnUse">
<stop stop-color="#808080" stop-opacity="0.25"/>
<stop offset="0.54" stop-color="#808080" stop-opacity="0.12"/>
<stop offset="1" stop-color="#808080" stop-opacity="0.1"/>
</linearGradient>
</defs>
</svg>
