<svg width="432" height="298" viewBox="0 0 432 298" fill="none" xmlns="http://www.w3.org/2000/svg">
<path opacity="0.1" d="M426.504 85.9603C426.429 86.2804 426.358 86.6005 426.274 86.9169C423.679 97.7964 419.437 108.28 413.13 117.908C412.92 118.228 412.71 118.548 412.497 118.868C408.338 125.063 403.361 130.772 397.678 135.869C394.537 138.689 391.11 141.368 387.034 143.299C381.325 146.011 374.65 147.112 368.089 148.011C361.275 148.95 354.367 149.734 347.478 150.579C345.03 150.874 342.596 151.187 340.178 151.518C333.522 152.413 326.914 153.449 320.465 154.823C312.491 156.517 304.764 158.736 297.463 161.858C296.88 162.097 296.304 162.351 295.734 162.62C295.164 162.879 294.591 163.141 294.029 163.408C293.467 163.674 292.913 163.94 292.363 164.213C292.078 164.354 291.793 164.494 291.512 164.641C291.231 164.789 290.954 164.918 290.681 165.062C289.858 165.479 289.051 165.907 288.244 166.339L288.212 166.357C287.678 166.641 287.152 166.932 286.63 167.224C283.646 168.871 280.726 170.59 277.806 172.32L275.97 173.399L273.125 175.071C272.571 175.398 272.005 175.726 271.447 176.049C271.051 176.287 270.656 176.524 270.225 176.769C268.151 177.956 266.05 179.121 263.894 180.232C263.383 180.498 262.869 180.764 262.35 181.023C257.994 183.233 253.437 185.1 248.731 186.605L248.668 186.627C246.3 187.377 243.885 187.997 241.435 188.483C240.022 188.763 238.605 188.993 237.173 189.169C233.344 189.663 229.462 189.712 225.619 189.317C218.073 188.522 211.002 185.889 203.461 185.001C187.934 183.203 172.855 188.997 158.254 193.536C154.664 194.651 151.047 195.695 147.404 196.668C144.983 197.319 142.553 197.934 140.104 198.528C125.098 202.131 109.783 204.572 94.3232 205.825C87.8606 206.4 81.3595 206.532 74.8753 206.217C72.4102 206.08 69.9728 205.857 67.5789 205.498C59.3882 204.347 51.7515 201.933 45.5868 197.513C40.5378 193.884 36.9252 189.155 34.1752 184.206C31.3601 179.157 29.3726 173.76 28.2756 168.187C28.1252 167.429 27.9907 166.666 27.8799 165.904C27.6821 164.599 27.5343 163.288 27.4367 161.969C26.9043 154.94 27.8277 147.883 30.159 141.163C32.7705 133.639 37.1231 126.417 39.0382 118.836C39.1173 118.515 39.1925 118.195 39.2637 117.876C39.5253 116.724 39.7194 115.561 39.8454 114.391C40.8227 105.076 37.0756 95.9946 34.1357 86.8846C34.0328 86.5681 33.9299 86.248 33.831 85.9279C33.5144 84.9161 33.2111 83.9055 32.9209 82.896C30.1986 73.2646 29.4428 62.9534 31.8684 53.3399C31.9436 53.0198 32.0346 52.6997 32.1216 52.3832C33.7454 46.3064 36.799 40.6217 41.072 35.7206C45.6145 30.5416 51.5774 26.2294 57.9479 22.4422C61.0527 20.596 64.263 18.8709 67.5789 17.2668C69.953 16.116 72.3851 15.0262 74.8753 13.9976C94.8375 5.72563 117.609 1.68675 140.128 2.57868C141.315 2.62544 142.502 2.68298 143.689 2.7621C144.876 2.84123 146.174 2.93474 147.416 3.03903C161.922 4.31939 176.036 7.4088 190.051 10.7859C194.748 11.9188 199.437 13.0805 204.122 14.2206C206.207 14.7241 208.288 15.2276 210.373 15.7168C220.586 18.1156 230.949 20.2879 241.442 21.9099C243.872 22.2912 246.304 22.6388 248.739 22.9529C257.193 24.0822 265.714 24.7392 274.257 24.9202C277.578 24.9802 280.9 24.9538 284.224 24.8411C285.902 24.786 287.581 24.7032 289.261 24.5929C306.612 23.4816 323.381 19.7628 340.178 16.2886C342.607 15.7851 345.04 15.2888 347.478 14.7996C350.675 14.1595 353.872 13.5409 357.085 12.969C377.079 9.39767 394.901 11.4513 413.49 18.8205C417.716 20.4929 421.938 22.5142 424.525 25.6539C427.113 28.7937 427.762 32.6491 428.245 36.3715C428.929 41.6728 429.377 47.0424 429.547 52.4408C429.547 52.7573 429.547 53.0773 429.57 53.3974C429.84 64.3021 428.945 75.311 426.504 85.9603Z" fill="#6C63FF"/>
<path opacity="0.1" d="M293.879 117.908H292.573V118.333V118.868H294.053L293.879 117.908ZM279.068 117.908C279.066 117.916 279.066 117.925 279.068 117.933C279.033 118.196 278.993 118.458 278.953 118.725V118.796V118.868H290.27V118.811L291.061 117.908H279.068ZM248.739 117.908V86.917H261.757C261.618 86.8343 261.476 86.7479 261.33 86.6688L261.14 86.5573L260.894 86.4207C260.752 86.3451 260.609 86.2696 260.459 86.1977C260.309 86.1257 260.218 86.0754 260.091 86.0143L260.004 85.9711H259.984H248.739V84.2627L248.434 84.3706L248.114 84.5073H248.09L248.023 84.5397L247.821 84.6368L247.619 84.7339C247.421 84.831 247.223 84.9389 247.026 85.0504L246.836 85.1655L246.44 85.3957C245.93 85.7049 245.427 86.0286 244.909 86.3307C244.778 86.4063 244.648 86.4818 244.513 86.5501C244.232 86.7012 243.943 86.8451 243.646 86.9745C243.52 87.0321 243.397 87.0824 243.251 87.1292L243.037 87.2047L242.839 87.2658C242.375 87.4127 241.899 87.5257 241.415 87.6039V117.901H221.896C221.896 117.937 221.923 117.966 221.935 118.002C222.042 118.289 222.149 118.574 222.252 118.861H241.443V152.079C241.543 152.079 241.642 152.079 241.739 152.079L242.084 152.097L242.705 152.129L243.698 152.237L244.153 152.276L244.648 152.323H244.723L245.597 152.42L245.783 152.442L246.207 152.496L246.812 152.575L248.264 152.517L248.462 152.55C248.541 152.55 248.624 152.571 248.707 152.586V118.868H278.914V118.796V118.725C278.953 118.458 278.993 118.196 279.029 117.933C279.027 117.925 279.027 117.916 279.029 117.908H248.739ZM293.879 117.908H292.573V118.333V118.868H294.053L293.879 117.908ZM278.253 117.908C278.206 118.228 278.162 118.548 278.115 118.868H290.733L291.592 117.908H278.253ZM248.739 117.908V86.917H261.757C261.618 86.8343 261.476 86.7479 261.33 86.6688L261.14 86.5573L260.894 86.4207C260.752 86.3451 260.609 86.2696 260.459 86.1977C260.309 86.1257 260.218 86.0754 260.091 86.0143L260.004 85.9711H259.976H248.739V84.2627L248.434 84.3706L248.114 84.5073H248.09L248.023 84.5397L247.821 84.6368L247.619 84.7339C247.421 84.831 247.223 84.9389 247.026 85.0504L246.836 85.1655L246.44 85.3957C245.93 85.7049 245.427 86.0286 244.909 86.3307C244.778 86.4063 244.648 86.4818 244.513 86.5501C244.232 86.7012 243.943 86.8451 243.646 86.9745C243.52 87.0321 243.397 87.0824 243.251 87.1292L243.037 87.2047L242.839 87.2658C242.375 87.4127 241.899 87.5257 241.415 87.6039V117.901H221.896C221.896 117.937 221.923 117.966 221.935 118.002C222.042 118.286 222.153 118.574 222.256 118.861H241.443V152.075H241.739L242.084 152.093L242.705 152.125L243.698 152.237L244.153 152.276L244.648 152.323H244.723L245.597 152.42L245.783 152.442L246.207 152.496L246.812 152.575L248.264 152.517L248.462 152.55C248.541 152.55 248.624 152.571 248.707 152.586V118.868H278.122C278.17 118.548 278.213 118.228 278.261 117.908H248.739ZM347.478 53.3723H429.571C429.571 53.0522 429.571 52.7321 429.547 52.4156H347.478V14.7889C345.041 15.2684 342.607 15.7647 340.178 16.2778V52.4156H250.895L250.67 52.2322L251.01 51.9589L284.22 24.8339C280.896 24.949 277.574 24.9754 274.253 24.9131L248.735 45.7513V22.953C246.298 22.6389 243.865 22.2912 241.439 21.91V44.7011L204.13 14.2206C199.445 13.0805 194.756 11.9189 190.059 10.786L240.798 52.2322L240.572 52.4156H147.428V3.07144C146.186 2.96594 144.943 2.87363 143.701 2.79451C142.514 2.71538 141.327 2.65784 140.139 2.61108V52.4156H74.8753V14.03C72.4115 15.0562 69.9794 16.146 67.5789 17.2992V52.4156H32.1216C32.0346 52.7321 31.9436 53.0522 31.8684 53.3723H67.5789V85.9603H33.831C33.9299 86.2804 34.0328 86.6005 34.1357 86.917H67.5789V117.908H39.2637C39.1925 118.227 39.1173 118.547 39.0382 118.868H67.5789V205.519C69.953 205.854 72.4102 206.088 74.8753 206.239V118.868H140.128V198.542C142.577 197.949 145.006 197.334 147.428 196.683V118.868H241.443V188.479C243.893 187.994 246.308 187.374 248.676 186.623L248.739 186.602V118.868H340.178V151.518C342.604 151.194 345.038 150.883 347.478 150.586V118.868H412.497C412.71 118.548 412.92 118.228 413.13 117.908H347.478V86.917H426.275C426.358 86.6005 426.429 86.2804 426.504 85.9603H347.478V53.3723ZM74.8753 53.3723H140.128V85.9603H74.8753V53.3723ZM74.8753 117.908V86.917H140.128V117.908H74.8753ZM147.428 53.3723H241.443V85.9603H147.428V53.3723ZM147.428 117.908V86.917H241.443V117.908H147.428ZM340.178 117.908H248.739V86.917H340.178V117.908ZM340.178 85.9603H248.739V54.2462L250.021 53.3723H340.178V85.9603ZM279.068 117.908C279.066 117.916 279.066 117.925 279.068 117.933C279.033 118.196 278.993 118.458 278.953 118.725V118.796V118.868H290.27V118.811L291.061 117.908H279.068ZM293.879 117.908H292.573V118.333V118.868H294.053L293.879 117.908ZM248.739 117.908V86.917H261.757C261.618 86.8343 261.476 86.7479 261.33 86.6688L261.14 86.5573L260.894 86.4207C260.752 86.3451 260.609 86.2696 260.459 86.1977C260.309 86.1257 260.218 86.0754 260.091 86.0143L260.004 85.9711H259.984H248.739V84.2627L248.434 84.3706L248.114 84.5073H248.09L248.023 84.5397L247.821 84.6368L247.619 84.7339C247.421 84.831 247.223 84.9389 247.026 85.0504L246.836 85.1655L246.44 85.3957C245.93 85.7049 245.427 86.0286 244.909 86.3307C244.778 86.4063 244.648 86.4818 244.513 86.5501C244.232 86.7012 243.943 86.8451 243.646 86.9745C243.52 87.0321 243.397 87.0824 243.251 87.1292L243.037 87.2047L242.839 87.2658C242.375 87.4127 241.899 87.5257 241.415 87.6039V117.901H221.896C221.896 117.937 221.923 117.966 221.935 118.002C222.042 118.289 222.149 118.574 222.252 118.861H241.443V152.079C241.543 152.079 241.642 152.079 241.739 152.079L242.084 152.097L242.705 152.129L243.698 152.237L244.153 152.276L244.648 152.323H244.723L245.597 152.42L245.783 152.442L246.207 152.496L246.812 152.575L248.264 152.517L248.462 152.55C248.541 152.55 248.624 152.571 248.707 152.586V118.868H278.914V118.796V118.725C278.953 118.458 278.993 118.196 279.029 117.933C279.027 117.925 279.027 117.916 279.029 117.908H248.739Z" fill="#6C63FF"/>
<path opacity="0.1" d="M106.249 30.9372H106.815C106.628 30.8655 106.466 30.7502 106.344 30.603C106.223 30.4559 106.146 30.282 106.122 30.0992C106.122 29.4375 107.211 28.898 108.54 28.898H125.46C126.789 28.898 127.873 29.4375 127.873 30.0992C127.873 30.7574 126.789 31.3005 125.46 31.3005H124.894C125.08 31.371 125.243 31.4855 125.365 31.6321C125.486 31.7788 125.563 31.9524 125.586 32.1349C125.586 32.6995 124.795 33.1743 123.738 33.3001H128.609C129.935 33.3001 131.023 33.8396 131.023 34.5014C131.023 35.1631 129.935 35.7026 128.609 35.7026H111.686C110.36 35.7026 109.272 35.1595 109.272 34.5014C109.272 33.9367 110.063 33.4656 111.12 33.3361H106.249C104.92 33.3361 103.835 32.7966 103.835 32.1349C103.835 31.4731 104.92 30.9372 106.249 30.9372Z" fill="#6C63FF"/>
<path opacity="0.1" d="M289.625 42.3633H290.191C290.005 42.2911 289.844 42.1756 289.723 42.0284C289.602 41.8813 289.526 41.7077 289.502 41.5253C289.502 40.8636 290.586 40.3241 291.916 40.3241H308.835C310.165 40.3241 311.253 40.8636 311.253 41.5253C311.253 42.1835 310.165 42.723 308.835 42.723H308.274C308.459 42.7952 308.621 42.9107 308.742 43.0579C308.863 43.205 308.939 43.3785 308.962 43.561C308.962 44.1256 308.171 44.6004 307.114 44.7262H311.985C313.315 44.7262 314.399 45.2657 314.399 45.9275C314.399 46.5892 313.315 47.1287 311.985 47.1287H295.066C293.736 47.1287 292.648 46.5856 292.648 45.9275C292.648 45.3628 293.439 44.8881 294.496 44.7622H289.625C288.299 44.7622 287.211 44.2227 287.211 43.561C287.211 42.8992 288.299 42.3633 289.625 42.3633Z" fill="#6C63FF"/>
<path opacity="0.1" d="M80.2803 91.2615H80.8422C80.6562 91.1896 80.4945 91.0742 80.3735 90.927C80.2526 90.7798 80.1767 90.606 80.1537 90.4235C80.1537 89.7654 81.2418 89.2223 82.5674 89.2223H99.4907C100.816 89.2223 101.904 89.7654 101.904 90.4235C101.904 91.0853 100.816 91.6248 99.4907 91.6248H98.9249C99.1111 91.6954 99.2731 91.81 99.3941 91.9567C99.5152 92.1035 99.5909 92.2769 99.6134 92.4591C99.6134 93.0238 98.822 93.4985 97.7656 93.6244H102.636C103.966 93.6244 105.054 94.1675 105.054 94.8256C105.054 95.4838 103.966 96.0269 102.636 96.0269H85.7328C84.4033 96.0269 83.3191 95.4874 83.3191 94.8256C83.3191 94.2646 84.1105 93.7899 85.167 93.6604H80.2803C78.9508 93.6604 77.8627 93.1209 77.8627 92.4591C77.8627 91.7974 78.9666 91.2615 80.2803 91.2615Z" fill="#6C63FF"/>
<path opacity="0.1" d="M398.866 219.425C401.708 206.783 366.909 189.643 321.14 181.141C275.371 172.64 235.963 175.996 233.121 188.637C230.279 201.279 265.078 218.419 310.847 226.921C356.616 235.423 396.024 232.067 398.866 219.425Z" fill="#6C63FF"/>
<path d="M306.438 138.423C306.438 138.423 310.937 118.351 328.113 120.21C328.113 120.21 339.984 120.951 342.425 128.014V143.627L306.438 138.423Z" fill="#3A3768"/>
<path d="M400.504 145.86L247.544 134.333L227.914 138.052L229.141 162.958L230.478 163.106L232.001 200.506L382.096 225.038L398.05 212.77V172.226L400.092 171.137L400.504 145.86Z" fill="#D48A9B"/>
<path opacity="0.05" d="M400.709 145.86L400.298 171.137L383.734 178.2L383.529 151.805L400.709 145.86Z" fill="black"/>
<path opacity="0.05" d="M398.05 172.251L398.252 212.029L382.302 224.297L383.327 178.2L398.05 172.251Z" fill="black"/>
<path opacity="0.05" d="M230.684 164.594L383.45 181.538L383.529 178.322L230.569 163.328L230.684 164.594Z" fill="black"/>
<path opacity="0.05" d="M398.05 173.712V172.251L382.915 178.322V181.545L398.05 173.712Z" fill="black"/>
<path d="M227.708 138.052L247.338 134.333L400.298 145.86L383.121 151.805L227.708 138.052Z" fill="#EFC6CD"/>
<path opacity="0.1" d="M384.003 146.576L391.51 147.022L379.069 150.406L372.734 149.993L384.003 146.576Z" fill="black"/>
<path d="M384.003 146.277L391.51 146.723L379.069 150.111L372.734 149.694L384.003 146.277Z" fill="white"/>
<path d="M383.105 147.044C383.402 146.928 383.715 147.148 384.031 147.202C384.213 147.234 384.399 147.202 384.581 147.234C384.949 147.277 385.313 147.5 385.665 147.389" fill="#D3DAE1"/>
<path d="M382.718 147.248C383.01 147.133 383.327 147.349 383.643 147.407C383.825 147.436 384.011 147.407 384.193 147.436C384.561 147.482 384.925 147.705 385.278 147.594" fill="#D3DAE1"/>
<path d="M381.823 147.659C382.12 147.543 382.437 147.759 382.753 147.813C382.931 147.846 383.121 147.813 383.299 147.846C383.671 147.892 384.035 148.115 384.383 148" fill="#D3DAE1"/>
<path opacity="0.1" d="M351.557 143.217L359.064 143.666L346.623 147.051L340.288 146.633L351.557 143.217Z" fill="black"/>
<path d="M351.557 142.922L359.064 143.368L346.623 146.752L340.288 146.339L351.557 142.922Z" fill="white"/>
<path d="M350.659 143.688C350.956 143.573 351.269 143.789 351.585 143.846C351.767 143.875 351.953 143.846 352.135 143.875C352.503 143.922 352.867 144.145 353.219 144.033" fill="#D3DAE1"/>
<path d="M350.271 143.893C350.564 143.778 350.881 143.994 351.197 144.048C351.379 144.08 351.565 144.048 351.747 144.08C352.115 144.127 352.479 144.35 352.832 144.235" fill="#D3DAE1"/>
<path d="M349.377 144.299C349.674 144.184 349.991 144.404 350.307 144.458C350.485 144.49 350.675 144.458 350.853 144.49C351.225 144.533 351.589 144.76 351.937 144.645" fill="#D3DAE1"/>
<path opacity="0.1" d="M367.12 144.896L374.63 145.342L362.189 148.73L355.851 148.313L367.12 144.896Z" fill="black"/>
<path d="M367.12 144.601L374.63 145.047L362.189 148.432L355.851 148.015L367.12 144.601Z" fill="white"/>
<path d="M366.221 145.368C366.518 145.252 366.835 145.468 367.151 145.522C367.329 145.555 367.515 145.522 367.697 145.555C368.065 145.598 368.433 145.824 368.782 145.709" fill="#D3DAE1"/>
<path d="M365.834 145.569C366.13 145.454 366.447 145.673 366.763 145.727C366.942 145.76 367.128 145.727 367.31 145.76C367.678 145.803 368.046 146.029 368.394 145.914" fill="#D3DAE1"/>
<path d="M364.943 145.979C365.236 145.864 365.553 146.08 365.869 146.137C366.051 146.166 366.237 146.137 366.419 146.166C366.787 146.213 367.151 146.436 367.503 146.324" fill="#D3DAE1"/>
<path opacity="0.1" d="M197.177 284.621C241.425 284.621 277.295 277.91 277.295 269.631C277.295 261.352 241.425 254.64 197.177 254.64C152.929 254.64 117.059 261.352 117.059 269.631C117.059 277.91 152.929 284.621 197.177 284.621Z" fill="#6C63FF"/>
<path d="M284.912 146.874C284.058 140.048 280.675 133.535 280.675 133.535L280.932 131.233C280.932 131.233 280.987 130.082 280.904 128.356C280.913 127.278 281.069 126.206 281.367 125.162C282.059 123.166 280.5 120.713 280.326 120.487C280.152 120.26 280.413 115.883 278.854 113.736C277.295 111.589 266.913 107.597 266.913 107.597C266.913 107.597 266.355 106.536 265.567 105.295L265.639 105.169C264.994 104.107 264.196 103.128 263.264 102.26C262.627 101.641 262.014 101.289 261.519 101.461C261.318 100.864 261.165 100.255 261.061 99.6379C261.163 99.663 261.27 99.6882 261.373 99.7062C261.802 99.7965 262.246 99.8063 262.679 99.735C263.644 99.5371 264.285 98.7495 264.823 98.0086C267.506 94.3042 269.817 90.2402 270.288 85.856C270.414 84.9612 270.368 84.0531 270.149 83.173C269.927 82.4888 269.616 81.8308 269.223 81.2129C268.53 79.9451 267.652 78.768 266.612 77.7135C264.764 75.944 262.216 74.8615 259.596 74.2213C256.646 73.5 253.571 73.2913 250.535 73.6063C249.744 73.689 248.953 73.8077 248.161 73.8544C247.157 73.8946 246.152 73.879 245.15 73.8077L239.971 73.5344L239.947 73.4624L239.084 73.4157C238.744 74.0307 239.084 74.7608 239.508 75.3362C239.931 75.9116 240.418 76.5123 240.382 77.192C240.346 77.8717 239.804 78.4184 239.381 78.9903C238.958 79.5621 238.637 80.3102 239.06 80.8712C239.12 80.9488 239.191 81.019 239.27 81.0798C239.717 81.5006 240.497 81.5474 241.173 81.5402H241.292C239.588 83.58 238.667 86.0713 238.669 88.6325C238.68 90.8212 239.354 92.9648 240.617 94.8286C241.879 96.6924 243.682 98.2044 245.827 99.1991C245.902 99.4329 245.977 99.6738 246.048 99.9184C246.833 102.445 247.114 105.078 246.879 107.694L246.788 107.874L246.733 107.683C246.733 107.683 240.631 111.445 238.819 112.441C237.007 113.438 235.187 116.815 235.1 117.736C235.013 118.656 232.156 132.542 232.156 132.542C231.575 133.941 231.097 135.373 230.723 136.829L227.079 139.739C227.079 139.739 219.561 140.354 217.385 139.894L217.448 140.275C215.529 139.877 213.574 139.636 211.608 139.556C210.534 139.43 209.442 139.563 208.442 139.94L208.367 139.973L208.308 139.998C207.162 140.14 206.044 140.426 204.984 140.847C204.858 140.893 204.743 140.94 204.632 140.987L204.656 140.516L196.52 140.135L192.366 139.369C192.366 139.369 190.894 138.29 190.027 138.448C189.161 138.606 187.345 137.527 187.345 137.527C186.93 137.232 186.482 136.979 186.007 136.772C185.869 135.902 185.782 135.373 185.782 135.373C185.782 135.373 182.549 123.713 180.127 116.858C178.505 112.28 176.17 110.025 174.793 109.043C174.18 108.072 173.777 107.446 173.777 107.446C173.511 106.604 172.055 104.709 171.683 104.662C171.624 104.576 171.58 104.533 171.557 104.533C171.477 104.525 171.397 104.536 171.323 104.565C170.643 101.486 170.247 97.6274 171.288 94.2647C172.712 93.2005 173.86 91.8633 174.65 90.3487C175.439 88.8341 175.85 87.1795 175.854 85.5036C175.854 85.4532 175.854 85.4028 175.854 85.3525C175.854 85.3021 175.854 85.2482 175.854 85.1979C175.853 82.525 174.812 79.9387 172.914 77.8969L172.779 77.7603C172.815 77.7371 172.85 77.7119 172.882 77.6847C173.18 77.4655 173.406 77.1773 173.538 76.8506C173.669 76.5238 173.701 76.1708 173.63 75.8289C173.452 75.1384 172.859 74.5953 172.554 73.9408C172.371 73.4369 172.224 72.9227 172.115 72.4015C171.882 71.6612 171.454 70.9835 170.868 70.427L170.928 70.5708C169.377 68.9848 166.71 68.1971 164.308 68.5496C162.523 68.8085 160.861 69.5638 159.069 69.7976C157.783 69.963 156.473 69.8551 155.179 69.9738C153.979 70.086 152.81 70.393 151.729 70.8801C151.447 70.9893 151.196 71.1568 150.997 71.3692C150.813 71.6539 150.689 71.9674 150.633 72.2936C150.194 73.7501 148.801 74.7895 147.792 76.0052C146.639 77.394 145.972 79.0654 145.877 80.8029C145.837 81.2445 145.884 81.6889 146.015 82.1156C146.102 82.371 146.237 82.612 146.3 82.8709C146.498 83.6621 146.043 84.4498 145.821 85.2338C145.542 86.234 145.641 87.2904 146.102 88.2333C147.665 91.4126 152.797 92.4736 153.866 95.8112C154.683 96.1527 155.547 96.3945 156.434 96.5305C156.505 96.8613 156.568 97.1958 156.62 97.5339C156.596 97.5431 156.573 97.5552 156.552 97.5699C155.168 98.7963 154.823 101.166 154.823 101.166L154.657 101.289C154.091 101.713 152.156 103.137 150.407 104.234C148.33 105.54 144.868 109.913 142.446 111.219C140.025 112.524 138.03 120.57 138.553 123.494C139.075 126.417 141.235 134.618 140.369 137.61C139.502 140.602 141.667 154.258 141.667 154.258C143.119 154.51 144.54 154.893 145.908 155.402L145.865 155.999L145.734 157.797C145.734 157.797 141.813 170.687 143.313 180.61C144.812 190.533 142.62 191.554 142.62 191.554C142.62 191.554 143.079 195.953 141.928 197.488C140.776 199.024 140.543 202.397 140.543 202.397C140.543 202.397 140.428 209.968 140.658 212.108C140.887 214.248 141.002 218.147 140.195 219.067C139.388 219.988 137.888 226.019 138.003 227.861C138.117 229.702 135.118 233.899 136.733 239.319C138.347 244.739 131.984 244.844 131.984 244.844C131.984 244.844 132.796 253.116 134.525 255.482L134.778 255.82C134.734 255.957 134.691 256.101 134.643 256.255C133.99 258.413 133.096 261.819 133.717 262.643C134.639 263.873 135.102 263.664 135.102 263.664L135.447 269.188C135.447 269.188 142.371 274.508 147.681 274.306C152.991 274.105 151.951 269.188 151.951 269.188L147.428 258.528L147.274 258.169L152.299 249.537C152.299 249.537 153.684 245.753 154.028 244.423C154.372 243.092 156.252 238.377 156.252 238.377C156.252 238.377 161 228.149 161.099 226.919C161.198 225.689 161.562 219.046 162.484 217.711C163.406 216.377 165.946 208.72 165.946 208.72L166.009 208.77C166.44 209.155 166.748 209.639 166.9 210.171C167.052 210.702 167.042 211.261 166.872 211.788C166.29 213.73 166.638 217.719 166.638 217.719C166.638 217.719 166.409 221.096 165.946 222.836C165.483 224.577 165.372 238.794 166.179 242.168C166.824 244.869 166.805 249.925 166.773 251.839C166.231 253.871 165.756 256.396 166.638 256.694C168.142 257.208 175.759 257.104 175.759 257.104C175.759 257.104 178.988 256.079 183.376 259.661C187.764 263.243 201.261 258.64 201.261 258.64C201.261 258.64 205.415 257.615 197.221 254.651C191.503 252.583 187.811 251.206 185.398 249.731C185.453 249.634 185.513 249.537 185.564 249.433C185.564 249.433 182.216 246.555 184.986 241.456C187.756 236.356 187.641 232.044 187.641 232.044L188.104 214.856L186.719 192.039L185.647 168.094L185.837 168.036C186.019 172.438 186.965 182.919 191.915 180.887C198.147 178.33 192.837 171.68 192.837 171.68L190.039 166.724L190.874 166.465L187.744 157.272C187.444 155.478 187.404 153.656 187.625 151.852C187.687 150.797 187.664 149.739 187.554 148.687C191.654 148.036 195.579 147.346 196.283 147.504C197.114 147.687 201.763 147.723 203.591 147.73C202.994 148.155 202.515 148.576 202.515 148.576L209.958 153.129C209.958 153.129 212.482 151.874 213.009 150.543C213.526 150.424 214.005 150.192 214.401 149.867C214.481 151.438 214.94 153.14 216.538 153.179C216.938 153.187 217.335 153.116 217.701 152.971L229.873 150.78L228.828 156.711L229.556 157.887C229.188 162.89 228.765 168.202 228.393 172.874L228.223 173.895L228.31 173.913C227.732 181.106 227.269 186.555 227.269 186.555C227.951 185.374 229.009 184.408 230.304 183.782L230.383 194.456C230.383 194.456 230.992 211.335 230.992 213.637C230.992 215.938 231.076 221.078 231.076 221.078C231.076 221.078 232.377 227.368 233.153 229.44C233.928 231.511 234.538 240.949 234.538 240.949C234.538 240.949 236.358 243.556 235.578 244.545C234.799 245.534 238.609 247.688 238.609 247.688C238.609 247.688 236.184 250.681 236.01 252.677C235.99 252.907 236.239 253.151 236.69 253.396C236.548 253.5 236.401 253.605 236.239 253.705C235.115 254.389 233.469 254.863 230.992 254.669C224.238 254.13 219.478 259.809 223.633 260.96C227.787 262.11 240.251 262.341 240.251 262.341C240.251 262.341 244.026 260.201 246.978 261.165C246.935 263.416 247.057 265.48 247.077 265.754L247.041 265.779C245.277 267.217 241.898 269.692 238.598 270.702C233.849 272.159 232.797 278.068 238.942 278.834C245.087 279.6 254.089 277.913 254.089 277.913C254.089 277.913 258.762 274.77 262.311 274.08C265.86 273.389 268.891 271.853 268.286 270.012C267.89 268.836 266.873 265.754 266.185 263.682C266.145 263.557 266.105 263.438 266.066 263.322C266.173 263.107 266.28 262.884 266.378 262.653C266.378 262.653 264.562 254.061 266.034 251.914C267.506 249.767 266.727 228.282 266.727 228.282C266.727 228.282 264.214 222.836 265.516 219.538C266.818 216.24 263.439 211.558 263.439 211.558C263.439 211.558 263.807 202.174 264.796 196.945C264.841 196.722 264.884 196.506 264.926 196.298C266.583 195.851 268.197 195.284 269.754 194.604C269.754 194.604 270.62 182.786 271.139 180.103C271.19 179.851 271.261 179.445 271.348 178.916L271.744 177.02L272.211 174.863L273.794 167.508L276.65 164.149L284.01 157.315C284.01 157.315 285.779 153.704 284.912 146.874ZM171.414 104.677L171.359 104.713C171.35 104.687 171.344 104.66 171.339 104.633C171.362 104.651 171.387 104.665 171.414 104.677ZM244.129 113.053L243.844 113.618L244.885 112.675L243.472 114.114L243.947 113.208L244.129 113.053ZM237.102 126.252C236.829 126.91 236.536 127.622 236.231 128.363L236.789 126.849L237.102 126.252Z" fill="url(#paint0_linear)"/>
<path d="M214.394 147.77C214.394 147.77 213.424 153.636 216.332 153.711C219.241 153.787 221.183 149.187 221.183 149.187L219.996 145.508L214.394 147.77Z" fill="#585B8A"/>
<path opacity="0.2" d="M214.394 147.77C214.394 147.77 213.424 153.636 216.332 153.711C219.241 153.787 221.183 149.187 221.183 149.187L219.996 145.508L214.394 147.77Z" fill="black"/>
<path d="M149.252 274.741C144.077 274.946 137.326 269.631 137.326 269.631L136.99 264.11C136.99 264.11 136.543 264.315 135.641 263.089C135.035 262.265 135.906 258.852 136.543 256.705C136.851 255.655 137.105 254.906 137.105 254.906L148.461 257.669L149.003 258.974L153.411 269.627C153.411 269.627 154.424 274.536 149.252 274.741Z" fill="#636992"/>
<path d="M201.431 259.104C201.431 259.104 188.274 263.704 184.021 260.125C179.767 256.546 176.598 257.568 176.598 257.568C176.598 257.568 169.175 257.672 167.711 257.158C166.848 256.859 167.315 254.302 167.853 252.267C168.217 250.86 168.613 249.699 168.613 249.699C168.613 249.699 181.544 245.71 183.57 248.163C184.178 248.884 184.906 249.515 185.726 250.033C188.069 251.573 191.729 252.968 197.518 255.115C205.479 258.079 201.431 259.104 201.431 259.104Z" fill="#636992"/>
<path d="M189.624 165.67L193.22 172.212C193.22 172.212 198.396 178.858 192.322 181.412C186.249 183.965 186.363 166.695 186.363 166.695L189.624 165.67Z" fill="#FFD6D6"/>
<path d="M174.552 108.938C174.552 108.938 178.489 110.575 180.851 117.423C183.214 124.27 186.363 135.927 186.363 135.927C186.363 135.927 188.5 149.112 188.16 152.384C187.943 154.187 187.982 156.007 188.274 157.801L191.309 167.001L185.236 168.943L175.901 136.437L174.552 108.938Z" fill="#DCE6F2"/>
<path opacity="0.05" d="M174.552 108.938C174.552 108.938 178.489 110.575 180.851 117.423C183.214 124.27 186.363 135.927 186.363 135.927C186.363 135.927 188.5 149.112 188.16 152.384C187.943 154.187 187.982 156.007 188.274 157.801L191.309 167.001L185.236 168.943L175.901 136.437L174.552 108.938Z" fill="black"/>
<path opacity="0.1" d="M148.461 257.672L149.003 258.978L148.338 260.132C145.75 261.154 139.34 260.337 139.34 260.337C139.34 260.337 138.153 258.967 136.531 256.712C136.839 255.662 137.093 254.914 137.093 254.914L148.461 257.672Z" fill="black"/>
<path opacity="0.1" d="M186.138 250.515C182.858 257.269 171.707 254.763 168.609 253.917C168.099 253.777 167.818 253.684 167.818 253.684C167.818 253.684 167.837 253.133 167.845 252.267C168.209 250.86 168.605 249.699 168.605 249.699C168.605 249.699 181.536 245.71 183.562 248.163C184.17 248.884 184.898 249.515 185.718 250.033C185.842 250.205 185.983 250.366 186.138 250.515Z" fill="black"/>
<path d="M185.572 241.93C182.873 247.037 186.138 249.904 186.138 249.904C182.858 256.655 171.707 254.151 168.609 253.303C168.099 253.166 167.818 253.072 167.818 253.072C167.818 253.072 168.043 246.016 167.256 242.643C166.468 239.269 166.579 225.063 167.03 223.326C167.481 221.588 167.703 218.211 167.703 218.211C167.703 218.211 167.366 214.226 167.928 212.284C168.097 211.76 168.109 211.203 167.961 210.673C167.814 210.143 167.513 209.659 167.09 209.27L167.03 209.216C167.03 209.216 164.557 216.884 163.655 218.208C162.753 219.531 162.42 226.181 162.306 227.408C162.191 228.634 157.581 238.859 157.581 238.859C157.581 238.859 155.785 243.56 155.448 244.887C155.112 246.214 153.759 250.001 153.759 250.001L148.338 259.51C145.75 260.532 139.34 259.715 139.34 259.715C139.34 259.715 138.106 258.277 136.416 255.932C134.727 253.587 133.943 245.304 133.943 245.304C133.943 245.304 140.128 245.2 138.553 239.783C136.978 234.367 139.902 230.173 139.791 228.332C139.68 226.491 141.141 220.463 141.928 219.542C142.715 218.621 142.601 214.737 142.375 212.59C142.15 210.443 142.264 202.879 142.264 202.879C142.264 202.879 142.49 199.506 143.614 197.974C144.737 196.442 144.29 192.043 144.29 192.043C144.29 192.043 146.423 191.022 144.963 181.106C143.503 171.191 147.337 158.311 147.337 158.311L147.468 156.513L147.673 153.6C147.673 153.6 179.838 151.759 182.426 154.006C183.103 154.63 183.658 155.354 184.068 156.146C184.954 157.876 185.579 159.706 185.928 161.588L187.277 192.561L188.627 215.356L188.176 232.529C188.176 232.529 188.274 236.816 185.572 241.93Z" fill="#565988"/>
<path opacity="0.1" d="M176.036 180.8L172.661 247.242L168.609 253.299C168.099 253.162 167.818 253.069 167.818 253.069C167.818 253.069 168.043 246.012 167.256 242.639C166.468 239.265 166.579 225.059 167.03 223.322C167.481 221.585 167.703 218.208 167.703 218.208C167.703 218.208 167.366 214.223 167.928 212.281C168.097 211.756 168.109 211.2 167.961 210.67C167.814 210.14 167.513 209.655 167.09 209.267L167.145 208.907L176.036 180.8Z" fill="black"/>
<path opacity="0.1" d="M139.688 252.152C139.688 252.152 148.461 248.983 149.81 249.994C151.159 251.004 139.467 252.547 139.467 252.547L139.688 252.152Z" fill="black"/>
<path opacity="0.1" d="M182.988 243.768C182.652 243.872 174.105 246.645 174.892 249.595C175.68 252.544 182.988 243.768 182.988 243.768Z" fill="black"/>
<path d="M156.279 92.5347C156.279 92.5347 159.144 98.8215 157.629 102.044C156.113 105.266 173.99 110.783 173.99 110.783C173.99 110.783 168.763 98.5158 173.824 91.614C178.885 84.7123 156.279 92.5347 156.279 92.5347Z" fill="#FFD6D6"/>
<path d="M260.954 274.536C257.495 275.227 252.941 278.37 252.941 278.37C252.941 278.37 244.169 280.057 238.178 279.291C232.187 278.525 233.204 272.619 237.842 271.163C241.059 270.156 244.355 267.671 246.076 266.246C246.836 265.61 247.287 265.167 247.287 265.167L264.076 262.1C264.076 262.1 264.349 262.952 264.729 264.128C265.401 266.203 266.394 269.282 266.774 270.454C267.364 272.314 264.412 273.846 260.954 274.536Z" fill="#505484"/>
<path d="M256.653 262.729C256.653 262.729 249.566 263.419 246.614 261.887C243.662 260.355 239.444 262.808 239.444 262.808C239.444 262.808 227.297 262.578 223.249 261.427C219.201 260.276 223.839 254.594 230.419 255.14C232.817 255.338 234.439 254.86 235.535 254.176C236.68 253.463 237.478 252.376 237.763 251.141L252.007 251.907L253.986 256.496L256.653 262.729Z" fill="#505484"/>
<path opacity="0.1" d="M254.203 258.589C254.203 258.589 237.648 256.129 235.535 254.176C236.68 253.463 237.478 252.376 237.763 251.141L252.007 251.907L253.986 256.496L254.203 258.589Z" fill="black"/>
<path d="M229.659 172.496L229.829 194.956C229.829 194.956 230.419 211.824 230.419 214.126C230.419 216.427 230.502 221.56 230.502 221.56C230.502 221.56 231.768 227.846 232.528 229.918C233.287 231.99 233.877 241.427 233.877 241.427C233.877 241.427 235.65 244.034 234.89 245.023C234.13 246.012 237.842 248.167 237.842 248.167C237.842 248.167 235.468 251.159 235.313 253.151C235.159 255.144 254.203 257.974 254.203 257.974L246.784 188.824L240.877 171.5L229.659 172.496Z" fill="#575988"/>
<path opacity="0.1" d="M229.659 172.496L229.829 194.956C229.829 194.956 230.419 211.824 230.419 214.126C230.419 216.427 230.502 221.56 230.502 221.56C230.502 221.56 231.768 227.846 232.528 229.918C233.287 231.99 233.877 241.427 233.877 241.427C233.877 241.427 235.65 244.034 234.89 245.023C234.13 246.012 237.842 248.167 237.842 248.167C237.842 248.167 235.468 251.159 235.313 253.151C235.159 255.144 254.203 257.974 254.203 257.974L246.784 188.824L240.877 171.5L229.659 172.496Z" fill="black"/>
<path opacity="0.1" d="M264.728 264.146C259.217 276.09 246.108 266.872 246.108 266.872C246.108 266.872 246.108 266.642 246.076 266.246C246.836 265.61 247.287 265.167 247.287 265.167L264.076 262.1C264.076 262.1 264.349 262.97 264.728 264.146Z" fill="black"/>
<path d="M264.918 263.114C259.517 275.702 246.108 266.257 246.108 266.257C246.108 266.257 245.684 259.74 246.531 256.752C247.378 253.763 245.601 244.79 245.601 244.79C245.601 244.79 244.588 236.816 243.662 234.978C242.736 233.141 242.819 229.458 242.819 229.152C242.819 228.846 243.156 226.39 242.396 224.703C241.636 223.016 241.209 218.877 241.209 218.877C241.209 218.877 241.209 213.05 240.449 209.601L237.834 197.733L233.109 173.428L234.585 173.197L261.029 168.982C261.029 168.982 266.007 192 264.317 194.359C263.953 194.877 263.632 196.01 263.367 197.47C262.402 202.692 262.042 212.069 262.042 212.069C262.042 212.069 265.33 216.744 264.068 220.042C262.805 223.34 265.255 228.782 265.255 228.782C265.255 228.782 266.014 250.249 264.578 252.396C263.142 254.543 264.918 263.114 264.918 263.114Z" fill="#575988"/>
<path d="M262.386 106.18C262.386 106.18 238.431 121.512 243.828 113.844C246.737 109.715 246.203 104.457 245.063 100.487C244.487 98.4671 243.692 96.5046 242.689 94.6279C242.689 94.6279 263.043 86.7587 260.344 93.8115C259.712 95.4546 259.443 97.1951 259.553 98.9329C259.715 101.545 260.698 104.061 262.386 106.18Z" fill="#D28690"/>
<path d="M219.256 141.293C219.256 141.293 209.135 138.635 207.449 141.242C205.764 143.85 207.956 149.572 211.01 150.493C214.065 151.413 221.077 147.374 221.077 147.374L219.256 141.293Z" fill="#D28690"/>
<path d="M230.842 136.772L226.624 140.3C226.624 140.3 219.284 140.911 217.175 140.451C217.175 140.451 219.118 152.258 216.332 153.715L233.371 150.572L230.842 136.772Z" fill="#585B8A"/>
<path opacity="0.1" d="M230.842 136.772L226.624 140.3C226.624 140.3 219.284 140.911 217.175 140.451C217.175 140.451 219.118 152.258 216.332 153.715L233.371 150.572L230.842 136.772Z" fill="black"/>
<path opacity="0.1" d="M176.689 86.0934C176.689 89.1457 175.355 92.073 172.98 94.2314C170.606 96.3897 167.385 97.6022 164.027 97.6022C157.53 94.7646 151.365 92.4556 151.365 86.0934C151.298 84.5449 151.575 83.0001 152.18 81.5514C152.786 80.1028 153.707 78.7802 154.888 77.663C156.07 76.5458 157.488 75.6569 159.056 75.0498C160.625 74.4427 162.312 74.1297 164.017 74.1297C165.722 74.1297 167.409 74.4427 168.978 75.0498C170.546 75.6569 171.964 76.5458 173.145 77.663C174.327 78.7802 175.248 80.1028 175.854 81.5514C176.459 83.0001 176.736 84.5449 176.669 86.0934H176.689Z" fill="black"/>
<path d="M176.689 85.7841C176.691 88.4907 175.641 91.111 173.725 93.1829C171.809 95.2548 169.149 96.6451 166.216 97.1088C163.282 97.5725 160.262 97.0797 157.689 95.7173C155.116 94.3549 153.155 92.2104 152.152 89.6621C151.148 87.1137 151.167 84.3252 152.205 81.7882C153.242 79.2513 155.232 77.1288 157.824 75.7952C160.415 74.4616 163.441 74.0026 166.368 74.4989C169.296 74.9953 171.936 76.4152 173.824 78.5083C175.673 80.561 176.685 83.1312 176.689 85.7841Z" fill="#FFD6D6"/>
<path opacity="0.1" d="M184.068 156.157C182.816 156.864 181.505 157.482 180.147 158.006C180.147 158.006 173.737 157.16 172.811 158.157C171.885 159.153 163.71 159.538 163.71 159.538C163.71 159.538 151.227 159.002 149.371 157.545C148.797 157.123 148.158 156.779 147.475 156.524L147.681 153.611C147.681 153.611 179.846 151.769 182.434 154.017C183.108 154.642 183.66 155.365 184.068 156.157Z" fill="black"/>
<path d="M185.631 154.096C185.378 155.398 180.147 157.391 180.147 157.391C180.147 157.391 173.737 156.549 172.811 157.545C171.885 158.542 163.71 158.926 163.71 158.926C163.71 158.926 151.226 158.387 149.371 156.93C147.515 155.474 143.38 154.772 143.38 154.772C143.38 154.772 141.271 141.127 142.118 138.139C142.965 135.15 140.852 126.943 140.345 124.029C139.839 121.116 141.778 113.067 144.14 111.765C146.502 110.463 149.877 106.09 151.899 104.788C153.605 103.691 155.488 102.27 156.038 101.842L156.2 101.72C156.2 101.72 156.541 99.3429 157.89 98.1237C159.239 96.9045 171.636 105.867 171.636 105.867C171.636 105.867 171.723 106.558 172.566 105.256C172.756 104.964 174.39 107.108 174.675 108.014C174.675 108.014 181.421 118.75 181.845 120.962C182.268 123.173 184.037 130.392 184.373 132.154C184.46 132.607 184.602 134.197 184.769 136.326C184.8 136.743 184.828 137.185 184.864 137.646C185.113 141.178 185.382 145.688 185.544 149.097C185.544 149.486 185.58 149.86 185.592 150.219C185.677 151.51 185.69 152.804 185.631 154.096Z" fill="#DCE6F2"/>
<path opacity="0.1" d="M142.798 126.417C142.798 126.417 147.436 131.553 148.955 131.553C150.475 131.553 142.798 126.417 142.798 126.417Z" fill="black"/>
<path opacity="0.1" d="M152.568 137.459C152.568 137.459 144.975 144.972 145.988 146.353C147.001 147.734 152.568 137.459 152.568 137.459Z" fill="black"/>
<path opacity="0.1" d="M147.001 152.41C147.001 152.41 155.706 143.746 156.101 140.757L147.001 152.41Z" fill="black"/>
<path opacity="0.1" d="M157.965 153.021C157.965 153.021 168.004 148.191 168.846 144.357C169.689 140.523 157.965 153.021 157.965 153.021Z" fill="black"/>
<path opacity="0.1" d="M170.702 106.41L169.309 109.474L171.628 110.471L173.907 116.261C173.907 116.261 180.191 127.683 179.937 133.625C179.684 139.566 181.077 148.496 181.077 148.496L184.701 147.885L182.992 130.41C182.726 127.704 181.98 125.055 180.784 122.566C177.888 116.538 172.498 105.41 172.158 105.41C171.695 105.41 172.02 105.565 172.02 105.565L170.702 106.41Z" fill="black"/>
<path d="M171.038 106.101L169.646 109.169L171.968 110.165L174.243 115.955C174.243 115.955 180.527 127.378 180.274 133.319C180.02 139.261 181.413 148.191 181.413 148.191L185.042 147.579L183.328 130.104C183.065 127.398 182.321 124.749 181.124 122.26C178.228 116.229 172.839 105.105 172.502 105.105C172.036 105.105 172.36 105.259 172.36 105.259L171.038 106.101Z" fill="#575989"/>
<path d="M212.114 151.158C210.35 151.036 206.116 149.09 204.434 148.281L203.722 147.921L203.809 141.983C204.225 141.761 204.656 141.563 205.099 141.39C207.346 140.498 211.956 139.286 214.267 143.188C217.385 148.421 214.35 151.295 212.114 151.158Z" fill="#FFD6D6"/>
<path opacity="0.1" d="M173.824 78.5083C173.643 78.6115 173.443 78.6857 173.234 78.7277C171.766 79.019 170.097 77.8717 168.838 78.609C168.071 79.0622 167.893 80.0009 167.79 80.8281C167.61 82.2667 167.431 83.6957 167.252 85.1151C167.214 85.6204 167.097 86.1183 166.904 86.5933C166.282 87.8844 164.577 88.4922 163.022 88.4707C162.413 88.5101 161.811 88.3291 161.348 87.9671C161.075 87.7154 160.929 87.3629 160.628 87.1328C158.65 85.6258 158.048 89.3194 158.57 90.3696C159.409 92.0852 162.389 93.7396 161.138 95.919C160.928 96.2733 160.609 96.5644 160.22 96.757C158.336 96.2207 156.616 95.2912 155.197 94.0429C153.779 92.7946 152.701 91.262 152.05 89.5676C151.399 87.8732 151.194 86.064 151.449 84.2844C151.705 82.5048 152.415 80.8042 153.522 79.3185C154.63 77.8327 156.104 76.603 157.828 75.7275C159.552 74.8521 161.477 74.3551 163.449 74.2764C165.422 74.1977 167.387 74.5394 169.189 75.2742C170.99 76.009 172.577 77.1165 173.824 78.5083Z" fill="black"/>
<path d="M160.292 87.1184C160.588 87.3449 160.739 87.6974 161.012 87.9491C161.475 88.3107 162.076 88.4917 162.686 88.4527C164.241 88.4742 165.946 87.87 166.563 86.5717C166.76 86.0987 166.879 85.6017 166.915 85.0971L167.454 80.8101C167.556 79.9829 167.731 79.0442 168.502 78.591C169.76 77.8717 171.43 79.001 172.898 78.7097C173.427 78.5875 173.885 78.2867 174.179 77.8685C174.473 77.4503 174.581 76.9461 174.481 76.4583C174.311 75.7714 173.733 75.2283 173.436 74.5737C173.256 74.0708 173.112 73.5578 173.005 73.038C172.186 70.2471 168.581 68.679 165.447 69.1466C163.706 69.4091 162.088 70.1644 160.343 70.3946C159.093 70.56 157.815 70.4521 156.552 70.5744C155.38 70.6844 154.239 70.9904 153.189 71.4771C152.913 71.588 152.67 71.7554 152.477 71.9662C152.298 72.2509 152.177 72.5629 152.121 72.8869C151.697 74.3256 150.336 75.3865 149.351 76.5986C148.224 77.9931 147.572 79.6574 147.475 81.3855C147.437 81.8269 147.482 82.271 147.61 82.6982C147.693 82.95 147.824 83.1946 147.887 83.4535C148.081 84.2411 147.638 85.0288 147.42 85.8128C147.15 86.8133 147.247 87.8668 147.697 88.8123C149.216 91.988 154.222 93.049 155.262 96.383C156.187 96.7857 157.185 97.0296 158.206 97.1023C159.227 97.1203 160.327 96.721 160.802 95.8974C162.048 93.7395 159.073 92.0636 158.234 90.3516C157.708 89.2978 158.297 85.6078 160.292 87.1184Z" fill="#353045"/>
<path opacity="0.1" d="M260.364 93.8115C259.732 95.4546 259.463 97.1951 259.573 98.9329C258.963 99.4041 258.299 97.9942 257.594 98.3575C255.663 99.3717 253.432 101.785 251.042 101.785C248.969 101.786 246.926 101.341 245.079 100.487C244.503 98.4671 243.707 96.5046 242.705 94.6279C242.705 94.6279 263.063 86.7587 260.364 93.8115Z" fill="black"/>
<path d="M264.186 89.2115C264.186 91.5774 263.415 93.8901 261.968 95.8572C260.522 97.8244 258.467 99.3576 256.062 100.263C253.657 101.168 251.011 101.405 248.458 100.944C245.906 100.482 243.561 99.3428 241.72 97.6699C239.88 95.997 238.626 93.8656 238.118 91.5452C237.611 89.2248 237.871 86.8196 238.867 84.6339C239.863 82.4481 241.55 80.5799 243.714 79.2655C245.879 77.9511 248.423 77.2495 251.026 77.2495C252.754 77.249 254.466 77.5581 256.063 78.1591C257.66 78.7601 259.111 79.6412 260.333 80.7521C261.555 81.8629 262.524 83.1818 263.186 84.6333C263.847 86.0848 264.187 87.6405 264.186 89.2115Z" fill="#D28690"/>
<path d="M263.625 108.838C263.625 108.838 261.148 111.291 260.811 111.492C260.475 111.693 253.293 139.185 253.167 139.505C253.04 139.825 244.616 164.648 244.616 164.648L231.119 170.68L232.247 140.318L242.139 115.279C242.139 115.279 245.403 111.906 246.412 110.679C247.421 109.453 260.02 102.091 260.02 102.091L262.172 106.122L263.625 108.838Z" fill="#F0F3F7"/>
<path opacity="0.1" d="M261.84 106.737L246.321 116.836L246.072 111.291C247.085 110.064 259.68 102.706 259.68 102.706L261.84 106.737Z" fill="black"/>
<path d="M262.176 106.122L246.658 116.221L246.416 110.679C247.429 109.449 260.024 102.091 260.024 102.091L262.176 106.122Z" fill="#F0F3F7"/>
<path d="M245.898 108.212L246.416 110.679L242.946 113.884L245.716 108.248C245.716 108.248 239.781 112.006 238 113.002C236.219 113.999 234.439 117.372 234.372 118.293C234.304 119.214 231.503 133.089 231.503 133.089C231.503 133.089 229.394 138.225 229.987 139.681C230.581 141.138 226.782 187.062 226.782 187.062C227.29 186.17 228.008 185.391 228.885 184.78C229.762 184.169 230.776 183.741 231.855 183.527L230.502 156.387C230.502 156.387 232.148 138.333 232.231 138.103C232.314 137.872 236.069 127.407 236.069 127.407L245.898 108.212Z" fill="#585B8A"/>
<path opacity="0.1" d="M246.757 110.985L246.487 116.02C246.487 116.02 242.732 126.792 241.47 128.554C240.208 130.316 236.366 140.822 236.366 140.822L234.201 159.07L230.49 160.606L228.662 157.545L231.701 139.922C231.701 139.922 237.434 125.051 238.281 123.515L242.511 115.416L246.757 110.985Z" fill="black"/>
<path d="M246.416 110.679L246.151 115.714C246.151 115.714 242.396 126.486 241.13 128.248C239.864 130.01 236.029 140.516 236.029 140.516L233.877 158.761L230.165 160.293L228.31 157.229L231.349 139.606C231.349 139.606 237.082 124.731 237.925 123.199L242.186 115.11L246.416 110.679Z" fill="#663D5C"/>
<path d="M202.669 149.111L209.922 153.675C209.922 153.675 215.039 151.068 212.059 149.381C209.08 147.694 206.436 147.439 205.479 147.439C204.521 147.439 202.669 149.111 202.669 149.111Z" fill="#D28690"/>
<path d="M208.086 140.674C207.924 140.766 207.791 140.893 207.699 141.045C207.607 141.197 207.559 141.367 207.56 141.541C207.56 142.94 207.734 146.644 209.024 144.972C210.607 142.925 210.318 141.088 212.736 142.415C214.238 143.265 215.553 144.363 216.613 145.652L215.941 141.257C215.941 141.257 210.971 139.027 208.086 140.674Z" fill="#D28690"/>
<path opacity="0.1" d="M264.325 194.345C263.961 194.863 263.64 195.996 263.375 197.456C248.585 201.487 237.763 192.964 237.763 192.964C236.453 188.931 235.383 184.837 234.558 180.7C234.292 179.283 234.352 176.535 234.597 173.183L261.041 168.968C261.041 168.968 266.014 191.968 264.325 194.345Z" fill="black"/>
<path d="M279.507 125.727C278.835 127.723 279.088 131.783 279.088 131.783L273.014 157.851C273.014 157.851 270.062 177.938 269.556 180.621C269.049 183.304 268.207 195.111 268.207 195.111C250.998 202.779 237.739 192.352 237.739 192.352C236.43 188.318 235.36 184.223 234.534 180.085C233.687 175.531 236.18 157.29 237.359 149.187C237.711 146.788 237.949 145.278 237.949 145.278L242.376 130.327C242.376 130.327 247.817 117.714 249.843 114.035C251.869 110.355 260.004 102.091 260.004 102.091C261.013 101.508 262.627 103.565 263.826 105.439C264.732 106.856 265.409 108.172 265.409 108.172C265.409 108.172 275.531 112.157 277.046 114.286C278.562 116.416 278.312 120.803 278.482 121.034C278.653 121.264 280.184 123.734 279.507 125.727Z" fill="#585B8A"/>
<path opacity="0.1" d="M255.64 116.452C255.64 116.452 256.399 120.516 254.453 121.742C252.573 122.929 238.582 147.935 237.711 149.496C238.063 147.094 238.301 145.583 238.301 145.583L242.728 130.636C242.728 130.636 248.173 118.023 250.195 114.34C252.217 110.658 260.36 102.396 260.36 102.396C261.369 101.814 262.98 103.871 264.178 105.745C262.37 109.158 258.599 115.61 255.64 116.452Z" fill="black"/>
<path d="M255.303 116.146C255.303 116.146 256.059 120.21 254.116 121.436C252.173 122.663 238.249 147.626 237.367 149.187C237.719 146.788 237.957 145.278 237.957 145.278L242.384 130.327C242.384 130.327 247.825 117.714 249.851 114.035C251.877 110.355 260.012 102.091 260.012 102.091C261.021 101.508 262.635 103.565 263.834 105.439C262.034 108.849 258.259 115.304 255.303 116.146Z" fill="#585B8A"/>
<path d="M275.376 152.87L270.616 175.38V175.384L270.161 177.538V177.542L269.136 182.386L264.764 181.545L262.726 181.153L234.526 175.722L232.453 175.323L227.72 174.413L228.646 168.824L229.03 166.501L232.445 145.893L275.376 152.87Z" fill="#6C63FF"/>
<path d="M249.059 171.27C249.059 171.27 237.842 174.949 240.287 179.319C242.732 183.688 258.421 175.945 258.421 175.945L249.059 171.27Z" fill="#D28690"/>
<path opacity="0.1" d="M257.072 202.624C257.072 202.93 257.495 206.843 259.181 208.22C260.867 209.598 257.072 202.624 257.072 202.624Z" fill="black"/>
<path opacity="0.1" d="M245.771 216.499C245.771 216.499 247.793 221.56 255.806 223.631C263.818 225.703 245.771 216.499 245.771 216.499Z" fill="black"/>
<path opacity="0.1" d="M264.186 89.2115C264.187 91.3144 263.578 93.3802 262.419 95.2006C261.261 97.021 259.596 98.5317 257.59 99.5803C256.834 99.1959 256.164 98.6874 255.612 98.0805C255.038 97.4476 254.591 96.5844 254.935 95.8291C255.212 95.2213 255.944 94.8365 256.122 94.2071C256.206 93.8222 256.184 93.4244 256.059 93.049C255.913 92.4556 255.774 91.8622 255.632 91.2723C255.509 90.7688 255.291 90.1754 254.741 90.0531C254.191 89.9308 253.732 90.348 253.301 90.6573C252.245 91.4162 250.219 91.9305 248.949 91.3083C247.678 90.6861 248.035 88.6037 247.829 87.478C247.826 87.3802 247.8 87.2841 247.752 87.1965C247.704 87.1089 247.636 87.0319 247.552 86.9709C247.367 86.9152 247.17 86.9028 246.978 86.9349C246.294 86.9349 245.744 86.3775 245.546 85.7805C245.406 85.171 245.329 84.5508 245.316 83.9283C245.241 83.3061 244.992 82.6479 244.406 82.3278C243.938 82.1299 243.419 82.0527 242.906 82.1048L240.426 82.13C242.071 80.1075 244.377 78.6082 247.014 77.8451C249.651 77.082 252.486 77.094 255.115 77.8795C257.745 78.6649 260.035 80.1838 261.659 82.2202C263.284 84.2566 264.162 86.7067 264.167 89.2223L264.186 89.2115Z" fill="black"/>
<path d="M253.653 90.6573C254.085 90.348 254.559 89.938 255.094 90.0567C255.628 90.1754 255.857 90.776 255.98 91.2723L256.407 93.0454C256.534 93.4218 256.557 93.8207 256.474 94.2071C256.273 94.8401 255.545 95.2213 255.264 95.8291C254.919 96.5844 255.371 97.4475 255.94 98.0769C256.98 99.2154 258.417 99.996 260.012 100.289C260.428 100.38 260.862 100.388 261.282 100.314C262.224 100.116 262.865 99.3285 263.371 98.5912C265.987 94.8868 268.238 90.8264 268.697 86.4458C268.823 85.5523 268.778 84.6457 268.563 83.7664C268.348 83.0829 268.045 82.425 267.66 81.8063C266.987 80.5424 266.131 79.3656 265.116 78.3069C263.316 76.5446 260.831 75.462 258.279 74.8219C255.408 74.0979 252.411 73.8842 249.451 74.1925C248.66 74.2752 247.9 74.3939 247.121 74.4406C246.142 74.482 245.161 74.4676 244.185 74.3975L238.36 74.081C238.028 74.696 238.36 75.4261 238.756 76.0015C239.151 76.577 239.642 77.174 239.61 77.8573C239.579 78.5407 239.045 79.0801 238.633 79.6556C238.222 80.231 237.909 80.9755 238.32 81.5366C238.732 82.0976 239.571 82.1336 240.299 82.1264L243.235 82.0976C243.746 82.0498 244.262 82.1307 244.727 82.3314C245.312 82.6515 245.562 83.3132 245.637 83.9318C245.653 84.5542 245.73 85.174 245.866 85.784C246.068 86.3811 246.614 86.9457 247.299 86.9385C247.49 86.9038 247.689 86.9175 247.872 86.9781C247.956 87.0383 248.025 87.1147 248.073 87.2017C248.121 87.2888 248.147 87.3843 248.149 87.4816C248.355 88.6073 247.975 90.6861 249.269 91.3119C250.563 91.9377 252.597 91.4162 253.653 90.6573Z" fill="#663D5C"/>
<path opacity="0.1" d="M270.379 114.283C268.924 114.142 267.46 114.456 266.227 115.171C264.994 115.887 264.065 116.962 263.593 118.221C262.01 122.317 259.371 129.708 260.032 132.629C260.962 136.768 262.058 143.67 262.058 143.67C262.058 143.67 266.865 146.188 264.432 148.727C261.998 151.266 261.31 154.862 261.31 154.862C261.31 154.862 258.188 156.089 257.515 158.696C256.843 161.304 252.284 164.904 252.284 164.904L245.455 171.115C245.455 171.115 256.755 181.545 259.035 182.077L266.034 174.64L274.3 164.674L281.47 157.84C281.47 157.84 283.156 154.244 282.313 147.41C281.47 140.577 278.178 134.071 278.178 134.071L278.431 131.769C278.431 131.769 279.207 115.279 270.379 114.283Z" fill="black"/>
<path d="M271.052 114.283C269.598 114.144 268.136 114.458 266.904 115.174C265.673 115.889 264.745 116.964 264.273 118.221C262.691 122.317 260.051 129.708 260.712 132.629C261.638 136.768 262.734 143.67 262.734 143.67C262.734 143.67 267.542 146.188 265.108 148.727C262.675 151.266 261.99 154.862 261.99 154.862C261.99 154.862 258.868 156.089 258.192 158.696C257.515 161.304 252.965 164.904 252.965 164.904L246.131 171.115C246.131 171.115 257.432 181.545 259.711 182.077L266.711 174.64L274.957 164.674L282.127 157.84C282.127 157.84 283.816 154.244 282.97 147.41C282.123 140.577 278.839 134.071 278.839 134.071L279.092 131.769C279.092 131.769 279.879 115.279 271.052 114.283Z" fill="#585B8A"/>
<path opacity="0.1" d="M263.989 137.613C263.989 137.613 271.158 145.583 274.197 143.821C277.236 142.059 263.989 137.613 263.989 137.613Z" fill="black"/>
<path opacity="0.1" d="M266.687 131.478C267.447 131.708 273.691 139.606 276.896 138.671C280.101 137.736 266.687 131.478 266.687 131.478Z" fill="black"/>
<path opacity="0.1" d="M268.46 145.044C268.46 145.044 268.883 149.568 274.027 148.953C279.171 148.338 268.46 145.044 268.46 145.044Z" fill="black"/>
<path opacity="0.1" d="M245.728 108.554L242.946 114.189L246.42 110.985L245.728 108.554Z" fill="black"/>
<path d="M245.728 108.248L242.946 113.884L246.42 110.679L245.728 108.248Z" fill="#F0F3F7"/>
<path opacity="0.3" d="M234.526 175.722L232.453 175.323L228.646 168.824L229.03 166.501L234.526 175.722Z" fill="black"/>
<path opacity="0.3" d="M270.616 175.384L270.161 177.538V177.542L264.764 181.545L262.726 181.153L270.616 175.384Z" fill="black"/>
<path opacity="0.1" d="M185.58 150.234C184.535 150.392 183.522 150.536 182.596 150.644C177.452 151.259 165.218 145.738 165.218 145.738C165.218 145.738 150.289 134.391 145.988 123.659C141.687 112.927 151.132 111.316 151.132 111.316C154.693 109.474 162.436 114.61 163.532 115.455C164.628 116.301 165.558 118.444 165.471 119.825C165.384 121.206 168.004 122.968 168.004 122.968C168.004 122.968 172.475 130.021 173.571 130.787C174.667 131.553 174.92 132.244 175.256 133.549C175.593 134.855 178.545 135.927 179.811 135.848C181.077 135.768 182.581 136.232 182.581 136.844C182.581 137.337 183.819 137.581 184.836 137.66C185.137 141.591 185.433 146.741 185.58 150.234Z" fill="black"/>
<path opacity="0.1" d="M185.532 149.111C184.741 149.227 183.981 149.331 183.269 149.417C178.125 150.032 165.895 144.512 165.895 144.512C165.895 144.512 150.965 133.165 146.664 122.433C142.363 111.701 151.808 110.089 151.808 110.089C155.369 108.248 163.109 113.384 164.205 114.229C165.301 115.074 166.231 117.218 166.148 118.599C166.065 119.98 168.676 121.742 168.676 121.742C168.676 121.742 173.147 128.795 174.243 129.561C175.339 130.327 175.593 131.017 175.933 132.323C176.273 133.628 179.221 134.697 180.487 134.621C181.754 134.546 183.257 135.006 183.257 135.617C183.257 135.977 183.961 136.218 184.745 136.337C184.777 136.754 184.804 137.196 184.84 137.657C185.101 141.192 185.37 145.702 185.532 149.111Z" fill="black"/>
<path opacity="0.1" d="M205.099 141.39L204.778 148.281H204.434L203.722 147.921L203.809 141.983C204.225 141.761 204.656 141.563 205.099 141.39Z" fill="black"/>
<path d="M151.132 110.701C151.132 110.701 141.687 112.312 145.988 123.044C150.289 133.776 165.218 145.127 165.218 145.127C165.218 145.127 177.449 150.644 182.596 150.032C187.744 149.421 195.583 147.81 196.596 148.04C197.609 148.27 204.442 148.27 204.442 148.27L204.778 141.077L196.865 140.692L192.817 139.926C192.817 139.926 191.381 138.847 190.538 139.005C189.695 139.164 187.926 138.085 187.926 138.085C187.926 138.085 186.573 137.088 185.552 137.088C184.531 137.088 182.6 136.858 182.6 136.247C182.6 135.635 181.081 135.168 179.831 135.251C178.58 135.333 175.593 134.254 175.245 132.934C174.896 131.614 174.655 130.942 173.559 130.176C172.463 129.41 167.992 122.353 167.992 122.353C167.992 122.353 165.376 120.591 165.459 119.214C165.542 117.836 164.616 115.686 163.52 114.84C162.424 113.995 154.669 108.863 151.132 110.701Z" fill="#DCE6F2"/>
<path opacity="0.1" d="M175.427 135.387C175.427 135.387 171.798 138.685 172.724 139.297L175.427 135.387Z" fill="black"/>
<path opacity="0.1" d="M179.304 137.995C179.304 137.995 174.58 141.293 175.846 141.523C177.112 141.753 179.304 137.995 179.304 137.995Z" fill="black"/>
<path opacity="0.1" d="M171.288 142.886C171.964 143.195 181.999 148.64 185.797 148.561L171.288 142.886Z" fill="black"/>
<path opacity="0.1" d="M171.968 106.486C171.968 106.486 170.196 111.776 169.519 111.776C168.989 111.776 160.086 105.223 156.37 102.468L156.533 102.346C156.533 102.346 156.869 99.9687 158.218 98.7495C159.567 97.5303 171.968 106.486 171.968 106.486Z" fill="black"/>
<path d="M171.628 105.871C171.628 105.871 169.859 111.161 169.183 111.161C168.649 111.161 159.746 104.608 156.03 101.853L156.192 101.731C156.192 101.731 156.533 99.3537 157.882 98.1345C159.231 96.9152 171.628 105.871 171.628 105.871Z" fill="#DCE6F2"/>
<g opacity="0.15">
<path opacity="0.15" d="M147.741 88.7728C148.928 91.2364 152.196 92.4304 154.091 94.3941C152.964 91.9809 149.668 90.7976 147.741 88.7728Z" fill="black"/>
<path opacity="0.15" d="M159.837 94.4481C159.366 95.2717 158.254 95.6709 157.241 95.6529C156.34 95.5942 155.459 95.3896 154.637 95.0487C154.935 95.448 155.162 95.8873 155.31 96.3507C156.234 96.7542 157.232 96.9981 158.254 97.07C159.279 97.0915 160.379 96.6923 160.85 95.8651C161.605 94.5524 160.818 93.4303 159.896 92.3693C160.068 92.6954 160.152 93.0538 160.142 93.4152C160.131 93.7766 160.027 94.1306 159.837 94.4481Z" fill="black"/>
<path opacity="0.15" d="M174.52 76.4224C174.35 75.7318 173.773 75.1888 173.476 74.5378C173.294 74.0341 173.15 73.5198 173.045 72.9985C172.82 72.2613 172.403 71.5841 171.83 71.024C171.909 71.201 171.977 71.3824 172.032 71.5671C172.142 72.0907 172.291 72.6073 172.475 73.1136C172.772 73.7645 173.349 74.3076 173.519 74.9981C173.62 75.486 173.512 75.9902 173.218 76.4084C172.924 76.8265 172.466 77.1273 171.937 77.2496C170.473 77.5409 168.803 76.39 167.545 77.1309C166.773 77.5804 166.595 78.5191 166.492 79.3463C166.315 80.7849 166.136 82.2151 165.954 83.637C165.918 84.1414 165.801 84.6382 165.606 85.1115C164.984 86.4063 163.279 87.0141 161.724 86.9925C161.116 87.0294 160.517 86.8487 160.054 86.489C159.829 86.1994 159.588 85.9209 159.33 85.6546C157.352 84.1441 156.75 87.8377 157.273 88.8915C157.534 89.3655 157.858 89.8088 158.238 90.2114C157.803 89.0245 158.412 85.6079 160.343 87.0716C160.6 87.3371 160.841 87.6157 161.063 87.906C161.528 88.2652 162.128 88.4458 162.737 88.4095C164.292 88.4311 165.997 87.8233 166.619 86.5286C166.814 86.0541 166.932 85.556 166.967 85.0504C167.146 83.6118 167.326 82.1828 167.505 80.7633C167.608 79.9361 167.786 78.9975 168.554 78.5479C169.816 77.807 171.486 78.9579 172.95 78.663C173.475 78.5393 173.929 78.2394 174.22 77.8236C174.512 77.4079 174.619 76.9072 174.52 76.4224Z" fill="black"/>
</g>
<path opacity="0.1" d="M262.125 99.3969C261.704 99.4682 261.271 99.4584 260.855 99.3681C259.261 99.0755 257.826 98.2963 256.787 97.1598C256.213 96.5269 255.762 95.6637 256.111 94.9084C256.387 94.3006 257.116 93.9194 257.298 93.2864C257.38 92.9 257.357 92.5011 257.23 92.1247L256.803 90.3516C256.68 89.8481 256.467 89.2547 255.917 89.136C255.367 89.0173 254.908 89.4273 254.476 89.7366C253.42 90.4955 251.39 91.0134 250.124 90.3876C248.858 89.7618 249.21 87.683 249.004 86.5573C249.001 86.4602 248.974 86.3649 248.926 86.278C248.878 86.191 248.81 86.1146 248.727 86.0538C248.542 85.9951 248.342 85.9815 248.149 86.0142C247.465 86.0142 246.919 85.4568 246.717 84.8598C246.58 84.2499 246.504 83.6299 246.491 83.0076C246.412 82.389 246.167 81.7272 245.577 81.4071C245.112 81.2082 244.597 81.1274 244.086 81.1733L241.15 81.2021C240.426 81.2021 239.567 81.159 239.171 80.6123C238.776 80.0656 239.068 79.2888 239.484 78.7313C239.899 78.1738 240.426 77.62 240.461 76.933C240.497 76.2461 240.006 75.6527 239.606 75.0773C239.377 74.7626 239.209 74.4147 239.108 74.0486L238.265 74.0019C237.937 74.6133 238.265 75.3434 238.661 75.9224C239.056 76.5015 239.551 77.0949 239.515 77.7746C239.48 78.4544 238.954 79.001 238.538 79.5729C238.123 80.1447 237.818 80.8928 238.23 81.4539C238.641 82.0149 239.476 82.0545 240.208 82.0473L243.144 82.0149C243.656 81.9699 244.171 82.052 244.636 82.2523C245.225 82.5724 245.474 83.2341 245.55 83.8527C245.562 84.4753 245.639 85.0955 245.779 85.705C245.977 86.2984 246.527 86.8666 247.212 86.8558C247.403 86.825 247.601 86.8386 247.785 86.8954C247.869 86.9567 247.937 87.0338 247.985 87.1213C248.033 87.2089 248.059 87.3048 248.062 87.4025C248.268 88.5246 247.888 90.607 249.182 91.2328C250.476 91.8586 252.494 91.3407 253.535 90.5818C253.966 90.2725 254.445 89.8625 254.979 89.9776C255.513 90.0927 255.743 90.6969 255.861 91.1932L256.293 92.9699C256.418 93.3466 256.44 93.7455 256.356 94.1316C256.158 94.761 255.426 95.1458 255.149 95.75C254.805 96.5053 255.252 97.372 255.826 98.0014C256.872 99.1428 258.318 99.9225 259.921 100.21C260.337 100.3 260.77 100.31 261.191 100.238C261.871 100.05 262.455 99.647 262.837 99.102C262.621 99.2382 262.38 99.3381 262.125 99.3969Z" fill="black"/>
<path opacity="0.1" d="M80.5969 258.233C85.8788 258.233 90.1606 257.636 90.1606 256.899C90.1606 256.162 85.8788 255.565 80.5969 255.565C75.315 255.565 71.0332 256.162 71.0332 256.899C71.0332 257.636 75.315 258.233 80.5969 258.233Z" fill="#6C63FF"/>
<path opacity="0.1" d="M414.523 223.541C419.805 223.541 424.086 222.944 424.086 222.207C424.086 221.47 419.805 220.873 414.523 220.873C409.241 220.873 404.959 221.47 404.959 222.207C404.959 222.944 409.241 223.541 414.523 223.541Z" fill="#6C63FF"/>
<path opacity="0.1" d="M317.022 279.838C332.319 279.838 344.72 278.108 344.72 275.975C344.72 273.842 332.319 272.112 317.022 272.112C301.725 272.112 289.324 273.842 289.324 275.975C289.324 278.108 301.725 279.838 317.022 279.838Z" fill="#6C63FF"/>
<path opacity="0.1" d="M395.759 262.625C407.691 262.625 417.364 261.275 417.364 259.611C417.364 257.946 407.691 256.597 395.759 256.597C383.828 256.597 374.155 257.946 374.155 259.611C374.155 261.275 383.828 262.625 395.759 262.625Z" fill="#6C63FF"/>
<path opacity="0.1" d="M392.202 294.752C412.436 294.752 428.838 292.464 428.838 289.642C428.838 286.819 412.436 284.531 392.202 284.531C371.968 284.531 355.566 286.819 355.566 289.642C355.566 292.464 371.968 294.752 392.202 294.752Z" fill="#6C63FF"/>
<path opacity="0.1" d="M39.6634 298C54.9605 298 67.3613 296.271 67.3613 294.137C67.3613 292.004 54.9605 290.275 39.6634 290.275C24.3663 290.275 11.9655 292.004 11.9655 294.137C11.9655 296.271 24.3663 298 39.6634 298Z" fill="#6C63FF"/>
<path d="M81.0321 214.403C81.0321 214.403 82.1163 215.69 80.5336 217.639C78.9509 219.589 77.6451 221.236 78.1595 222.437C78.1595 222.437 80.5336 218.841 82.512 218.776C84.4904 218.711 83.1728 216.575 81.0321 214.403Z" fill="#6C63FF"/>
<path opacity="0.1" d="M81.0322 214.403C81.1288 214.525 81.2036 214.661 81.2537 214.805C83.153 216.834 84.162 218.722 82.3379 218.762C80.6404 218.805 78.6027 221.567 78.116 222.265C78.1308 222.318 78.1493 222.371 78.1714 222.423C78.1714 222.423 80.5455 218.826 82.5239 218.762C84.5023 218.697 83.1728 216.575 81.0322 214.403Z" fill="black"/>
<path d="M83.0501 216.043C83.0501 216.496 82.9908 216.863 82.9235 216.863C82.8562 216.863 82.7969 216.503 82.7969 216.043C82.7969 215.582 82.8681 215.805 82.9354 215.805C83.0026 215.805 83.0501 215.589 83.0501 216.043Z" fill="#FFD037"/>
<path d="M83.7386 216.586C83.3033 216.801 82.9195 216.945 82.8879 216.877C82.8562 216.809 83.1807 216.604 83.6199 216.384C84.0591 216.165 83.885 216.327 83.9167 216.384C83.9483 216.442 84.1778 216.366 83.7386 216.586Z" fill="#FFD037"/>
<path d="M75.3106 214.403C75.3106 214.403 74.2264 215.69 75.8091 217.639C77.3918 219.589 78.7016 221.236 78.1832 222.437C78.1832 222.437 75.8091 218.841 73.8505 218.776C71.8918 218.711 73.158 216.575 75.3106 214.403Z" fill="#6C63FF"/>
<path opacity="0.1" d="M75.3105 214.403C75.216 214.527 75.1413 214.662 75.0889 214.805C73.1897 216.834 72.1807 218.722 74.0048 218.762C75.7022 218.805 77.74 221.567 78.2307 222.265C78.2145 222.318 78.1946 222.371 78.1713 222.423C78.1713 222.423 75.7972 218.826 73.8386 218.762C71.8799 218.697 73.158 216.575 75.3105 214.403Z" fill="black"/>
<path d="M73.2965 216.043C73.2965 216.496 73.3519 216.863 73.4192 216.863C73.4864 216.863 73.5458 216.503 73.5458 216.043C73.5458 215.582 73.4746 215.805 73.4073 215.805C73.34 215.805 73.2965 215.589 73.2965 216.043Z" fill="#FFD037"/>
<path d="M72.6041 216.586C73.0433 216.801 73.4231 216.945 73.4587 216.877C73.4944 216.809 73.162 216.604 72.7228 216.384C72.2836 216.165 72.4577 216.327 72.426 216.384C72.3943 216.442 72.1649 216.366 72.6041 216.586Z" fill="#FFD037"/>
<path opacity="0.1" d="M78.1713 232.284C84.4279 232.284 89.4998 231.578 89.4998 230.706C89.4998 229.834 84.4279 229.127 78.1713 229.127C71.9148 229.127 66.8429 229.834 66.8429 230.706C66.8429 231.578 71.9148 232.284 78.1713 232.284Z" fill="#6C63FF"/>
<path d="M84.0038 220.696L83.9484 221.099L83.8732 221.668L83.8415 221.905L83.7663 222.473L83.7307 222.711L83.6556 223.279L82.789 229.752C82.7138 230.328 81.6771 230.777 80.4149 230.777H75.9278C74.6775 230.777 73.6408 230.328 73.5537 229.752L72.6872 223.279L72.612 222.711L72.5803 222.473L72.5012 221.905L72.4696 221.668L72.3944 221.099L72.339 220.696C72.2955 220.369 72.8573 220.096 73.5656 220.096H82.7811C83.4854 220.096 84.0473 220.369 84.0038 220.696Z" fill="#65617D"/>
<path d="M83.9483 221.099L83.8731 221.668H72.4695L72.3943 221.099H83.9483Z" fill="#9D9CB5"/>
<path d="M83.8415 221.905L83.7663 222.473H72.5804L72.5012 221.905H83.8415Z" fill="#9D9CB5"/>
<path d="M83.7346 222.711L83.6555 223.279H72.6871L72.6119 222.711H83.7346Z" fill="#9D9CB5"/>
<path d="M406.985 209.421C406.985 209.421 405.632 215.147 411.65 215.823L412.022 215.187C412.022 215.187 407.357 211.198 406.985 209.421Z" fill="#6C63FF"/>
<path d="M413.937 215.14L412.536 215.41L412.398 215.438C412.398 215.438 408.663 212.683 408.71 206.533C409.209 207.44 409.807 208.299 410.495 209.098C411.974 210.878 413.656 213.252 413.937 215.14Z" fill="#6C63FF"/>
<path d="M414.408 215.73C414.298 215.795 414.173 215.837 414.043 215.852C413.913 215.868 413.781 215.857 413.656 215.82C410.063 215.057 411.282 204.415 411.282 204.415C411.48 204.498 411.678 205.854 412.524 207.602C413.969 210.669 415.563 214.96 414.408 215.73Z" fill="#6C63FF"/>
<path d="M422.377 209.421C422.377 209.421 422.61 215.147 416.592 215.823L416.216 215.176C416.216 215.176 422.005 211.198 422.377 209.421Z" fill="#6C63FF"/>
<path d="M420.652 206.544C420.699 212.694 415.848 215.449 415.848 215.449L415.706 215.42L414.309 215.151C414.586 213.262 416.287 210.889 417.747 209.109C418.586 208.14 419.562 207.278 420.652 206.544Z" fill="#6C63FF"/>
<path d="M415.686 215.176C415.473 215.415 415.202 215.606 414.895 215.733C414.799 215.772 414.7 215.802 414.598 215.823C413.715 216.01 413.411 215.431 413.458 214.446C413.541 212.694 414.752 209.655 415.832 207.379C416.353 206.262 417.12 205.254 418.088 204.419C418.088 204.419 418.032 212.701 415.686 215.176Z" fill="#6C63FF"/>
<path d="M414.681 200.682C414.681 200.682 410.669 213.629 414.123 215.564C417.577 217.499 415.567 201.826 414.681 200.682Z" fill="#6C63FF"/>
<path opacity="0.1" d="M406.985 209.421C406.985 209.421 405.632 215.147 411.65 215.823L412.022 215.187C412.022 215.187 407.357 211.198 406.985 209.421Z" fill="black"/>
<path opacity="0.1" d="M413.937 215.14L412.536 215.41L412.398 215.438C412.398 215.438 408.663 212.683 408.71 206.533C409.209 207.44 409.807 208.299 410.495 209.098C411.974 210.878 413.656 213.252 413.937 215.14Z" fill="black"/>
<path opacity="0.1" d="M414.408 215.73C414.298 215.795 414.173 215.837 414.043 215.852C413.913 215.868 413.781 215.857 413.656 215.82C410.063 215.057 411.282 204.415 411.282 204.415C411.48 204.498 411.678 205.854 412.524 207.602C413.969 210.669 415.563 214.96 414.408 215.73Z" fill="black"/>
<path opacity="0.1" d="M422.377 209.421C422.377 209.421 422.61 215.147 416.592 215.823L416.216 215.176C416.216 215.176 422.005 211.198 422.377 209.421Z" fill="black"/>
<path opacity="0.1" d="M420.652 206.544C420.699 212.694 415.848 215.449 415.848 215.449L415.706 215.42L414.309 215.151C414.586 213.262 416.287 210.889 417.747 209.109C418.586 208.14 419.562 207.278 420.652 206.544Z" fill="black"/>
<path opacity="0.1" d="M415.686 215.176C415.473 215.415 415.202 215.606 414.895 215.733C414.799 215.772 414.7 215.802 414.598 215.823C413.715 216.01 413.411 215.431 413.458 214.446C413.541 212.694 414.752 209.655 415.832 207.379C416.353 206.262 417.12 205.254 418.088 204.419C418.088 204.419 418.032 212.701 415.686 215.176Z" fill="black"/>
<path opacity="0.1" d="M414.681 200.682C414.681 200.682 410.669 213.629 414.123 215.564C417.577 217.499 415.567 201.826 414.681 200.682Z" fill="black"/>
<path d="M406.985 209.421C406.985 209.421 406.194 215.147 412.208 215.823L412.58 215.187C412.58 215.187 407.357 211.198 406.985 209.421Z" fill="#6C63FF"/>
<path d="M414.495 215.14L413.094 215.41L412.956 215.438C412.956 215.438 408.662 212.683 408.698 206.544C408.698 206.544 409.798 207.623 411.041 209.109C412.532 210.878 414.214 213.252 414.495 215.14Z" fill="#6C63FF"/>
<path opacity="0.1" d="M414.495 215.14L413.094 215.41C411.769 214.352 411.242 211.59 411.052 209.098C412.532 210.878 414.214 213.252 414.495 215.14Z" fill="black"/>
<path d="M414.97 215.73C414.859 215.795 414.734 215.837 414.603 215.852C414.472 215.868 414.339 215.857 414.214 215.82C410.621 215.057 411.278 204.415 411.278 204.415C411.476 204.498 412.251 205.854 413.078 207.602C414.531 210.669 416.121 214.96 414.97 215.73Z" fill="#6C63FF"/>
<path d="M422.377 209.421C422.377 209.421 423.168 215.147 417.154 215.823L416.782 215.187C416.782 215.187 422.005 211.198 422.377 209.421Z" fill="#6C63FF"/>
<path d="M420.652 206.544C420.699 212.694 416.406 215.449 416.406 215.449L416.268 215.42L414.867 215.151C415.144 213.262 416.845 210.889 418.309 209.109C419.552 207.623 420.652 206.544 420.652 206.544Z" fill="#6C63FF"/>
<path opacity="0.1" d="M418.309 209.098C418.127 211.421 417.66 213.978 416.525 215.172C416.447 215.258 416.361 215.338 416.268 215.41L414.867 215.14C415.144 213.252 416.829 210.878 418.309 209.098Z" fill="black"/>
<path d="M416.244 215.176C416.032 215.416 415.761 215.607 415.452 215.733C415.358 215.772 415.26 215.802 415.16 215.823C414.273 216.01 413.973 215.431 414.016 214.446C414.103 212.694 415.314 209.655 416.39 207.379C417.182 205.742 417.898 204.501 418.088 204.419C418.088 204.415 418.59 212.701 416.244 215.176Z" fill="#6C63FF"/>
<path opacity="0.1" d="M414.97 215.73C414.765 215.732 414.565 215.674 414.4 215.564C412.71 214.608 412.675 211.018 413.078 207.602C414.53 210.669 416.121 214.96 414.97 215.73Z" fill="black"/>
<path opacity="0.1" d="M416.244 215.176C416.05 215.561 415.789 215.762 415.452 215.733C415.28 215.714 415.116 215.658 414.974 215.568C414.533 215.294 414.199 214.901 414.016 214.446C414.103 212.694 415.314 209.655 416.39 207.379C416.778 210.533 416.909 213.878 416.244 215.176Z" fill="black"/>
<path d="M414.681 200.682C414.681 200.682 411.23 213.629 414.681 215.564C418.131 217.499 415.567 201.826 414.681 200.682Z" fill="#6C63FF"/>
<path d="M421.305 214.931H406.937V217.093H409.129L409.185 217.348L410.063 221.545H418.416L419.295 217.348L419.346 217.093H421.305V214.931Z" fill="#4B4770"/>
<path opacity="0.1" d="M421.305 214.931H406.937V217.093H409.129L409.185 217.348L410.063 221.545H418.416L419.295 217.348L419.346 217.093H421.305V214.931Z" fill="black"/>
<path d="M420.094 216.201L419.853 217.348L418.974 221.545H410.621L409.743 217.348L409.501 216.201H420.094Z" fill="#4B4770"/>
<path opacity="0.1" d="M420.094 216.201L419.853 217.348H409.743L409.501 216.201H420.094Z" fill="black"/>
<path d="M421.863 214.931H407.495V217.093H421.863V214.931Z" fill="#4B4770"/>
<path d="M55.1544 251.918C54.7756 252.392 54.472 252.913 54.2523 253.464C54.1969 253.597 54.1415 253.752 54.0861 253.9C53.9857 253.857 53.881 253.823 53.7735 253.799C53.3123 253.693 52.8351 253.656 52.3609 253.691C52.3609 253.522 52.3846 253.331 52.3886 253.162C52.4479 251.267 52.2026 248.627 50.2123 249.746C48.3051 250.824 49.6663 252.623 50.8969 253.774C51.0037 253.874 51.1105 253.968 51.2134 254.058C50.0897 254.777 49.876 256.478 49.69 258.244C49.504 260.01 47.854 261.941 46.758 263.038C46.6472 263.15 46.5483 263.25 46.4494 263.344C46.0063 263.023 45.4934 262.79 44.9444 262.662C44.3954 262.533 43.8228 262.512 43.2641 262.599C43.2206 262.445 43.1691 262.283 43.1177 262.114C42.2314 259.204 40.3914 254.166 38.045 253.062L38.3537 252.702C39.3508 251.519 40.4745 249.756 38.8166 249.307C37.1587 248.857 37.0083 250.832 37.0993 252.313C37.1152 252.5 37.131 252.677 37.1468 252.842C36.8154 252.856 36.4906 252.931 36.1925 253.064C35.8944 253.196 35.6293 253.383 35.4137 253.612L35.1565 253.335C33.8112 251.896 31.3461 249.605 30.5983 251.335C29.9019 252.946 32.0742 255.04 33.6015 256.252L33.6965 256.327C32.6716 260.107 37.1468 263.189 39.5565 264.538L39.8691 264.711C36.5454 268.271 34.4918 274.946 34.4918 274.946L43.7983 276.457C43.7983 276.457 49.9709 271.616 49.1796 267.07H49.2429C55.4116 265.948 56.8123 259.97 55.8508 256.421L55.9616 256.381C57.0855 255.963 58.0702 255.287 58.8184 254.417C60.5436 252.242 56.935 249.781 55.1544 251.918Z" fill="#6C63FF"/>
<path opacity="0.1" d="M55.1544 251.918C54.7756 252.392 54.472 252.913 54.2523 253.464C54.1969 253.597 54.1415 253.752 54.0861 253.9C53.9857 253.857 53.881 253.823 53.7735 253.799C53.3123 253.693 52.8351 253.656 52.3609 253.691C52.3609 253.522 52.3846 253.331 52.3886 253.162C52.4479 251.267 52.2026 248.627 50.2123 249.746C48.3051 250.824 49.6663 252.623 50.8969 253.774C51.0037 253.874 51.1105 253.968 51.2134 254.058C50.0897 254.777 49.876 256.478 49.69 258.244C49.504 260.01 47.854 261.941 46.758 263.038C46.6472 263.15 46.5483 263.25 46.4494 263.344C46.0063 263.023 45.4934 262.79 44.9444 262.662C44.3954 262.533 43.8228 262.512 43.2641 262.599C43.2206 262.445 43.1691 262.283 43.1177 262.114C42.2314 259.204 40.3914 254.166 38.045 253.062L38.3537 252.702C39.3508 251.519 40.4745 249.756 38.8166 249.307C37.1587 248.857 37.0083 250.832 37.0993 252.313C37.1152 252.5 37.131 252.677 37.1468 252.842C36.8154 252.856 36.4906 252.931 36.1925 253.064C35.8944 253.196 35.6293 253.383 35.4137 253.612L35.1565 253.335C33.8112 251.896 31.3461 249.605 30.5983 251.335C29.9019 252.946 32.0742 255.04 33.6015 256.252L33.6965 256.327C32.6716 260.107 37.1468 263.189 39.5565 264.538L39.8691 264.711C36.5454 268.271 34.4918 274.946 34.4918 274.946L43.7983 276.457C43.7983 276.457 49.9709 271.616 49.1796 267.07H49.2429C55.4116 265.948 56.8123 259.97 55.8508 256.421L55.9616 256.381C57.0855 255.963 58.0702 255.287 58.8184 254.417C60.5436 252.242 56.935 249.781 55.1544 251.918Z" fill="black"/>
<path d="M36.6285 254.378L35.5403 257.255C35.5403 257.255 34.9349 256.867 34.1713 256.255C32.6439 255.043 30.4716 252.95 31.168 251.339C31.9159 249.609 34.381 251.893 35.7263 253.338C36.2684 253.914 36.6285 254.378 36.6285 254.378Z" fill="#6C63FF"/>
<path d="M38.9234 252.706C38.5929 253.102 38.2389 253.481 37.863 253.842C37.7701 253.337 37.7054 252.828 37.6691 252.317C37.5781 250.835 37.7522 248.868 39.3864 249.31C41.0205 249.753 39.9205 251.522 38.9234 252.706Z" fill="#6C63FF"/>
<path d="M52.9781 253.162C52.9465 254.115 52.8436 254.878 52.8436 254.878C52.365 254.537 51.9116 254.168 51.4864 253.774C50.2558 252.612 48.8947 250.821 50.8019 249.746C52.7724 248.623 53.0177 251.267 52.9781 253.162Z" fill="#6C63FF"/>
<path d="M59.3882 254.41C58.6399 255.279 57.6553 255.956 56.5314 256.374C56.2194 256.497 55.8996 256.602 55.5738 256.69L54.2918 255.054C54.4264 254.513 54.6036 253.982 54.822 253.464C55.0417 252.913 55.3454 252.393 55.7242 251.918C57.4969 249.782 61.1134 252.242 59.3882 254.41Z" fill="#6C63FF"/>
<path opacity="0.1" d="M35.7263 253.339C36.2684 253.914 36.6285 254.36 36.6285 254.36L35.5403 257.237C35.5403 257.237 34.9349 256.849 34.1713 256.237C34.3409 255.31 34.7626 254.436 35.3979 253.695C35.5047 253.576 35.6195 253.454 35.7263 253.339Z" fill="black"/>
<path opacity="0.1" d="M38.9234 252.705C38.5929 253.101 38.2389 253.481 37.863 253.842C37.7701 253.337 37.7054 252.828 37.6691 252.317C38.1214 252.326 38.5596 252.461 38.9234 252.705Z" fill="black"/>
<path d="M44.2731 264.2L41.5666 265.279C41.5666 265.279 40.9771 265.02 40.1263 264.538C37.2814 262.948 31.5637 258.945 35.3781 254.227C39.1925 249.508 42.4094 257.971 43.6875 262.11C44.0713 263.369 44.2731 264.2 44.2731 264.2Z" fill="#6C63FF"/>
<path opacity="0.1" d="M51.4666 253.774C51.8603 253.405 52.3937 253.186 52.9583 253.162C52.9267 254.115 52.8238 254.878 52.8238 254.878C52.3452 254.537 51.8918 254.168 51.4666 253.774Z" fill="black"/>
<path opacity="0.1" d="M56.5393 256.374C56.2273 256.497 55.9076 256.602 55.5818 256.69L54.2997 255.054C54.4344 254.513 54.6115 253.982 54.83 253.464C55.649 253.903 56.2584 254.996 56.5393 256.374Z" fill="black"/>
<path d="M49.8127 267.063C49.6663 267.092 49.512 267.117 49.3576 267.138C40.2846 268.39 46.3663 263.941 46.3663 263.941C46.3663 263.941 46.7619 263.581 47.3278 263.038C48.4238 261.941 50.0699 260.021 50.2598 258.244C50.5447 255.572 50.8731 253.065 54.3433 253.799C57.7501 254.525 58.403 265.498 49.8127 267.063Z" fill="#6C63FF"/>
<path d="M49.6425 287.595H32.3076V291.738H49.6425V287.595Z" fill="#D4DFEC"/>
<path d="M52.2026 274.13H29.5536V288.588H52.2026V274.13Z" fill="#D4DFEC"/>
<path opacity="0.1" d="M49.6425 287.595H32.3076V291.738H49.6425V287.595Z" fill="black"/>
<path opacity="0.1" d="M52.2026 274.13H29.5536V288.588H52.2026V274.13Z" fill="black"/>
<path d="M50.7821 287.595H33.4472V291.738H50.7821V287.595Z" fill="#D4DFEC"/>
<path opacity="0.1" d="M43.6875 262.114C44.0832 263.351 44.2731 264.2 44.2731 264.2L41.5666 265.279C41.5666 265.279 40.9771 265.02 40.1263 264.538C41.1868 263.319 42.3817 262.398 43.6875 262.114Z" fill="black"/>
<path opacity="0.1" d="M49.8127 267.063C49.6663 267.092 49.512 267.117 49.3576 267.138C40.2846 268.39 46.3663 263.941 46.3663 263.941C46.3663 263.941 46.7619 263.581 47.3278 263.038C49.0213 264.272 49.7217 265.66 49.8127 267.063Z" fill="black"/>
<path d="M35.0616 274.95C35.0616 274.95 40.1422 258.406 47.2684 263.509C54.3947 268.613 44.3681 276.457 44.3681 276.457L35.0616 274.95Z" fill="#6C63FF"/>
<path opacity="0.1" d="M37.6256 257.338C37.9403 257.338 38.1954 257.106 38.1954 256.82C38.1954 256.534 37.9403 256.302 37.6256 256.302C37.3109 256.302 37.0558 256.534 37.0558 256.82C37.0558 257.106 37.3109 257.338 37.6256 257.338Z" fill="black"/>
<path opacity="0.1" d="M37.5781 259.755C37.8928 259.755 38.1479 259.523 38.1479 259.237C38.1479 258.951 37.8928 258.719 37.5781 258.719C37.2635 258.719 37.0084 258.951 37.0084 259.237C37.0084 259.523 37.2635 259.755 37.5781 259.755Z" fill="black"/>
<path opacity="0.1" d="M54.1059 257.812C54.4205 257.812 54.6756 257.581 54.6756 257.295C54.6756 257.009 54.4205 256.777 54.1059 256.777C53.7912 256.777 53.5361 257.009 53.5361 257.295C53.5361 257.581 53.7912 257.812 54.1059 257.812Z" fill="black"/>
<path opacity="0.1" d="M40.8109 270.203C41.1256 270.203 41.3807 269.971 41.3807 269.685C41.3807 269.399 41.1256 269.167 40.8109 269.167C40.4962 269.167 40.2411 269.399 40.2411 269.685C40.2411 269.971 40.4962 270.203 40.8109 270.203Z" fill="black"/>
<path opacity="0.1" d="M52.9188 261.826C53.2335 261.826 53.4886 261.594 53.4886 261.308C53.4886 261.022 53.2335 260.791 52.9188 260.791C52.6041 260.791 52.349 261.022 52.349 261.308C52.349 261.594 52.6041 261.826 52.9188 261.826Z" fill="black"/>
<path opacity="0.1" d="M47.031 267.181C47.3457 267.181 47.6008 266.95 47.6008 266.664C47.6008 266.378 47.3457 266.146 47.031 266.146C46.7163 266.146 46.4612 266.378 46.4612 266.664C46.4612 266.95 46.7163 267.181 47.031 267.181Z" fill="black"/>
<path opacity="0.1" d="M39.5724 258.374C39.887 258.374 40.1421 258.142 40.1421 257.856C40.1421 257.57 39.887 257.338 39.5724 257.338C39.2577 257.338 39.0026 257.57 39.0026 257.856C39.0026 258.142 39.2577 258.374 39.5724 258.374Z" fill="black"/>
<path opacity="0.1" d="M52.5389 259.366C52.8536 259.366 53.1087 259.134 53.1087 258.848C53.1087 258.562 52.8536 258.33 52.5389 258.33C52.2242 258.33 51.9691 258.562 51.9691 258.848C51.9691 259.134 52.2242 259.366 52.5389 259.366Z" fill="black"/>
<path opacity="0.1" d="M50.5922 263.38C50.9069 263.38 51.162 263.148 51.162 262.862C51.162 262.576 50.9069 262.344 50.5922 262.344C50.2775 262.344 50.0224 262.576 50.0224 262.862C50.0224 263.148 50.2775 263.38 50.5922 263.38Z" fill="black"/>
<path opacity="0.1" d="M44.6095 269.814C44.9241 269.814 45.1792 269.582 45.1792 269.296C45.1792 269.01 44.9241 268.778 44.6095 268.778C44.2948 268.778 44.0397 269.01 44.0397 269.296C44.0397 269.582 44.2948 269.814 44.6095 269.814Z" fill="black"/>
<path opacity="0.1" d="M43.3749 267.268C43.6896 267.268 43.9447 267.036 43.9447 266.75C43.9447 266.464 43.6896 266.232 43.3749 266.232C43.0602 266.232 42.8051 266.464 42.8051 266.75C42.8051 267.036 43.0602 267.268 43.3749 267.268Z" fill="black"/>
<path opacity="0.1" d="M40.427 261.524C40.7417 261.524 40.9968 261.292 40.9968 261.006C40.9968 260.72 40.7417 260.488 40.427 260.488C40.1123 260.488 39.8572 260.72 39.8572 261.006C39.8572 261.292 40.1123 261.524 40.427 261.524Z" fill="black"/>
<path opacity="0.1" d="M50.7821 287.595H33.4472V289.109H50.7821V287.595Z" fill="black"/>
<path d="M53.3422 274.13H30.6932V288.588H53.3422V274.13Z" fill="#D4DFEC"/>
<path opacity="0.1" d="M45.3692 272.145C45.6838 272.145 45.9389 271.913 45.9389 271.627C45.9389 271.341 45.6838 271.109 45.3692 271.109C45.0545 271.109 44.7994 271.341 44.7994 271.627C44.7994 271.913 45.0545 272.145 45.3692 272.145Z" fill="black"/>
<path opacity="0.1" d="M41.9504 272.792C42.2651 272.792 42.5202 272.56 42.5202 272.274C42.5202 271.988 42.2651 271.756 41.9504 271.756C41.6357 271.756 41.3806 271.988 41.3806 272.274C41.3806 272.56 41.6357 272.792 41.9504 272.792Z" fill="black"/>
<path opacity="0.1" d="M19.7842 22.4638C22.07 22.4638 23.923 20.7796 23.923 18.7019C23.923 16.6242 22.07 14.9399 19.7842 14.9399C17.4984 14.9399 15.6453 16.6242 15.6453 18.7019C15.6453 20.7796 17.4984 22.4638 19.7842 22.4638Z" fill="#6C63FF"/>
<path opacity="0.1" d="M417.277 142.095C420.336 142.095 422.816 139.84 422.816 137.06C422.816 134.279 420.336 132.024 417.277 132.024C414.217 132.024 411.737 134.279 411.737 137.06C411.737 139.84 414.217 142.095 417.277 142.095Z" fill="#6C63FF"/>
<path opacity="0.1" d="M427.956 129.946C430.19 129.946 432 128.3 432 126.27C432 124.24 430.19 122.594 427.956 122.594C425.723 122.594 423.912 124.24 423.912 126.27C423.912 128.3 425.723 129.946 427.956 129.946Z" fill="#6C63FF"/>
<path opacity="0.1" d="M26.9065 10.0702C29.9659 10.0702 32.4461 7.81594 32.4461 5.03512C32.4461 2.2543 29.9659 0 26.9065 0C23.8471 0 21.3669 2.2543 21.3669 5.03512C21.3669 7.81594 23.8471 10.0702 26.9065 10.0702Z" fill="#6C63FF"/>
<path opacity="0.1" d="M5.53958 33.0879C8.599 33.0879 11.0792 30.8336 11.0792 28.0528C11.0792 25.272 8.599 23.0177 5.53958 23.0177C2.48015 23.0177 0 25.272 0 28.0528C0 30.8336 2.48015 33.0879 5.53958 33.0879Z" fill="#6C63FF"/>
<defs>
<linearGradient id="paint0_linear" x1="208.577" y1="279.036" x2="208.577" y2="68.4597" gradientUnits="userSpaceOnUse">
<stop stop-color="#808080" stop-opacity="0.25"/>
<stop offset="0.54" stop-color="#808080" stop-opacity="0.12"/>
<stop offset="1" stop-color="#808080" stop-opacity="0.1"/>
</linearGradient>
</defs>
</svg>
