<svg width="432" height="298" viewBox="0 0 432 298" fill="none" xmlns="http://www.w3.org/2000/svg">
<g clip-path="url(#clip0)">
<path opacity="0.1" d="M3.31739 156.883C10.9532 144.418 28.2209 146.591 40.4663 153.098C52.7116 159.604 64.9305 169.317 78.4068 167.451C89.7696 165.876 99.0872 155.974 104.121 144.55C109.155 133.127 110.632 120.245 112.048 107.629C113.829 91.7793 115.607 75.9191 117.385 60.0489C118.037 54.2462 118.805 48.1217 122.07 43.5302C126.385 37.4738 134.293 35.6115 141.058 37.4322C147.822 39.2529 153.591 44.1358 158.526 49.5828C174.336 67.0251 183.293 90.6033 197.114 110.014C199.929 113.966 203.106 117.872 207.311 119.78C213.371 122.524 220.329 120.582 226.249 117.528C245.566 107.576 258.542 87.2685 271.295 68.3197C277.499 59.1102 285.063 49.261 295.384 48.2579C306.243 47.1791 315.67 56.4265 322.053 66.2189C342.536 97.7271 346.926 140.743 371.67 168.223C374.742 171.63 378.132 174.779 382.037 176.895C383.325 177.591 384.668 178.179 386.052 178.655C407.641 186.124 414.838 216.103 398.869 233.878C398.524 234.257 398.172 234.635 397.816 235.014C395.445 237.516 392.76 239.882 389.555 240.627C386.575 241.316 383.495 240.521 380.541 239.662C361.656 234.154 342.998 225.736 323.473 226.145C304.474 226.523 286.453 235.294 267.666 238.451C255.035 240.574 242.183 240.15 229.411 239.692C186.874 238.163 144.345 236.384 101.826 234.355C80.721 233.386 59.6089 232.462 38.5081 231.384C22.2517 230.54 11.8963 228.681 10.0101 209.827C8.3587 193.316 -6.47359 172.872 3.31739 156.883Z" fill="#6C63FF"/>
<path d="M299.184 298C355.661 298 401.445 291.606 401.445 283.718C401.445 275.831 355.661 269.437 299.184 269.437C242.706 269.437 196.922 275.831 196.922 283.718C196.922 291.606 242.706 298 299.184 298Z" fill="#30374E"/>
<path d="M56.337 222.106C56.337 222.106 61.3366 220.971 64.6129 224.328C64.6129 224.328 62.507 226.221 57.5528 224.124L56.337 222.106Z" fill="#6C63FF"/>
<path d="M55.784 222.057C55.784 222.057 52.8221 226.251 54.7007 230.555C54.7007 230.555 57.2611 229.325 57.1892 223.95L55.784 222.057Z" fill="#6C63FF"/>
<path d="M52.4509 215.736C52.4509 215.736 54.2273 211.894 62.6774 216.538C62.6774 216.538 61.7684 219.104 58.1777 219.142C54.5871 219.18 53.5114 217.624 52.4509 215.736Z" fill="#6C63FF"/>
<path d="M51.913 215.501C51.913 215.501 47.6823 215.304 47.9209 224.934C47.9209 224.934 50.6214 225.312 52.3069 222.14C53.9924 218.968 53.0985 217.329 51.913 215.501Z" fill="#6C63FF"/>
<path d="M48.9663 208.006C48.9663 208.006 50.8601 201.314 59.7496 205.402C59.7496 205.402 58.1967 211.53 49.9776 210.186L48.9663 208.006Z" fill="#6C63FF"/>
<path d="M45.6672 198.414C45.6672 198.414 49.6745 191.51 57.9732 197.112C57.9732 197.112 55.6287 203.498 46.5005 200.727L45.6672 198.414Z" fill="#6C63FF"/>
<path d="M44.0992 189.178C44.0992 189.178 48.8829 182.762 57.1134 188.304C57.1134 188.304 52.5456 193.959 44.2014 190.726L44.0992 189.178Z" fill="#6C63FF"/>
<path d="M42.6826 180.2C42.6826 180.2 47.5156 173.515 55.4052 179.007C55.4052 179.007 49.845 184.999 42.7811 181.684L42.6826 180.2Z" fill="#6C63FF"/>
<path d="M42.6144 172.152C42.6144 172.152 47.5951 163.624 54.981 168.681C54.981 168.681 49.5192 176.089 42.7205 173.7L42.6144 172.152Z" fill="#6C63FF"/>
<path d="M43.2848 162.697C43.2848 162.697 48.5875 154.218 55.818 159.979C55.818 159.979 49.3412 167.455 43.3682 164.2L43.2848 162.697Z" fill="#6C63FF"/>
<path d="M44.6597 154.195C44.6597 154.195 51.0987 146.129 57.3672 148.756C57.3672 148.756 50.6707 157.311 44.4893 156.235L44.6597 154.195Z" fill="#6C63FF"/>
<path d="M46.5535 146.095C46.5535 146.095 53.9545 136.253 58.814 139.047C58.814 139.047 53.394 146.651 46.0952 147.885L46.5535 146.095Z" fill="#6C63FF"/>
<path d="M49.4397 136.654C49.4397 136.654 55.943 128.584 61.1813 130.129C61.1813 130.129 55.7082 138.415 48.6443 139.092L49.4397 136.654Z" fill="#6C63FF"/>
<path d="M52.0342 127.831C52.0342 127.831 59.2989 120.034 62.757 121.086C62.757 121.086 57.7005 129.55 51.8032 129.47L52.0342 127.831Z" fill="#6C63FF"/>
<path d="M54.5984 119.67C54.5984 119.67 60.6927 110.529 64.3781 110.964C64.3781 110.964 60.8518 118.985 54.659 120.552L54.5984 119.67Z" fill="#6C63FF"/>
<path d="M57.246 108.727C57.246 108.727 62.6964 101.664 65.8855 101.467C65.8855 101.467 61.829 110.68 57.1475 110.93L57.246 108.727Z" fill="#6C63FF"/>
<path d="M58.761 101.456L63.5258 87.189C63.5258 87.189 64.6621 99.7182 58.2232 104.079L58.761 101.456Z" fill="#6C63FF"/>
<path d="M60.045 85.9891C60.045 85.9891 60.2117 74.3344 59.5413 73.4335C59.5413 73.4335 64.2644 82.7982 60.3518 91.1143L60.045 85.9891Z" fill="#6C63FF"/>
<path d="M48.7239 207.866C48.7239 207.866 42.5652 204.603 39.3419 213.82C39.3419 213.82 44.834 216.954 49.5685 210.107L48.7239 207.866Z" fill="#6C63FF"/>
<path d="M45.4514 198.055C45.4514 198.055 37.9822 195.235 35.0922 204.823C35.0922 204.823 40.9517 208.286 46.2695 200.371L45.4514 198.055Z" fill="#6C63FF"/>
<path d="M43.8 189.758C43.8 189.758 38.1981 184.038 30.7857 190.64C30.7857 190.64 36.0656 195.632 43.9022 191.317L43.8 189.758Z" fill="#6C63FF"/>
<path d="M42.5046 180.215C42.5046 180.215 36.8232 174.23 29.7365 180.73C29.7365 180.73 36.0467 185.927 42.6144 181.695L42.5046 180.215Z" fill="#6C63FF"/>
<path d="M42.6296 172.379C42.6296 172.379 38.3269 163.496 30.5736 167.962C30.5736 167.962 35.4445 175.771 42.4061 173.92L42.6296 172.379Z" fill="#6C63FF"/>
<path d="M43.728 162.629C43.728 162.629 39.4366 153.582 31.5849 158.439C31.5849 158.439 37.1375 166.618 43.4553 164.09L43.728 162.629Z" fill="#6C63FF"/>
<path d="M45.4438 154.188C45.4438 154.188 43.3076 144.1 36.524 143.638C36.524 143.638 38.6753 154.286 44.6711 156.084L45.4438 154.188Z" fill="#6C63FF"/>
<path d="M46.7278 146.102C46.7278 146.102 45.3377 133.872 39.7358 133.816C39.7358 133.816 40.5502 143.116 46.2165 147.878L46.7278 146.102Z" fill="#6C63FF"/>
<path d="M49.9965 136.265C49.9965 136.265 47.6444 126.173 42.2432 125.287C42.2432 125.287 43.5689 135.129 49.6405 138.808L49.9965 136.265Z" fill="#6C63FF"/>
<path d="M52.6705 127.861C52.6705 127.861 51.913 117.236 48.5421 115.892C48.5421 115.892 47.1747 125.651 51.8183 129.285L52.6705 127.861Z" fill="#6C63FF"/>
<path d="M54.8409 119.538C54.8409 119.538 53.6478 108.617 50.1783 107.304C50.1783 107.304 49.6102 116.044 54.3826 120.287L54.8409 119.538Z" fill="#6C63FF"/>
<path d="M57.7762 109.567C57.7762 109.567 57.1551 100.668 54.6136 98.7378C54.6136 98.7378 52.8789 108.651 56.64 111.441L57.7762 109.567Z" fill="#6C63FF"/>
<path d="M58.4353 101.035L55.1022 86.3715C55.1022 86.3715 52.7425 98.7264 58.7269 103.7L58.4353 101.035Z" fill="#6C63FF"/>
<path d="M57.9164 86.273C57.9164 86.273 51.2388 76.7039 51.2918 75.5911C51.2918 75.5911 52.6327 85.9929 60.5374 90.6904L57.9164 86.273Z" fill="#6C63FF"/>
<path d="M58.4353 83.2865C58.4353 83.2865 51.8221 69.512 49.1822 68.524C49.1822 68.524 57.549 72.0935 58.8822 82.8322L58.4353 83.2865Z" fill="#6C63FF"/>
<path d="M57.1248 111.002L56.746 110.907C60.4768 95.0094 61.0033 84.9861 58.2232 82.6846L58.4807 82.3743C61.4123 84.812 60.9503 94.7141 57.1248 111.002Z" fill="#444053"/>
<path d="M46.4134 148.347L45.8263 148.184C46.2392 146.723 46.6861 145.236 47.1634 143.771C51.3297 131.007 54.7916 119.167 56.9165 110.105L57.3975 109.821C55.2689 118.905 51.9017 131.181 47.7429 143.956C47.2694 145.417 46.8225 146.893 46.4134 148.347Z" fill="#444053"/>
<path d="M64.2341 233.288C64.1508 233.208 55.8181 225.009 49.417 210.485C45.6665 201.984 43.2874 192.943 42.3682 183.697C41.232 172.141 42.7849 159.044 46.1559 147.018L46.6407 147.518C39.0654 174.511 44.2961 196.855 50.1366 210.126C56.4733 224.51 64.7114 232.629 64.7947 232.709L64.2341 233.288Z" fill="#444053"/>
<path d="M73.4077 190.057C73.4077 190.057 76.4378 189.364 78.4149 191.4C78.4149 191.4 77.1385 192.536 74.1463 191.275L73.4077 190.057Z" fill="#6C63FF"/>
<path d="M73.0782 190.03C73.0782 190.03 71.2904 192.566 72.4267 195.167C72.4267 195.167 73.9721 194.41 73.9418 191.173L73.0782 190.03Z" fill="#6C63FF"/>
<path d="M71.0632 186.203C71.0632 186.203 72.1351 183.883 77.237 186.692C77.237 186.692 76.6878 188.24 74.5175 188.262C72.3472 188.285 71.7109 187.346 71.0632 186.203Z" fill="#6C63FF"/>
<path d="M70.7374 186.063C70.7374 186.063 68.177 185.946 68.321 191.764C68.321 191.764 69.9534 191.991 70.9723 190.075C71.9911 188.16 71.4533 187.168 70.7374 186.063Z" fill="#6C63FF"/>
<path d="M68.9459 181.532C68.9459 181.532 70.1087 177.486 75.472 179.95C75.472 179.95 74.5364 183.656 69.5671 182.842L68.9459 181.532Z" fill="#6C63FF"/>
<path d="M66.9612 175.733C66.9612 175.733 69.3815 171.569 74.4001 174.946C74.4001 174.946 72.9797 178.807 67.465 177.13L66.9612 175.733Z" fill="#6C63FF"/>
<path d="M66.0105 170.15C66.0105 170.15 68.9043 166.27 73.8774 169.62C73.8774 169.62 71.12 173.027 66.0749 171.085L66.0105 170.15Z" fill="#6C63FF"/>
<path d="M65.1545 164.722C65.1545 164.722 68.0785 160.679 72.8471 164.003C72.8471 164.003 69.4875 167.625 65.2151 165.619L65.1545 164.722Z" fill="#6C63FF"/>
<path d="M65.1166 159.854C65.1166 159.854 68.1467 154.702 72.5896 157.757C72.5896 157.757 69.2868 162.235 65.1772 160.785L65.1166 159.854Z" fill="#6C63FF"/>
<path d="M65.5106 154.142C65.5106 154.142 68.7262 149.013 73.0858 152.484C73.0858 152.484 69.1694 157.004 65.556 155.035L65.5106 154.142Z" fill="#6C63FF"/>
<path d="M66.3514 149.002C66.3514 149.002 70.2413 144.126 74.0327 145.716C74.0327 145.716 69.9837 150.887 66.2567 150.236L66.3514 149.002Z" fill="#6C63FF"/>
<path d="M67.4953 144.104C67.4953 144.104 71.9684 138.157 74.9076 139.842C74.9076 139.842 71.6313 144.441 67.2188 145.186L67.4953 144.104Z" fill="#6C63FF"/>
<path d="M69.2413 138.403C69.2413 138.403 73.1729 133.524 76.3469 134.459C76.3469 134.459 73.0403 139.467 68.7717 139.876L69.2413 138.403Z" fill="#6C63FF"/>
<path d="M70.8094 133.062C70.8094 133.062 75.1993 128.35 77.29 128.986C77.29 128.986 74.2372 134.099 70.6693 134.054L70.8094 133.062Z" fill="#6C63FF"/>
<path d="M72.3586 128.13C72.3586 128.13 76.0439 122.604 78.271 122.861C78.271 122.861 76.1424 127.71 72.3964 128.66L72.3586 128.13Z" fill="#6C63FF"/>
<path d="M73.9645 121.514C73.9645 121.514 77.2597 117.244 79.1876 117.123C79.1876 117.123 76.7332 122.695 73.9039 122.835L73.9645 121.514Z" fill="#6C63FF"/>
<path d="M74.8773 117.115L77.7521 108.5C77.7521 108.5 78.4339 116.07 74.5364 118.72L74.8773 117.115Z" fill="#6C63FF"/>
<path d="M75.6538 107.766C75.6538 107.766 75.7523 100.721 75.347 100.176C75.347 100.176 78.2028 105.835 75.8356 110.866L75.6538 107.766Z" fill="#6C63FF"/>
<path d="M68.8058 181.449C68.8058 181.449 65.0863 179.473 63.1244 185.045C63.1244 185.045 66.4461 186.937 69.3095 182.804L68.8058 181.449Z" fill="#6C63FF"/>
<path d="M66.8324 175.498C66.8324 175.498 62.3138 173.795 60.5677 179.59C60.5677 179.59 64.1091 181.684 67.3248 176.903L66.8324 175.498Z" fill="#6C63FF"/>
<path d="M65.8287 170.498C65.8287 170.498 62.4464 167.042 57.9618 171.028C57.9618 171.028 61.1548 174.056 65.8931 171.437L65.8287 170.498Z" fill="#6C63FF"/>
<path d="M65.0485 164.73C65.0485 164.73 61.6131 161.115 57.3293 165.044C57.3293 165.044 61.1434 168.182 65.1091 165.627L65.0485 164.73Z" fill="#6C63FF"/>
<path d="M65.1242 159.979C65.1242 159.979 62.5221 154.608 57.833 157.307C57.833 157.307 60.7798 162.027 64.9879 160.91L65.1242 159.979Z" fill="#6C63FF"/>
<path d="M65.787 154.093C65.787 154.093 63.1925 148.623 58.4353 151.561C58.4353 151.561 61.7911 156.508 65.6128 154.967L65.787 154.093Z" fill="#6C63FF"/>
<path d="M66.8249 149.002C66.8249 149.002 65.5333 142.9 61.4313 142.624C61.4313 142.624 62.7304 149.059 66.3552 150.145L66.8249 149.002Z" fill="#6C63FF"/>
<path d="M67.6013 144.108C67.6013 144.108 66.768 136.715 63.3592 136.677C63.3592 136.677 63.8516 142.302 67.2756 145.183L67.6013 144.108Z" fill="#6C63FF"/>
<path d="M69.5747 138.161C69.5747 138.161 68.1543 132.059 64.8894 131.522C64.8894 131.522 65.6923 137.468 69.3626 139.694L69.5747 138.161Z" fill="#6C63FF"/>
<path d="M71.192 133.081C71.192 133.081 70.7261 126.646 68.6997 125.844C68.6997 125.844 67.8702 131.745 70.6768 133.94L71.192 133.081Z" fill="#6C63FF"/>
<path d="M72.5063 128.047C72.5063 128.047 71.7866 121.445 69.6883 120.651C69.6883 120.651 69.3436 125.95 72.2298 128.501L72.5063 128.047Z" fill="#6C63FF"/>
<path d="M74.2789 122.021C74.2789 122.021 73.9001 116.642 72.3851 115.472C72.3851 115.472 71.3359 121.468 73.6085 123.153L74.2789 122.021Z" fill="#6C63FF"/>
<path d="M74.6879 116.861L72.6729 107.996C72.6729 107.996 71.245 115.469 74.8622 118.474L74.6879 116.861Z" fill="#6C63FF"/>
<path d="M74.366 107.94C74.366 107.94 70.3322 102.16 70.3625 101.482C70.3625 101.482 71.1693 107.769 75.9492 110.608L74.366 107.94Z" fill="#6C63FF"/>
<path d="M74.669 106.13C74.669 106.13 70.6693 97.8028 69.0747 97.2161C69.0747 97.2161 74.1349 99.3737 74.9379 105.869L74.669 106.13Z" fill="#6C63FF"/>
<path d="M73.885 122.884L73.6463 122.827C75.9189 113.216 76.2219 107.156 74.5402 105.767L74.6955 105.578C76.4795 107.054 76.1992 113.042 73.885 122.884Z" fill="#444053"/>
<path d="M67.4119 145.466L67.0559 145.364C67.3059 144.482 67.5786 143.585 67.8665 142.715C70.3776 134.996 72.476 127.839 73.76 122.361L74.0516 122.187C72.7638 127.676 70.7299 135.102 68.2149 142.828C67.9271 143.703 67.6581 144.584 67.4119 145.466Z" fill="#444053"/>
<path d="M78.1839 196.817C78.1347 196.768 73.0971 191.813 69.2262 183.031C66.9605 177.892 65.5224 172.426 64.9651 166.838C64.272 159.85 65.2189 151.932 67.2604 144.66L67.5521 144.963C62.9728 161.281 66.1355 174.791 69.6656 182.815C73.4986 191.521 78.4755 196.416 78.5286 196.465L78.1839 196.817Z" fill="#444053"/>
<path d="M89.5771 215.743C88.605 215.916 87.6532 216.187 86.7363 216.553C66.306 224.707 66.6468 278.078 66.6468 278.078H60.6321C60.6321 278.078 58.7383 255.174 50.4851 222.496C43.05 193.096 73.5441 166.747 79.7368 161.751C80.4338 161.194 80.8201 160.899 80.8201 160.899C111.534 172.179 89.5771 215.743 89.5771 215.743Z" fill="#AFC0E0"/>
<path opacity="0.2" d="M83.0548 161.826C82.3465 161.501 81.6155 161.19 80.839 160.906C80.839 160.906 80.4603 161.202 79.7558 161.758C73.563 166.755 43.0689 193.104 50.504 222.504C58.7572 255.182 60.6321 278.078 60.6321 278.078H64.0144C64.0144 278.078 62.1396 255.174 53.8674 222.496C46.4627 193.232 76.6613 166.982 83.0548 161.826Z" fill="white"/>
<path d="M190.911 222.504C182.639 255.181 180.775 278.078 180.775 278.078H174.749C174.749 278.078 175.128 222.299 153.262 216.072C152.788 215.93 152.306 215.818 151.819 215.736C151.819 215.736 129.851 172.171 160.576 160.899C160.576 160.899 160.886 161.13 161.447 161.58C167.14 166.134 198.429 192.763 190.911 222.504Z" fill="#AFC0E0"/>
<path opacity="0.1" d="M89.577 215.743C88.605 215.916 87.6531 216.187 86.7363 216.553C83.0426 198.488 80.7029 180.172 79.7368 161.758C80.4337 161.202 80.8201 160.906 80.8201 160.906C111.534 172.179 89.577 215.743 89.577 215.743Z" fill="black"/>
<path opacity="0.1" d="M161.458 161.588C160.206 179.948 157.469 198.176 153.273 216.095C152.8 215.953 152.318 215.841 151.83 215.758C151.83 215.758 129.862 172.194 160.587 160.922C160.576 160.906 160.886 161.137 161.458 161.588Z" fill="black"/>
<path d="M150.213 224.003C148.092 232.365 145.606 240.945 142.755 249.742C142.755 249.742 129.226 263.827 96.5463 249.742C96.5463 249.742 93.2813 240.544 89.6907 224.907C81.7859 190.526 72.3055 125.007 92.5049 57.7097C98.52 37.4786 107.069 18.0884 117.95 0C117.95 0 135.206 19.8005 147.872 57.6983C160.538 95.596 168.598 151.599 150.213 224.003Z" fill="#E3E8F4"/>
<path d="M120.696 138.248C135.68 138.248 147.827 126.109 147.827 111.134C147.827 96.16 135.68 84.0208 120.696 84.0208C105.712 84.0208 93.5654 96.16 93.5654 111.134C93.5654 126.109 105.712 138.248 120.696 138.248Z" fill="#AFC0E0"/>
<path d="M139.937 111.15C139.937 114.791 138.902 118.357 136.954 121.434C135.005 124.511 132.222 126.971 128.928 128.529C125.635 130.087 121.967 130.679 118.351 130.235C114.734 129.791 111.318 128.33 108.5 126.022C107.124 124.89 105.911 123.574 104.894 122.112C104.437 121.458 104.023 120.777 103.652 120.071C102.209 117.319 101.456 114.257 101.459 111.15C101.459 110.994 101.459 110.843 101.459 110.692C101.557 106.58 102.971 102.607 105.493 99.3566C108.015 96.1061 111.513 93.7482 115.473 92.6284C116.985 92.2119 118.541 91.9756 120.109 91.9244H120.685C123.212 91.9229 125.715 92.419 128.051 93.3845C130.386 94.3499 132.508 95.7657 134.296 97.5511C136.084 99.3364 137.502 101.456 138.47 103.789C139.438 106.123 139.937 108.624 139.937 111.15Z" fill="#6C63FF"/>
<path d="M147.868 57.6983C117.086 72.4266 92.4859 57.6983 92.4859 57.6983C98.5079 37.4703 107.064 18.0839 117.95 0C117.95 0 135.206 19.8005 147.868 57.6983Z" fill="#AFC0E0"/>
<path d="M150.213 224.002C148.774 229.665 147.17 235.425 145.403 241.282C144.564 244.076 143.681 246.892 142.751 249.731C142.751 249.731 129.222 263.816 96.5425 249.731C96.5425 249.731 95.4819 246.744 93.8911 241.282C92.7018 237.156 91.2209 231.626 89.6755 224.896C89.6755 224.896 101.841 230.085 119.109 230.085C129.776 230.122 140.346 228.055 150.213 224.002Z" fill="#AFC0E0"/>
<path d="M145.403 241.282C144.564 244.076 143.681 246.892 142.751 249.731C142.751 249.731 129.222 263.816 96.5425 249.731C96.5425 249.731 95.4819 246.744 93.8911 241.282C93.8873 241.282 127.196 250.859 145.403 241.282Z" fill="#E3E8F4"/>
<path opacity="0.2" d="M115.484 92.6019L115.443 92.6322L101.466 110.665C101.466 110.816 101.466 110.968 101.466 111.123C101.464 114.231 102.216 117.292 103.659 120.045L120.128 91.8979L115.484 92.6019Z" fill="white"/>
<path opacity="0.2" d="M119.946 108.878L108.5 126.007C107.124 124.875 105.911 123.559 104.894 122.096L118.53 107.47L119.946 108.878Z" fill="white"/>
<path opacity="0.2" d="M103.856 249.734C103.856 249.734 100.591 240.533 97.0008 224.9C89.096 190.515 79.6156 124.996 99.815 57.6983C105.245 39.4891 112.722 21.9537 122.105 5.42802C119.541 1.83584 117.939 0.00378418 117.939 0.00378418C107.056 18.087 98.5044 37.472 92.4859 57.6983C72.2866 124.996 81.767 190.515 89.6717 224.9C93.2624 240.533 96.5273 249.734 96.5273 249.734C109.439 255.295 119.359 256.461 126.639 255.84C120.42 255.367 112.867 253.614 103.856 249.734Z" fill="white"/>
<path d="M354.892 275.917C354.892 275.917 372.595 253.902 371.421 231.853C370.87 222.61 373.334 213.437 378.443 205.712C380.902 202.058 383.691 198.637 386.776 195.492" stroke="#535461" stroke-width="2" stroke-miterlimit="10"/>
<path d="M386.106 181.608C384.84 184.678 386.734 195.871 386.734 195.871C386.734 195.871 395.965 189.254 397.23 186.184C397.837 184.71 397.833 183.055 397.22 181.583C396.606 180.112 395.432 178.944 393.957 178.337C392.482 177.731 390.826 177.734 389.354 178.348C387.881 178.961 386.713 180.134 386.106 181.608Z" fill="#6C63FF"/>
<path d="M369.902 194.834C370.512 198.096 378.189 206.462 378.189 206.462C378.189 206.462 382.356 195.897 381.731 192.631C381.438 191.063 380.535 189.676 379.219 188.774C377.903 187.872 376.283 187.529 374.714 187.821C373.146 188.114 371.757 189.016 370.855 190.331C369.953 191.646 369.61 193.266 369.902 194.834Z" fill="#6C63FF"/>
<path d="M358.335 224.063C360.509 226.573 371.364 229.923 371.364 229.923C371.364 229.923 369.607 218.707 367.433 216.194C366.377 215.028 364.907 214.322 363.338 214.227C361.768 214.132 360.223 214.654 359.035 215.683C357.846 216.712 357.108 218.166 356.978 219.732C356.849 221.298 357.339 222.853 358.342 224.063H358.335Z" fill="#6C63FF"/>
<path d="M354.566 248.148C356.282 250.991 366.414 256.124 366.414 256.124C366.414 256.124 366.58 244.768 364.865 241.929C364.456 241.254 363.918 240.665 363.282 240.197C362.646 239.729 361.923 239.39 361.156 239.201C360.389 239.012 359.592 238.976 358.811 239.095C358.03 239.213 357.28 239.485 356.604 239.893C355.928 240.301 355.338 240.839 354.87 241.475C354.402 242.11 354.063 242.832 353.874 243.599C353.685 244.366 353.649 245.162 353.767 245.943C353.886 246.723 354.157 247.473 354.566 248.148Z" fill="#6C63FF"/>
<path d="M389.624 211.863C386.541 213.093 375.36 211.087 375.36 211.087C375.36 211.087 382.072 201.931 385.159 200.697C386.64 200.105 388.297 200.126 389.763 200.754C391.229 201.383 392.386 202.568 392.978 204.049C393.57 205.529 393.55 207.185 392.921 208.65C392.292 210.116 391.106 211.271 389.624 211.863Z" fill="#6C63FF"/>
<path d="M384.859 239.976C381.549 240.23 371.482 234.972 371.482 234.972C371.482 234.972 380.625 228.238 383.939 227.985C385.511 227.897 387.055 228.429 388.239 229.465C389.424 230.502 390.154 231.961 390.275 233.53C390.395 235.099 389.896 236.652 388.883 237.857C387.871 239.062 386.426 239.823 384.859 239.976Z" fill="#6C63FF"/>
<path d="M376.477 266.662C373.254 267.472 362.444 263.99 362.444 263.99C362.444 263.99 370.319 255.81 373.542 255.003C374.308 254.811 375.104 254.771 375.886 254.886C376.667 255.001 377.418 255.269 378.096 255.674C378.774 256.079 379.366 256.613 379.837 257.247C380.308 257.88 380.65 258.6 380.843 259.366C381.035 260.131 381.075 260.927 380.96 261.708C380.845 262.489 380.577 263.24 380.172 263.917C379.767 264.595 379.232 265.186 378.598 265.657C377.964 266.128 377.243 266.469 376.477 266.662Z" fill="#6C63FF"/>
<path opacity="0.25" d="M386.106 181.608C384.84 184.678 386.734 195.871 386.734 195.871C386.734 195.871 395.965 189.254 397.23 186.184C397.837 184.71 397.833 183.055 397.22 181.583C396.606 180.112 395.432 178.944 393.957 178.337C392.482 177.731 390.826 177.734 389.354 178.348C387.881 178.961 386.713 180.134 386.106 181.608Z" fill="black"/>
<path opacity="0.25" d="M369.902 194.834C370.512 198.096 378.189 206.462 378.189 206.462C378.189 206.462 382.356 195.897 381.731 192.631C381.438 191.063 380.535 189.676 379.219 188.774C377.903 187.872 376.283 187.529 374.714 187.821C373.146 188.114 371.757 189.016 370.855 190.331C369.953 191.646 369.61 193.266 369.902 194.834Z" fill="black"/>
<path opacity="0.25" d="M358.335 224.063C360.509 226.573 371.364 229.923 371.364 229.923C371.364 229.923 369.607 218.707 367.433 216.194C366.377 215.028 364.907 214.322 363.338 214.227C361.768 214.132 360.223 214.654 359.035 215.683C357.846 216.712 357.108 218.166 356.978 219.732C356.849 221.298 357.339 222.853 358.342 224.063H358.335Z" fill="black"/>
<path opacity="0.25" d="M354.566 248.148C356.282 250.991 366.414 256.124 366.414 256.124C366.414 256.124 366.58 244.768 364.865 241.929C364.456 241.254 363.918 240.665 363.282 240.197C362.646 239.729 361.923 239.39 361.156 239.201C360.389 239.012 359.592 238.976 358.811 239.095C358.03 239.213 357.28 239.485 356.604 239.893C355.928 240.301 355.338 240.839 354.87 241.475C354.402 242.11 354.063 242.832 353.874 243.599C353.685 244.366 353.649 245.162 353.767 245.943C353.886 246.723 354.157 247.473 354.566 248.148Z" fill="black"/>
<path opacity="0.25" d="M389.624 211.863C386.541 213.093 375.36 211.087 375.36 211.087C375.36 211.087 382.072 201.931 385.159 200.697C386.64 200.105 388.297 200.126 389.763 200.754C391.229 201.383 392.386 202.568 392.978 204.049C393.57 205.529 393.55 207.185 392.921 208.65C392.292 210.116 391.106 211.271 389.624 211.863Z" fill="black"/>
<path opacity="0.25" d="M384.859 239.976C381.549 240.23 371.482 234.972 371.482 234.972C371.482 234.972 380.625 228.238 383.939 227.985C385.511 227.897 387.055 228.429 388.239 229.465C389.424 230.502 390.154 231.961 390.275 233.53C390.395 235.099 389.896 236.652 388.883 237.857C387.871 239.062 386.426 239.823 384.859 239.976Z" fill="black"/>
<path opacity="0.25" d="M376.477 266.662C373.254 267.472 362.444 263.99 362.444 263.99C362.444 263.99 370.319 255.81 373.542 255.003C374.308 254.811 375.104 254.771 375.886 254.886C376.667 255.001 377.418 255.269 378.096 255.674C378.774 256.079 379.366 256.613 379.837 257.247C380.308 257.88 380.65 258.6 380.843 259.366C381.035 260.131 381.075 260.927 380.96 261.708C380.845 262.489 380.577 263.24 380.172 263.917C379.767 264.595 379.232 265.186 378.598 265.657C377.964 266.128 377.243 266.469 376.477 266.662Z" fill="black"/>
<path d="M355.051 274.997C355.051 274.997 380.163 262.036 388.03 241.407C391.273 232.731 397.246 225.342 405.051 220.35C408.774 218.006 412.705 216.01 416.793 214.384" stroke="#535461" stroke-width="2" stroke-miterlimit="10"/>
<path d="M421.826 201.412C419.425 203.71 416.618 214.71 416.618 214.71C416.618 214.71 427.739 212.397 430.14 210.103C431.295 209.001 431.965 207.486 432.003 205.891C432.04 204.295 431.442 202.75 430.339 201.596C429.237 200.441 427.72 199.772 426.124 199.735C424.528 199.697 422.982 200.295 421.826 201.397V201.412Z" fill="#6C63FF"/>
<path d="M401.654 206.942C400.896 210.175 404.513 220.948 404.513 220.948C404.513 220.948 412.577 212.972 413.357 209.721C413.72 208.172 413.453 206.543 412.616 205.19C411.779 203.837 410.439 202.871 408.891 202.504C407.342 202.136 405.711 202.397 404.355 203.229C402.998 204.061 402.027 205.396 401.654 206.942Z" fill="#6C63FF"/>
<path d="M379.223 228.98C380.193 232.156 388.761 239.613 388.761 239.613C388.761 239.613 391.704 228.636 390.734 225.475C390.504 224.72 390.127 224.017 389.625 223.407C389.123 222.797 388.506 222.293 387.808 221.921C387.111 221.55 386.347 221.319 385.561 221.243C384.775 221.167 383.981 221.246 383.225 221.476C382.469 221.706 381.766 222.083 381.156 222.584C380.546 223.086 380.041 223.703 379.669 224.4C379.297 225.096 379.067 225.86 378.99 226.646C378.914 227.431 378.993 228.225 379.223 228.98Z" fill="#6C63FF"/>
<path d="M366.012 249.473C366.429 252.77 373.61 261.563 373.61 261.563C373.61 261.563 378.367 251.256 377.947 247.959C377.746 246.378 376.925 244.94 375.663 243.964C374.402 242.988 372.805 242.552 371.222 242.753C369.639 242.953 368.201 243.774 367.224 245.035C366.247 246.295 365.811 247.892 366.012 249.473Z" fill="#6C63FF"/>
<path d="M412.778 230.498C409.456 230.377 400.051 224.014 400.051 224.014C400.051 224.014 409.899 218.362 413.221 218.484C414.01 218.513 414.786 218.697 415.504 219.026C416.223 219.354 416.869 219.821 417.407 220.4C417.944 220.978 418.362 221.657 418.638 222.397C418.913 223.136 419.039 223.923 419.01 224.712C418.981 225.501 418.797 226.276 418.468 226.994C418.139 227.712 417.672 228.358 417.093 228.895C416.514 229.432 415.835 229.85 415.095 230.125C414.355 230.4 413.567 230.527 412.778 230.498Z" fill="#6C63FF"/>
<path d="M397.021 254.269C393.889 253.16 386.818 244.276 386.818 244.276C386.818 244.276 397.911 241.827 401.04 242.936C401.785 243.2 402.47 243.608 403.057 244.136C403.644 244.664 404.121 245.303 404.461 246.016C404.801 246.728 404.997 247.501 405.038 248.289C405.079 249.078 404.965 249.867 404.701 250.611C404.437 251.355 404.029 252.04 403.5 252.626C402.971 253.213 402.332 253.69 401.619 254.029C400.906 254.369 400.133 254.565 399.344 254.606C398.555 254.647 397.766 254.533 397.021 254.269Z" fill="#6C63FF"/>
<path d="M378.534 275.273C375.262 274.709 366.792 267.147 366.792 267.147C366.792 267.147 377.311 262.862 380.583 263.426C382.155 263.697 383.555 264.581 384.475 265.883C385.395 267.186 385.759 268.8 385.488 270.372C385.217 271.943 384.332 273.342 383.029 274.261C381.725 275.18 380.11 275.545 378.538 275.273H378.534Z" fill="#6C63FF"/>
<path d="M390.757 262.831L371.292 234.62C371.292 234.62 370.913 227.636 369.656 226.005C368.398 224.373 369.383 220.743 369.383 220.743C369.383 220.743 370.747 218.749 369.565 218.567C368.383 218.385 369.383 213.938 369.383 213.938L369.292 206.863C369.292 206.863 370.383 200.05 369.474 198.429C369.208 197.988 369.075 197.479 369.091 196.964C369.107 196.449 369.272 195.95 369.565 195.526C369.565 195.526 370.656 191.624 369.565 190.628C368.474 189.633 368.747 183.55 369.02 178.743C369.292 173.935 367.107 171.214 367.107 170.487C367.107 169.76 359.91 162.686 359.91 162.053C359.91 161.421 355.365 158.787 352.634 158.06C349.903 157.333 348.54 156.792 348.631 156.429C348.722 156.065 344.355 154.615 344.355 154.615C344.355 154.615 340.533 154.343 339.075 152.435C337.616 150.527 333.17 149.982 333.041 149.963C333.014 149.838 332.984 149.71 332.958 149.585C332.931 149.46 332.901 149.312 332.874 149.176C333.219 148.597 333.537 148.006 333.825 147.397C333.912 147.212 333.995 147.018 334.075 146.844C335.67 146.772 337.306 146.432 338.556 145.455C339.198 144.918 339.723 144.255 340.097 143.507C340.472 142.759 340.689 141.941 340.734 141.106C340.811 139.429 340.444 137.762 339.669 136.272C338.874 134.637 337.704 132.945 338.105 131.173C338.283 130.416 338.741 129.735 338.976 128.986C339.419 127.566 339.01 126.007 338.321 124.689C337.632 123.372 336.673 122.214 335.908 120.938C334.931 119.313 334.279 117.513 333.988 115.639C333.833 114.655 333.772 113.618 333.276 112.751C332.865 112.108 332.321 111.559 331.681 111.142C328.835 109.108 325.399 108.066 321.902 108.178C319.425 108.265 316.955 108.935 314.497 108.629C313.016 108.447 311.603 107.921 310.171 107.493C307.119 106.592 303.6 106.221 300.941 107.966C298.282 109.711 297.225 113.144 295.426 115.828C293.835 118.205 291.502 120.196 290.29 122.71C290.29 122.664 290.313 122.615 290.328 122.566C290.03 123.147 289.803 123.763 289.65 124.398C289.188 126.374 289.574 128.441 290.055 130.413C290.302 131.431 290.642 132.536 291.525 133.1C292.408 133.664 293.657 133.539 294.703 133.725C294.665 133.895 294.619 134.069 294.582 134.243C293.499 139.354 294.382 144.685 297.056 149.175C299.73 153.664 303.997 156.982 309.009 158.469C309.009 158.654 309.009 158.847 309.009 159.021C309.007 159.543 308.975 160.063 308.914 160.581C308.914 160.581 299.767 158.688 297.309 159.975C294.85 161.262 290.029 162.246 289.302 162.966C288.574 163.685 286.756 163.147 285.135 167.413C283.514 171.679 283.317 176.028 281.223 178.012C279.128 179.995 278.041 181.369 277.95 182.823C277.859 184.276 278.223 184.636 277.401 185.094C276.579 185.552 275.401 187.452 275.765 188.179C275.765 188.179 276.219 189.992 274.765 190.897C273.31 191.802 273.488 193.618 273.488 193.618C273.488 193.618 272.943 195.617 271.67 196.068C270.398 196.518 269.576 199.516 269.576 199.516L265.436 204.266L257.258 195.22C256.646 194.542 255.789 194.134 254.877 194.088C253.964 194.041 253.07 194.358 252.391 194.97L248.377 198.588C246.827 198.964 245.426 199.798 244.358 200.981C243.483 201.879 242.778 202.928 242.278 204.077L240.078 206.053C239.386 206.91 238.964 207.952 238.863 209.049C238.763 210.145 238.989 211.247 239.514 212.215L244.752 218.003L244.786 218.052C242.805 218.302 241.055 218.938 239.718 220.115C231.897 227.008 231.802 233.363 232.987 236.259C234.173 239.155 244.085 250.321 244.085 250.321C244.085 250.321 249.846 257.805 258.164 261.787L258.099 261.851C257.936 262.025 257.774 262.23 257.614 262.419L257.478 262.593L257.353 262.767L257.205 262.987C257.164 263.043 257.126 263.104 257.088 263.165C257.05 263.225 256.982 263.335 256.933 263.426L256.83 263.6C256.77 263.713 256.705 263.831 256.645 263.952L256.584 264.069C256.509 264.228 256.433 264.391 256.361 264.561C256.334 264.622 256.312 264.686 256.285 264.747C256.24 264.864 256.19 264.985 256.145 265.125C256.099 265.265 256.088 265.28 256.062 265.36C256.035 265.439 255.982 265.595 255.944 265.716C255.906 265.837 255.891 265.886 255.868 265.969C255.846 266.053 255.793 266.234 255.759 266.371C255.724 266.507 255.717 266.53 255.694 266.617C255.645 266.825 255.596 267.041 255.554 267.268C255.554 267.351 255.524 267.438 255.509 267.525C255.478 267.677 255.452 267.832 255.429 267.991C255.41 268.1 255.399 268.21 255.384 268.32C255.368 268.43 255.346 268.619 255.327 268.77L255.293 269.119C255.293 269.285 255.262 269.459 255.251 269.633C255.251 269.739 255.251 269.845 255.232 269.951C255.232 270.239 255.202 270.527 255.198 270.83C255.016 281.428 255.637 282.984 255.637 282.984C255.637 282.984 256.921 286.364 260.467 286.606C260.987 286.645 261.51 286.617 262.023 286.523C266.754 285.706 277.852 283.802 281.764 284.528C284.116 284.964 288.472 284.32 291.574 283.733L292.389 283.578L292.957 285.38L294.756 284.888L296.271 285.77L297.237 286.323C299.032 292.409 306.327 290.335 306.327 290.335L308.039 291.327L325.598 291.781C325.598 291.781 329.386 294.052 331.814 294.764C332.102 294.851 332.398 294.915 332.696 294.957C334.324 295.087 335.958 295.118 337.59 295.048C338.935 295.013 339.976 294.957 339.976 294.957C339.976 294.957 339.798 290.191 339.541 284.858C346.252 284.578 352.203 284.157 355.805 283.525C365.183 281.879 369.095 273.358 370.535 268.805C370.967 270.666 371.275 272.554 371.455 274.456C371.837 276.118 372.324 277.754 372.913 279.354C373.425 280.642 374.097 281.86 374.913 282.98C381.829 280.622 377.644 277.087 376.186 275.542C374.727 273.998 377.189 272.73 377.189 272.73C377.189 272.73 379.083 271.462 378.917 270.281C378.75 269.1 378.644 267.832 384.829 267.923C391.014 268.013 390.757 262.831 390.757 262.831ZM294.68 204.917C294.76 205.436 295.623 211.027 296.403 212.488C296.566 212.798 296.631 213.9 296.608 215.474C292.942 215.183 289.124 215.028 289.124 215.028C289.234 215.16 289.302 215.322 289.321 215.493L288.745 215.365L287.908 215.16L294.661 204.895L294.68 204.917ZM281.302 226.19L287.646 227.197L288.181 227.281C287.999 228.269 287.889 229.27 287.851 230.275C287.851 230.369 287.995 230.483 288.199 230.615C288.111 231.115 288.069 231.622 288.074 232.129C288.177 232.633 291.142 233.715 294.544 234.616C294.498 234.798 294.453 234.972 294.407 235.135C291.404 233.556 286.669 232.818 286.124 231.645C285.578 230.471 269.458 224.831 269.458 224.831C269.458 224.831 268.871 224.521 267.856 224.029L272.098 224.831L273.265 224.714C275.91 225.375 278.594 225.866 281.302 226.183V226.19Z" fill="url(#paint0_linear)"/>
<path d="M370.046 266.779C370.046 266.779 367.523 282.007 354.717 284.26C341.912 286.512 299.168 286.061 299.168 286.061C299.168 286.061 274.731 282.549 265.894 261.912C257.058 241.274 251.376 233.072 258.952 232.712C266.527 232.353 307.376 246.502 309.706 246.68C312.035 246.858 372.3 215.319 370.046 266.779Z" fill="#434175"/>
<path opacity="0.05" d="M370.046 266.779C370.046 266.779 367.523 282.007 354.717 284.26C341.912 286.512 299.168 286.061 299.168 286.061C299.168 286.061 274.731 282.549 265.894 261.912C257.058 241.274 251.376 233.072 258.952 232.712C266.527 232.353 307.376 246.502 309.706 246.68C312.035 246.858 372.3 215.319 370.046 266.779Z" fill="black"/>
<path d="M255.418 283.718C255.418 283.718 256.694 287.08 260.205 287.318C260.721 287.354 261.238 287.326 261.747 287.235C266.436 286.425 277.439 284.532 281.314 285.251C283.647 285.687 287.961 285.043 291.033 284.464C293.078 284.085 294.57 283.707 294.57 283.707C294.57 283.707 290.964 271.723 290.51 271.363C290.055 271.004 274.28 261.541 274.28 261.541L261.781 260.644H261.743C261.743 260.644 259.429 260.799 257.508 263.13C256.187 264.724 255.054 267.343 254.978 271.636C254.804 282.185 255.418 283.718 255.418 283.718Z" fill="#565387"/>
<path opacity="0.05" d="M255.418 283.718C255.418 283.718 256.694 287.08 260.205 287.318C258.973 285.736 257.835 284.083 256.796 282.367L256.861 273.627C256.304 267.082 259.368 262.892 261.785 260.655H261.747C261.747 260.655 255.164 261.102 254.982 271.632C254.8 282.163 255.418 283.718 255.418 283.718Z" fill="black"/>
<path opacity="0.1" d="M309.63 264.614L321.262 255.53L339.567 237.504C339.567 237.504 337.59 237.41 334.609 237.281C333.852 237.754 331.787 239.242 331.712 241.066C331.621 243.269 326.761 241.218 324.239 242.478C321.716 243.739 309.361 259.542 307.194 259.44C305.028 259.338 303.32 258.342 302.414 259.875C302.414 259.909 302.373 259.94 302.35 259.974L309.63 264.614Z" fill="black"/>
<path opacity="0.1" d="M257.512 263.138C257.925 263.339 258.342 263.517 258.77 263.713C267.61 267.499 278.518 275.448 279.333 276.871C279.825 277.749 286.15 281.587 291.033 284.464C293.078 284.085 294.57 283.707 294.57 283.707C294.57 283.707 290.964 271.723 290.51 271.363C290.055 271.004 274.28 261.541 274.28 261.541L261.781 260.644H261.743C261.743 260.644 259.433 260.806 257.512 263.138Z" fill="black"/>
<path d="M232.984 237.308C234.154 240.192 243.968 251.279 243.968 251.279C243.968 251.279 250.187 259.387 259.027 263.172C267.868 266.957 278.776 274.906 279.586 276.33C280.109 277.257 287.162 281.496 292.116 284.411L293.226 285.058L295.688 286.485L296.991 287.242C296.991 287.242 300.021 284.82 303.017 282.382C306.013 279.944 308.937 277.556 308.986 277.42C309.073 277.151 310.243 274.085 309.974 273.907C309.834 273.812 309.217 272.563 308.081 271.117C306.868 269.512 305.294 268.216 303.486 267.332C299.32 265.439 297.536 261.132 297.536 261.132C297.536 261.132 297.157 260.844 296.54 260.466C295.472 259.792 293.756 258.823 292.487 258.66C290.499 258.41 286.806 254.356 286.806 254.356C286.806 254.356 284.279 252.732 283.287 250.662C282.34 248.686 268.356 239.087 267.061 238.201L300.964 259.958L309.077 265.171L320.709 256.086L339.018 238.061C339.018 238.061 336.556 237.94 332.958 237.788C324.061 237.41 308.259 236.8 306.263 237.251C304.638 237.629 302.961 237.738 301.301 237.573C301.301 237.573 296.801 237.777 293.824 236.206C290.847 234.635 286.154 233.901 285.613 232.739C285.071 231.577 269.11 225.982 269.11 225.982C269.11 225.982 247.38 214.449 239.623 221.3C231.866 228.151 231.81 234.427 232.984 237.308Z" fill="#434175"/>
<path d="M303.047 171.164L305.842 180.446L309.448 201.352L322.705 202.253L326.541 195.893L330.386 189.546C330.386 189.546 332.772 181.097 334.488 172.925C336.003 165.695 336.995 158.677 335.344 157.916C333.882 157.239 332.92 154.805 332.314 152.185C332.234 151.864 332.162 151.534 332.094 151.205C331.652 148.987 331.359 146.743 331.215 144.486C331.215 144.486 303.441 143.048 307.319 154.491C308.011 156.445 308.365 158.504 308.365 160.577C308.361 161.095 308.329 161.611 308.27 162.125C308.073 163.911 307.507 165.637 306.607 167.193C305.708 168.748 304.496 170.101 303.047 171.164Z" fill="#EE8E9E"/>
<path d="M297.275 169.631L298.267 185.401L300.521 198.827L303.047 205.046L305.301 239.068C305.301 239.068 327.045 241.581 332.333 239.022C332.714 238.86 333.045 238.598 333.291 238.265C339.677 228.639 337.582 200.72 337.582 200.72L340.018 182.691L338.393 173.333L334.473 172.917L331.443 172.595C331.443 172.595 330.761 173.436 329.776 174.734C327.102 178.262 322.201 185.2 322.515 188.096C322.962 192.063 321.974 196.117 320.44 196.749C318.906 197.381 317.644 198.46 317.375 197.381C317.107 196.302 316.834 196.03 317.103 194.497C317.372 192.964 315.929 188.278 315.929 188.278C315.929 188.278 313.497 182.781 313.656 180.438C313.815 178.095 313.387 175.389 312.664 174.76C311.94 174.132 310.952 173.496 311.762 170.597C312.573 167.697 308.206 162.099 308.206 162.099L297.275 169.631Z" fill="#E3E8F4"/>
<path opacity="0.1" d="M325.996 209.017L326.898 235.964L332.105 238.848C332.487 238.685 332.817 238.424 333.064 238.091C339.453 228.45 337.359 200.534 337.359 200.534L339.794 182.509L338.169 173.155L334.245 172.739C335.761 165.509 336.753 158.491 335.105 157.731C333.639 157.053 332.677 154.619 332.052 152L329.25 171.077C329.25 171.077 329.484 172.796 329.568 174.567C329.632 175.885 329.609 177.217 329.341 177.925C328.708 179.549 329.159 182.433 329.159 182.433C327.534 185.295 326.723 190.598 326.326 195.719C325.792 202.529 325.996 209.017 325.996 209.017Z" fill="black"/>
<path d="M332.14 151.583C332.14 151.583 336.685 152.147 338.124 154.04C339.563 155.933 343.355 156.194 343.355 156.194C343.355 156.194 347.684 157.636 347.593 157.996C347.502 158.355 348.854 158.9 351.562 159.619C354.271 160.339 358.759 162.954 358.759 163.586C358.759 164.218 365.883 171.244 365.883 171.967C365.883 172.69 368.05 175.374 367.777 180.166C367.505 184.958 367.236 190.98 368.319 191.972C369.402 192.964 368.319 196.84 368.319 196.84C368.032 197.264 367.873 197.761 367.863 198.273C367.853 198.785 367.992 199.289 368.262 199.724C369.164 201.348 368.084 208.108 368.084 208.108L368.171 215.137C368.171 215.137 367.179 219.551 368.353 219.733C369.527 219.914 368.171 221.894 368.171 221.894C368.171 221.894 367.179 225.501 368.444 227.121C369.709 228.742 370.065 235.684 370.065 235.684L389.382 263.694C389.382 263.694 389.655 268.831 383.522 268.74C377.39 268.649 377.462 269.914 377.659 271.083C377.856 272.253 375.947 273.517 375.947 273.517C375.947 273.517 373.512 274.778 374.955 276.311C376.398 277.844 380.545 281.356 373.694 283.699C372.883 282.587 372.216 281.376 371.709 280.096C371.127 278.506 370.645 276.881 370.266 275.232C370.266 275.232 369.633 268.381 368.372 267.48C367.111 266.579 367.289 262.252 367.289 262.252C367.289 262.252 369.092 258.74 366.569 257.297C364.046 255.855 327.394 235.597 327.394 235.597L326.492 208.65C326.492 208.65 325.86 188.735 329.647 182.066C329.647 182.066 329.197 179.182 329.829 177.561C330.462 175.941 329.738 170.71 329.738 170.71L332.14 151.583Z" fill="#565387"/>
<path opacity="0.1" d="M308.505 162.394C308.505 162.394 299.441 160.528 297.006 161.788C294.57 163.049 289.809 164.06 289.052 164.764C288.294 165.468 286.525 164.945 284.904 169.181C283.283 173.417 283.098 177.739 281.026 179.723C278.954 181.706 277.871 183.058 277.78 184.5C277.689 185.942 278.049 186.302 277.238 186.771C276.428 187.24 275.253 189.114 275.613 189.837C275.973 190.56 294.404 206.397 294.404 206.397C294.404 206.397 295.309 212.454 296.119 213.968C296.93 215.482 295.218 236.588 293.415 238.031C291.612 239.473 305.588 239.34 305.588 239.34C305.588 239.34 306.217 225.505 306.759 224.782C307.3 224.059 306.38 209.263 306.38 209.263C306.38 209.263 306.289 196.647 307.463 193.312C308.637 189.977 308.505 178.905 308.505 178.905C308.505 178.905 309.543 172.255 310.804 170.703C312.065 169.151 308.505 162.394 308.505 162.394Z" fill="black"/>
<path d="M308.236 162.125C308.236 162.125 299.168 160.259 296.733 161.52C294.298 162.78 289.537 163.772 288.798 164.495C288.059 165.218 286.275 164.673 284.632 168.908C282.988 173.144 282.829 177.471 280.753 179.454C278.677 181.438 277.598 182.789 277.507 184.231C277.416 185.673 277.78 186.033 276.969 186.483C276.159 186.934 274.984 188.826 275.344 189.546C275.704 190.265 294.101 206.129 294.101 206.129C294.101 206.129 295.002 212.185 295.813 213.699C296.623 215.213 294.911 236.316 293.108 237.758C291.305 239.2 305.282 239.068 305.282 239.068C305.282 239.068 305.914 225.233 306.456 224.514C306.997 223.794 306.077 208.994 306.077 208.994C306.077 208.994 305.99 196.378 307.16 193.043C308.331 189.708 308.202 178.621 308.202 178.621C308.202 178.621 309.24 171.971 310.497 170.423C311.755 168.874 308.236 162.125 308.236 162.125Z" fill="#565387"/>
<path opacity="0.1" d="M307.281 154.491C307.974 156.445 308.327 158.504 308.327 160.577C312.761 161.89 317.508 161.68 321.809 159.981C326.11 158.283 329.718 155.193 332.056 151.205C331.614 148.987 331.321 146.743 331.178 144.486C331.178 144.486 303.407 143.048 307.281 154.491Z" fill="black"/>
<path d="M293.578 140.25C293.583 145.537 295.617 150.62 299.262 154.451C302.906 158.283 307.883 160.57 313.166 160.842C318.449 161.114 323.635 159.349 327.654 155.912C331.673 152.475 334.219 147.628 334.767 142.37C335.315 137.112 333.823 131.844 330.599 127.653C327.374 123.462 322.664 120.668 317.438 119.846C312.213 119.024 306.871 120.238 302.515 123.236C298.158 126.235 295.119 130.79 294.025 135.962C293.726 137.372 293.577 138.809 293.578 140.25Z" fill="#EE8E9E"/>
<path d="M280.321 188.012L275.363 189.545C275.363 189.545 275.814 191.347 274.371 192.248C272.928 193.149 273.11 194.955 273.11 194.955C273.11 194.955 272.568 196.934 271.307 197.385C270.045 197.835 269.231 200.791 269.231 200.791L265.084 205.568C265.084 205.568 263.55 206.829 263.822 207.461C264.095 208.093 262.198 208.271 262.198 208.271L263.19 224.328L271.757 225.952L277.06 225.411L281.389 223.787L285.177 221.516L286.904 217.136L294.479 205.602L280.321 188.012Z" fill="#565387"/>
<path d="M263.459 209.566C263.459 209.566 252.475 193.702 244.252 202.264C236.029 210.826 247.589 224.703 250.293 224.252C252.997 223.802 265.894 223.083 265.894 223.083L263.459 209.566Z" fill="#EE8E9E"/>
<path d="M250.888 198.512L240.713 207.685C238.752 209.452 238.597 212.473 240.365 214.432L251.669 226.956C253.437 228.915 256.46 229.071 258.42 227.304L268.596 218.131C270.556 216.364 270.712 213.344 268.944 211.385L257.639 198.86C255.871 196.901 252.849 196.745 250.888 198.512Z" fill="#30374E"/>
<path opacity="0.1" d="M250.888 198.512L240.713 207.685C238.752 209.452 238.597 212.473 240.365 214.432L251.669 226.956C253.437 228.915 256.46 229.071 258.42 227.304L268.596 218.131C270.556 216.364 270.712 213.344 268.944 211.385L257.639 198.86C255.871 196.901 252.849 196.745 250.888 198.512Z" fill="black"/>
<path d="M251.198 197.206L241.022 206.379C239.062 208.146 238.906 211.166 240.675 213.125L251.979 225.65C253.747 227.609 256.769 227.765 258.73 225.998L268.905 216.825C270.866 215.058 271.022 212.037 269.253 210.078L257.949 197.554C256.181 195.595 253.158 195.439 251.198 197.206Z" fill="#30374E"/>
<path d="M254.675 217.39C257.514 217.39 259.815 215.09 259.815 212.253C259.815 209.416 257.514 207.117 254.675 207.117C251.837 207.117 249.536 209.416 249.536 212.253C249.536 215.09 251.837 217.39 254.675 217.39Z" fill="#6C63FF"/>
<path opacity="0.1" d="M254.675 217.39C257.514 217.39 259.815 215.09 259.815 212.253C259.815 209.416 257.514 207.117 254.675 207.117C251.837 207.117 249.536 209.416 249.536 212.253C249.536 215.09 251.837 217.39 254.675 217.39Z" fill="black"/>
<path d="M254.963 216.739C257.802 216.739 260.103 214.439 260.103 211.602C260.103 208.765 257.802 206.466 254.963 206.466C252.125 206.466 249.823 208.765 249.823 211.602C249.823 214.439 252.125 216.739 254.963 216.739Z" fill="#6C63FF"/>
<path d="M256.338 212.885C256.247 224.782 280.867 227.303 280.867 227.303L287.154 228.302L289.972 228.749L291.146 217.136C291.146 217.136 289.855 216.943 288.241 216.568C285.859 216.012 282.772 215.054 282.124 213.71C281.045 211.458 256.425 200.992 256.338 212.885Z" fill="#EE8E9E"/>
<path opacity="0.1" d="M294.025 135.962C294.593 136.004 295.129 136.242 295.54 136.636C296.237 137.374 296.275 138.683 297.18 139.138C297.518 139.285 297.893 139.328 298.256 139.262C300.653 138.922 302.043 136.234 304.342 135.477C305.653 135.053 307.096 135.33 308.376 135.822C308.891 135.983 309.353 136.28 309.713 136.681C310.471 137.676 309.944 139.141 310.3 140.349C310.796 142.022 312.796 142.688 314.527 142.908C316.258 143.127 318.209 143.248 319.364 144.554C320.182 145.482 320.39 146.825 320.224 148.04C320.122 148.465 320.122 148.907 320.224 149.331C320.701 150.683 323.042 150.467 323.652 149.414C324.098 148.639 323.962 147.995 325.015 147.779C325.727 147.632 326.564 147.931 327.223 148.158C329.059 148.791 330.994 149.088 332.935 149.036C334.162 146.403 334.82 143.541 334.865 140.637C334.909 137.732 334.34 134.851 333.194 132.182C332.049 129.513 330.352 127.115 328.215 125.146C326.079 123.177 323.55 121.68 320.795 120.755C318.04 119.829 315.121 119.495 312.228 119.774C309.335 120.053 306.534 120.939 304.007 122.375C301.48 123.81 299.285 125.762 297.565 128.103C295.845 130.445 294.638 133.123 294.025 135.962Z" fill="black"/>
<path d="M320.212 148.786C320.11 148.362 320.11 147.92 320.212 147.495C320.375 146.273 320.171 144.933 319.353 144.009C318.216 142.703 316.247 142.578 314.516 142.363C312.785 142.147 310.785 141.481 310.289 139.808C309.933 138.6 310.471 137.131 309.702 136.136C309.344 135.735 308.883 135.439 308.369 135.28C307.085 134.785 305.641 134.523 304.331 134.932C302.032 135.689 300.642 138.384 298.244 138.717C297.881 138.783 297.507 138.74 297.169 138.592C296.263 138.138 296.225 136.829 295.529 136.094C294.434 134.936 292.355 135.682 291.014 134.822C290.139 134.258 289.802 133.164 289.559 132.154C289.082 130.193 288.7 128.138 289.158 126.177C289.942 122.823 292.945 120.526 294.839 117.664C296.623 114.995 297.623 111.608 300.305 109.851C302.986 108.095 306.429 108.485 309.452 109.382C310.868 109.802 312.27 110.324 313.736 110.517C316.175 110.816 318.622 110.139 321.076 110.071C324.543 109.959 327.949 110.993 330.768 113.012C331.404 113.428 331.943 113.973 332.352 114.613C332.84 115.476 332.905 116.506 333.052 117.482C333.339 119.345 333.982 121.135 334.946 122.755C335.704 124.023 336.654 125.174 337.34 126.484C338.026 127.793 338.427 129.341 337.988 130.749C337.757 131.507 337.298 132.161 337.128 132.922C336.726 134.682 337.885 136.363 338.677 137.987C339.444 139.468 339.807 141.125 339.73 142.79C339.686 143.62 339.471 144.431 339.1 145.174C338.728 145.917 338.208 146.576 337.571 147.109C336.295 148.109 334.617 148.442 332.999 148.495C331.02 148.561 329.046 148.265 327.174 147.62C326.511 147.393 325.659 147.094 324.966 147.242C323.913 147.458 324.049 148.101 323.602 148.877C323.027 149.937 320.69 150.137 320.212 148.786Z" fill="#434175"/>
<path opacity="0.1" d="M309.088 265.156L320.72 256.071L339.029 238.046C339.029 238.046 336.567 237.925 332.969 237.773C332.314 238.439 331.731 239.287 331.693 240.234C331.602 242.437 326.742 240.389 324.22 241.649C321.697 242.91 309.342 258.709 307.175 258.607C305.009 258.505 303.301 257.509 302.395 259.042C302.376 259.078 302.355 259.112 302.331 259.145C301.971 259.555 301.489 259.84 300.956 259.958L309.088 265.156Z" fill="black"/>
<path d="M285.643 264.523L291.487 283.169L292.404 286.099L295.188 285.342L301.324 283.658L328.655 276.155C328.655 276.155 333.791 276.087 338.503 273.532C343.711 270.701 349.585 269.278 355.486 269.83C359.1 270.167 363.118 268.611 366.47 262.457C366.47 262.457 374.046 240.124 354.926 233.689C335.806 227.254 334.897 237.096 334.897 237.096C334.897 237.096 334.798 237.149 334.639 237.255C333.882 237.728 331.818 239.215 331.742 241.04C331.651 243.243 326.791 241.191 324.269 242.452C321.746 243.712 309.391 259.516 307.225 259.413C305.058 259.311 303.35 258.316 302.445 259.849C302.445 259.883 302.403 259.913 302.38 259.947C301.714 260.867 299.706 261.083 298.377 261.117C297.653 261.139 297.127 261.117 297.127 261.117L296.956 261.17L295.54 261.563L285.643 264.523Z" fill="#434175"/>
<path opacity="0.1" d="M287.154 228.302L289.972 228.749L291.146 217.136C291.146 217.136 289.855 216.943 288.241 216.568C288.669 218.177 287.699 224.449 287.154 228.302Z" fill="black"/>
<path opacity="0.1" d="M360.891 173.984C360.891 173.984 369.277 171.551 367.202 195.344C365.126 219.138 349.619 234.17 349.619 234.17C349.619 234.17 331.765 242.009 323.739 240.748C315.713 239.488 309.853 239.234 309.853 239.234C307.327 237.958 304.563 237.222 301.736 237.073C297.225 236.891 287.76 234.098 287.578 233.197C287.396 232.296 289.923 219.048 288.84 218.056C288.84 218.056 301.464 218.574 302.729 219.487C303.994 220.399 305.793 219.744 307.145 219.487C308.497 219.229 312.649 215.622 320.852 218.779C320.852 218.779 323.648 219.048 324.731 218.328C325.814 217.609 327.549 218.147 327.549 218.147C327.549 218.147 329.25 217.515 329.511 217.136C329.772 216.758 331.943 217.136 331.943 217.136C332.071 217.199 332.213 217.232 332.356 217.234C332.5 217.235 332.642 217.204 332.772 217.144C332.902 217.083 333.016 216.994 333.108 216.883C333.199 216.773 333.264 216.643 333.299 216.504C333.582 215.766 334.011 215.093 334.56 214.524C334.56 214.524 336.995 200.826 341.593 195.689C341.593 195.689 342.946 194.516 342.586 193.073C342.226 191.631 350.081 171.096 360.891 173.984Z" fill="black"/>
<path d="M360.687 172.152C360.687 172.152 369.073 169.719 367.001 193.513C364.929 217.306 349.396 232.353 349.396 232.353C349.396 232.353 331.541 240.192 323.515 238.932C315.489 237.671 309.63 237.398 309.63 237.398C307.104 236.122 304.34 235.386 301.513 235.237C297.006 235.055 287.537 232.262 287.355 231.361C287.173 230.46 289.699 217.212 288.62 216.22C288.62 216.22 301.244 216.739 302.505 217.651C303.767 218.563 305.573 217.908 306.925 217.651C308.278 217.394 312.425 213.79 320.633 216.943C320.633 216.943 323.428 217.212 324.508 216.493C325.587 215.773 327.329 216.311 327.329 216.311C327.329 216.311 329.019 215.679 329.288 215.319C329.556 214.96 331.723 215.319 331.723 215.319C331.851 215.382 331.992 215.416 332.135 215.417C332.278 215.419 332.42 215.388 332.549 215.328C332.679 215.268 332.793 215.179 332.884 215.069C332.975 214.959 333.041 214.83 333.075 214.691C333.358 213.952 333.787 213.277 334.336 212.707C334.336 212.707 336.772 199.009 341.37 193.872C341.37 193.872 342.722 192.699 342.362 191.26C342.003 189.822 349.847 169.268 360.687 172.152Z" fill="#565387"/>
<path opacity="0.1" d="M295.54 261.563L307.448 275.947C307.494 275.906 307.524 275.875 307.524 275.864C307.615 275.591 308.785 272.529 308.516 272.347C308.247 272.166 306.172 267.661 302.024 265.769C299.49 264.633 297.831 262.555 296.926 261.132L295.54 261.563Z" fill="black"/>
<path opacity="0.1" d="M295.703 286.485L297.006 287.242C297.006 287.242 300.036 284.82 303.032 282.382C306.028 279.944 308.952 277.556 309.001 277.42C309.088 277.151 310.259 274.085 309.99 273.907C309.849 273.812 309.232 272.563 308.096 271.117C300.021 268.846 305.16 274.46 305.846 274.717C305.846 274.717 295.998 272.446 295.475 283.162C295.404 284.275 295.48 285.392 295.703 286.485Z" fill="black"/>
<path d="M305.66 291.02L307.376 292.012L324.799 292.462C324.799 292.462 328.534 294.733 330.958 295.422C331.243 295.511 331.536 295.576 331.833 295.615C333.445 295.746 335.065 295.776 336.681 295.706C338.014 295.672 339.048 295.615 339.048 295.615C339.048 295.615 338.222 273.661 337.601 271.39C337.306 270.285 335.848 270.527 334.408 271.079C333.327 271.518 332.284 272.046 331.291 272.658C331.291 272.658 323.898 273.373 322.724 274.009C321.549 274.645 318.216 273.631 316.141 274.009C314.065 274.388 310.372 271.568 310.372 271.568C300.271 268.237 305.952 274.452 306.672 274.725C306.672 274.725 296.847 272.453 296.305 283.169C295.763 293.885 305.66 291.02 305.66 291.02Z" fill="#565387"/>
<path d="M330.822 282.549C331.011 287.091 334.552 292.727 336.662 295.706C337.995 295.672 339.029 295.615 339.029 295.615C339.029 295.615 338.204 273.661 337.582 271.39C337.287 270.285 335.829 270.527 334.389 271.079C332.658 274.335 330.67 278.888 330.822 282.549Z" fill="#565387"/>
<path opacity="0.1" d="M330.822 282.549C331.011 287.091 334.552 292.727 336.662 295.706C337.995 295.672 339.029 295.615 339.029 295.615C339.029 295.615 338.204 273.661 337.582 271.39C337.287 270.285 335.829 270.527 334.389 271.079C332.658 274.335 330.67 278.888 330.822 282.549Z" fill="black"/>
<path opacity="0.05" d="M327.844 283.151C329.041 287.534 329.03 292.451 330.939 295.422C331.225 295.511 331.517 295.576 331.814 295.615C333.426 295.746 335.046 295.776 336.662 295.706C337.995 295.672 339.029 295.615 339.029 295.615C339.029 295.615 338.204 273.661 337.582 271.39C337.287 270.285 335.829 270.527 334.389 271.079C333.308 271.518 332.265 272.046 331.272 272.658C331.272 272.658 326.314 277.541 327.844 283.151Z" fill="black"/>
<path opacity="0.1" d="M267.803 238.689C267.803 238.689 276.447 241.494 283.772 251.457L267.803 238.689Z" fill="black"/>
<g opacity="0.1">
<path opacity="0.1" d="M338.048 130.553C338.034 130.617 338.016 130.68 337.995 130.742C337.912 131.001 337.812 131.254 337.696 131.499C337.785 131.174 337.903 130.857 338.048 130.553Z" fill="black"/>
<path opacity="0.1" d="M289.143 126.181C289.292 125.549 289.518 124.938 289.813 124.36C289.768 124.515 289.718 124.67 289.68 124.829C289.222 126.79 289.605 128.845 290.082 130.806C290.328 131.817 290.661 132.911 291.536 133.475C292.881 134.334 294.945 133.585 296.051 134.743C296.748 135.481 296.786 136.791 297.695 137.245C298.033 137.392 298.408 137.436 298.771 137.37C301.164 137.029 302.558 134.342 304.857 133.585C306.168 133.161 307.607 133.437 308.891 133.933C309.405 134.091 309.866 134.387 310.224 134.788C310.982 135.784 310.455 137.252 310.812 138.456C311.308 140.129 313.308 140.795 315.038 141.011C316.769 141.227 318.72 141.352 319.875 142.662C320.693 143.585 320.902 144.933 320.735 146.148C320.635 146.572 320.635 147.014 320.735 147.439C321.212 148.79 323.553 148.574 324.144 147.522C324.591 146.746 324.458 146.102 325.511 145.887C326.22 145.739 327.057 146.038 327.716 146.265C329.588 146.91 331.562 147.206 333.541 147.139C335.158 147.083 336.84 146.761 338.113 145.754C338.694 145.291 339.172 144.71 339.514 144.051C339.217 145.252 338.54 146.325 337.582 147.109C336.31 148.109 334.632 148.442 333.011 148.495C331.033 148.562 329.06 148.265 327.189 147.62C326.526 147.393 325.674 147.094 324.981 147.242C323.928 147.457 324.061 148.101 323.617 148.877C323.004 149.944 320.667 150.145 320.186 148.794C320.086 148.369 320.086 147.927 320.186 147.503C320.353 146.28 320.148 144.94 319.33 144.017C318.171 142.711 316.22 142.586 314.489 142.37C312.758 142.154 310.758 141.488 310.266 139.815C309.906 138.608 310.448 137.139 309.679 136.143C309.319 135.743 308.857 135.447 308.342 135.288C307.058 134.792 305.619 134.531 304.308 134.94C302.005 135.697 300.615 138.392 298.221 138.725C297.858 138.791 297.484 138.747 297.146 138.6C296.237 138.146 296.199 136.836 295.502 136.102C294.407 134.943 292.332 135.689 290.991 134.83C290.112 134.266 289.779 133.172 289.533 132.161C289.063 130.197 288.68 128.141 289.143 126.181Z" fill="black"/>
</g>
<path opacity="0.1" d="M339.446 198.308C337.794 200.538 335.908 202.601 334.446 204.959C332.984 207.317 331.95 210.069 332.257 212.825C333.772 211.273 334.461 209.13 335.416 207.185C337.029 203.892 339.446 201.098 341.476 198.07C341.855 197.491 344.358 194.152 343.097 193.993C342.059 193.861 340.01 197.547 339.446 198.308Z" fill="black"/>
</g>
<defs>
<linearGradient id="paint0_linear" x1="311.596" y1="295.066" x2="311.596" y2="106.732" gradientUnits="userSpaceOnUse">
<stop stop-color="#808080" stop-opacity="0.25"/>
<stop offset="0.54" stop-color="#808080" stop-opacity="0.12"/>
<stop offset="1" stop-color="#808080" stop-opacity="0.1"/>
</linearGradient>
<clipPath id="clip0">
<rect width="432" height="298" fill="white"/>
</clipPath>
</defs>
</svg>
