<svg width="865" height="836" viewBox="0 0 865 836" fill="none" xmlns="http://www.w3.org/2000/svg">
<path opacity="0.1" d="M528.611 836C640.965 836 732.046 813.873 732.046 786.578C732.046 759.283 640.965 737.156 528.611 737.156C416.257 737.156 325.176 759.283 325.176 786.578C325.176 813.873 416.257 836 528.611 836Z" fill="#6C63FF"/>
<path d="M615.976 191.616C615.501 190.944 615.01 190.272 614.502 189.599C618.371 184.072 622.384 178.394 622.343 171.283C622.303 162.649 616.216 156.012 613.942 147.853C610.85 136.758 615.143 124.836 616.905 113.277C618.273 103.9 617.981 94.2589 616.051 85.0399C614.121 75.8209 610.601 67.2514 605.74 59.9419C603.954 57.2792 601.88 54.7072 599.213 53.6482C595.16 52.0445 590.859 54.2735 586.638 54.9291C572.71 57.0976 560.047 41.9886 546.055 43.3401C545.129 43.382 544.217 43.6384 543.364 44.0966C541.554 45.1859 540.569 47.5965 539.456 49.6641C535.107 57.733 527.81 61.7675 520.554 65.8524C519.642 66.1911 518.773 66.6939 517.975 67.3451C515.796 68.6261 513.65 69.9574 511.623 71.4704C497.912 81.6876 499.906 95.9898 507.987 104.815C506.385 114.73 498.376 123.454 499.746 133.651C500.835 141.64 507.443 147.076 508.716 155.024C509.453 159.643 508.292 164.041 506.674 168.408C491.336 172.876 474.004 181.117 472.65 195.641C470.296 220.917 463.216 290.733 463.216 290.733C463.216 290.733 454.998 346.651 486.162 320.164L485.762 321.657C480.142 343.076 476.306 365.172 474.316 387.59C474.004 390.929 473.363 393.551 472.21 394.408C471.793 394.721 472.618 395.215 474.42 395.831C474.22 396.769 473.996 397.707 473.804 398.655C470.379 415.003 468.191 431.723 467.268 448.591C466.389 463.531 464.752 478.384 462.367 493.061C454.982 539.84 462.367 599.853 462.367 599.853L478.481 695.389L481.236 711.718C483.056 714.252 485.281 716.273 487.764 717.649C488.844 723.502 489.593 729.444 490.006 735.431C490.047 736.097 490.087 736.772 490.119 737.448C489.149 737.599 488.217 738.013 487.387 738.663C486.557 739.312 485.849 740.182 485.313 741.21C479.57 751.377 486.114 759.517 463.984 779.86C458.258 785.115 455.503 789.896 454.798 793.981C454.045 798.348 455.679 801.888 458.602 804.279C459.101 804.684 459.62 805.047 460.156 805.368C460.428 805.53 460.695 805.684 460.957 805.832C461.24 805.98 461.531 806.118 461.83 806.246H461.878L462.735 806.589H462.799L463.72 806.891H463.8L464.665 807.123H464.777L465.73 807.325H465.835L466.7 807.456H466.868L467.837 807.547H467.965H468.83H469.03H470.007H470.136L471.001 807.486H471.233L472.21 807.365H472.322L473.195 807.204L473.435 807.153L474.404 806.921H474.501L475.382 806.649L475.63 806.568C475.95 806.458 476.263 806.347 476.583 806.215H476.639L477.528 805.822L477.768 805.711C478.081 805.56 478.385 805.409 478.689 805.237C493.458 797.098 523.814 775.745 523.814 775.745V775.059C523.814 774.969 523.814 774.868 523.814 774.767C523.814 774.666 523.814 774.595 523.814 774.505C523.814 774.414 523.814 774.293 523.814 774.172V773.859C523.814 773.718 523.814 773.577 523.814 773.425V773.093C523.814 772.931 523.814 772.77 523.814 772.598C523.814 772.427 523.814 772.023 523.814 771.711C523.725 762.946 523.005 742.491 519.801 743.288C518.704 743.56 517.959 745.497 517.198 747.726L516.822 746.818C513.698 739.223 509.173 726.192 508.732 713.453C511.255 711.153 513.592 708.544 515.708 705.667C515.708 705.667 514.058 696.922 512.657 687.693C511.439 679.695 510.406 671.344 510.782 668.035C511.583 660.915 500.939 605.995 500.939 605.995C500.939 605.995 502.036 593.892 504.247 577.119C508.54 544.48 516.99 494.049 529.596 479.788C529.893 479.465 530.181 479.142 530.477 478.86C530.477 478.86 539.504 480.877 546.888 544.964L549.027 573.498C549.647 581.401 550.717 589.238 552.23 596.948C553.688 604.543 555.25 617.252 554.289 634.459C553.352 651.282 552.951 671.081 552.783 684.98C552.655 695.46 552.655 702.59 552.655 702.59C554.183 704.216 555.833 705.652 557.581 706.877V716.207C557.563 718.188 556.944 720.086 555.851 721.512C554.688 723.161 553.841 725.125 553.376 727.251C551.942 730.499 550.733 735.774 550.228 744.256C548.626 771.721 547.769 768.665 547.769 768.665C546.828 771.634 546.203 774.748 545.911 777.924C545.863 778.519 545.839 779.114 545.823 779.719C545.823 779.81 545.823 779.911 545.823 780.002C545.823 780.277 545.823 780.55 545.823 780.818C545.823 780.953 545.823 781.088 545.823 781.222C545.823 781.356 545.836 781.558 545.863 781.827C545.863 782.009 545.882 782.19 545.919 782.372C545.919 782.503 545.919 782.634 545.967 782.755C546.015 782.876 546.039 783.239 546.087 783.481L546.151 783.794C546.207 784.046 546.264 784.288 546.328 784.53L546.392 784.752C546.456 784.974 546.528 785.189 546.608 785.398L546.68 785.589C546.776 785.831 546.88 786.073 547 786.305L547.096 786.497C547.218 786.728 547.349 786.95 547.489 787.163L547.593 787.314C547.748 787.538 547.914 787.75 548.09 787.949L548.146 788.01C548.326 788.209 548.516 788.394 548.714 788.565L548.802 788.645C549.019 788.823 549.244 788.985 549.475 789.13L549.611 789.22C549.872 789.371 550.14 789.502 550.412 789.614L550.548 789.664C550.848 789.789 551.153 789.893 551.462 789.977C551.782 790.057 552.118 790.128 552.471 790.168H552.615C552.967 790.168 553.336 790.239 553.72 790.239H553.936C554.329 790.239 554.737 790.239 555.154 790.239H555.354C555.803 790.239 556.275 790.138 556.764 790.047C573.992 787.021 582.201 785.004 581.376 772.76C580.88 765.407 579.494 754.726 578.469 747.393C577.949 743.672 576.994 740.069 575.633 736.702C575.676 736.13 575.716 735.542 575.754 734.937C576.05 729.894 576.034 723.842 574.817 719.878L575.193 710.972C579.457 709.606 583.31 706.7 586.278 702.611C586.278 702.611 586.398 696.014 586.758 687.26C587.303 673.744 588.36 655.095 590.378 647.692C593.662 635.487 590.378 592.773 590.378 592.773C590.378 592.773 578.068 519.547 589.578 488.018C599.709 460.21 599.621 432.383 589.874 405.312C590.066 405.121 590.24 404.905 590.395 404.666C590.395 404.666 587.936 402.649 588.793 379.239C589.417 361.386 585.269 342.929 583.266 335.223C586.398 336.915 589.608 338.37 592.877 339.58C611.707 346.651 613.349 320.164 613.349 320.164L617.45 280.496L622.319 221.421C623.649 216.781 625.435 205.182 615.976 191.616ZM532.568 152.432C532.568 153.087 532.512 153.743 532.456 154.389C532.304 156.492 531.951 158.564 531.406 160.561C531.967 157.862 532.308 155.097 532.424 152.311L532.568 152.432ZM582.169 296.815C582.457 297.491 582.738 298.136 582.97 298.832L580.896 297.501C581.663 292.704 582.907 288.049 584.596 283.642C586.634 278.515 588.312 273.172 589.61 267.676C589.551 274.026 589.795 280.375 590.338 286.688C592.012 302.917 582.169 296.815 582.169 296.815Z" fill="url(#paint0_linear)"/>
<path d="M512.593 75.6965C509.974 77.9458 507.226 80.548 506.297 84.3706C504.792 90.5333 508.572 96.7161 508.94 103.151C509.621 114.841 499.121 124.503 500.667 136.072C501.724 144 508.179 149.386 509.421 157.253C511.231 168.751 501.34 178.888 502.116 190.537C502.533 196.761 505.969 202.046 509.861 205.899C515.334 211.293 521.883 214.679 528.787 215.682C528.331 205.687 522.436 196.579 523.453 186.644C524.15 179.836 527.954 174.258 530.157 167.975C534.025 156.94 532.784 144.171 530.469 132.471C528.155 120.772 524.799 109.203 524.631 97.17C524.526 89.9079 527.234 79.2469 525.247 72.358C522.836 63.9764 517.086 71.8336 512.593 75.6965Z" fill="#F78181"/>
<path opacity="0.1" d="M512.593 75.6965C509.974 77.9458 507.226 80.548 506.297 84.3706C504.792 90.5333 508.572 96.7161 508.94 103.151C509.621 114.841 499.121 124.503 500.667 136.072C501.724 144 508.179 149.386 509.421 157.253C511.231 168.751 501.34 178.888 502.116 190.537C502.533 196.761 505.969 202.046 509.861 205.899C515.334 211.293 521.883 214.679 528.787 215.682C528.331 205.687 522.436 196.579 523.453 186.644C524.15 179.836 527.954 174.258 530.157 167.975C534.025 156.94 532.784 144.171 530.469 132.471C528.155 120.772 524.799 109.203 524.631 97.17C524.526 89.9079 527.234 79.2469 525.247 72.358C522.836 63.9764 517.086 71.8336 512.593 75.6965Z" fill="black"/>
<path d="M520.273 750.772L513.065 759.85C513.065 759.85 487.436 776.996 490.639 753.798C491.516 746.902 491.701 739.894 491.192 732.94C490.53 723.233 489.001 713.651 486.635 704.376L510.662 698.324C506.658 714.139 513.249 734.049 517.358 744.186C519 748.271 520.273 750.772 520.273 750.772Z" fill="#FFB9B9"/>
<path d="M574.849 732.426C574.669 735.533 574.364 738.626 573.936 741.695C573.936 741.695 553.912 758.841 552.311 739.677C551.269 727.191 553.624 721.522 555.402 719.142C556.468 717.72 557.069 715.843 557.084 713.887V691.264L574.704 698.324L573.904 717.488C575.121 721.472 575.137 727.423 574.849 732.426Z" fill="#FFB9B9"/>
<path opacity="0.05" d="M520.273 750.772L513.065 759.849C513.065 759.849 487.436 776.996 490.639 753.798C491.516 746.902 491.701 739.894 491.192 732.94C496.798 731.931 503.454 739.677 503.454 739.677C512.841 756.36 515.372 750.046 517.358 744.186C519 748.271 520.273 750.772 520.273 750.772Z" fill="black"/>
<path d="M503.454 741.695C503.454 741.695 492.241 728.583 486.635 738.669C481.028 748.755 487.436 756.824 465.811 776.996C444.186 797.168 465.811 810.28 480.227 802.211C494.644 794.142 524.278 772.962 524.278 772.962C524.278 772.962 524.278 739.677 520.274 740.686C516.269 741.695 517.07 765.901 503.454 741.695Z" fill="#8189A6"/>
<path opacity="0.05" d="M574.849 732.426C574.669 735.533 574.364 738.626 573.936 741.695C573.936 741.695 553.912 758.841 552.311 739.678C551.269 727.191 553.624 721.522 555.402 719.142C556.098 718.483 556.924 718.076 557.79 717.962C558.656 717.848 559.531 718.033 560.32 718.497C563.524 716.701 567.048 719.697 569.931 723.54C571.92 726.169 573.578 729.166 574.849 732.426Z" fill="black"/>
<path d="M560.32 720.514C560.32 720.514 551.51 714.462 549.908 741.695C548.306 768.927 547.505 765.901 547.505 765.901C547.505 765.901 539.496 790.108 556.315 787.082C573.135 784.056 581.144 782.039 580.343 769.936C579.862 762.643 578.501 752.043 577.5 744.781C576.541 737.598 573.919 730.931 569.963 725.617C567.056 721.704 563.523 718.718 560.32 720.514Z" fill="#8189A6"/>
<path d="M589.153 591.411C589.153 591.411 592.357 633.773 589.153 645.876C587.207 653.219 586.15 671.717 585.621 685.122C585.269 693.796 585.148 700.342 585.148 700.342C569.931 720.514 552.31 700.342 552.31 700.342C552.31 700.342 552.31 693.281 552.439 682.872C552.607 669.085 552.999 649.447 553.912 632.764C554.849 615.699 553.328 603.101 551.902 595.567C550.432 587.919 549.393 580.15 548.794 572.318L546.704 544.016C539.496 480.474 530.686 478.456 530.686 478.456C530.397 478.739 530.117 479.052 529.828 479.374C517.518 493.495 509.269 543.532 505.08 575.899C502.925 592.551 501.876 604.533 501.876 604.533C501.876 604.533 512.288 658.998 511.487 666.059C511.119 669.337 512.128 677.628 513.313 685.555C514.683 694.703 516.293 703.377 516.293 703.377C496.27 730.61 482.654 709.429 482.654 709.429L479.963 693.231L464.233 598.482C464.233 598.482 457.024 538.973 464.233 492.577C466.569 478.017 468.174 463.285 469.038 448.47C469.947 431.748 472.092 415.168 475.446 398.947C476.423 394.146 477.507 389.382 478.697 384.655C478.697 384.655 508.772 378.069 537.093 378.069C558.333 378.069 578.581 381.771 584.42 394.741C585.765 397.727 586.988 400.719 588.088 403.718C598.228 431.163 598.5 459.353 588.424 487.534C577.139 518.791 589.153 591.411 589.153 591.411Z" fill="#4C4C78"/>
<path d="M521.875 225.284C521.875 225.284 479.426 170.819 511.463 174.853C518.728 175.771 523.645 174.137 526.905 171.071C530.621 167.581 532.183 162.236 532.616 156.658C533.497 145.563 529.885 133.46 529.885 133.46C529.885 133.46 573.135 90.0895 564.324 144.555C563.357 150.09 562.794 155.724 562.642 161.388C562.498 172.947 565.518 177.375 569.755 179.19C576.899 182.267 587.519 177.96 592.357 187.925C601.167 206.121 521.875 225.284 521.875 225.284Z" fill="#FFB9B9"/>
<path opacity="0.05" d="M564.324 144.595C563.357 150.13 562.794 155.765 562.642 161.429C561.49 161.931 560.316 162.352 559.126 162.69C554.611 163.972 549.937 164.097 545.383 163.057C540.828 162.017 536.486 159.834 532.616 156.638C533.497 145.543 529.885 133.44 529.885 133.44C529.885 133.44 573.135 90.1299 564.324 144.595Z" fill="black"/>
<path d="M585.949 118.371C585.949 129.873 582.321 140.905 575.862 149.038C569.403 157.172 560.644 161.741 551.51 161.741C542.376 161.741 533.616 157.172 527.157 149.038C520.698 140.905 517.07 129.873 517.07 118.371C517.07 117.564 517.07 116.757 517.126 115.96C517.637 104.696 521.613 94.1252 528.212 86.4925C534.81 78.8598 543.511 74.7658 552.467 75.0795C561.423 75.3932 569.93 80.0899 576.181 88.1727C582.433 96.2554 585.937 107.088 585.949 118.371Z" fill="#FFB9B9"/>
<path opacity="0.05" d="M521.875 225.284C521.875 225.284 479.426 170.819 511.463 174.853C518.728 175.771 523.645 174.137 526.905 171.071C520.706 184.022 513.73 207.311 545.102 205.112C573.815 203.095 573.327 188.692 569.755 179.231C576.899 182.307 587.519 178 592.357 187.965C601.167 206.12 521.875 225.284 521.875 225.284Z" fill="black"/>
<path opacity="0.1" d="M589.153 407.843C581.865 419.775 488.957 404.132 475.374 398.937C476.351 394.136 477.435 389.372 478.625 384.645C478.625 384.645 508.7 378.059 537.021 378.059C558.261 378.059 578.509 381.76 584.348 394.731C585.693 397.717 586.916 400.709 588.016 403.708C588.528 407.319 589.153 407.843 589.153 407.843Z" fill="black"/>
<path d="M530.686 165.776C530.686 165.776 476.623 171.323 474.22 197.547C471.922 222.621 465.01 291.853 465.01 291.853C465.01 291.853 457 347.326 487.436 321.102L487.043 322.575C481.554 343.833 477.811 365.744 475.87 387.964C475.558 391.272 474.941 393.874 473.812 394.731C469.807 397.757 581.136 417.929 589.145 404.817C589.145 404.817 586.742 402.8 587.543 379.602C588.344 356.404 581.136 332.197 581.136 332.197C581.136 332.197 574.728 307.991 583.539 284.792C592.349 261.594 589.145 254.534 589.145 254.534L619.58 225.284C619.58 225.284 626.156 211.093 614.134 193.583C610.525 188.403 606.141 184.168 601.232 181.122C596.323 178.076 590.986 176.279 585.525 175.832L564.541 173.915C564.541 173.915 587.543 205.082 544.293 208.107C501.043 211.133 530.686 165.776 530.686 165.776Z" fill="#FFD037"/>
<path opacity="0.05" d="M494.644 221.25C494.644 221.25 496.246 237.387 493.042 242.43C489.838 247.473 489.037 270.672 493.042 284.792" fill="black"/>
<path opacity="0.1" d="M529.829 479.364C517.518 493.485 509.269 543.522 505.08 575.889C499.249 530.834 523.501 456.257 523.501 456.257L529.829 479.364Z" fill="black"/>
<path opacity="0.1" d="M516.269 703.367C496.246 730.6 482.63 709.419 482.63 709.419L479.939 693.22C487.508 698.173 500.298 702.016 513.289 685.545C514.659 694.693 516.269 703.367 516.269 703.367Z" fill="black"/>
<path opacity="0.1" d="M585.621 685.121C585.269 693.795 585.149 700.341 585.149 700.341C569.931 720.514 552.311 700.341 552.311 700.341C552.311 700.341 552.311 693.281 552.439 682.872C559.046 688.157 570.924 693.977 585.621 685.121Z" fill="black"/>
<path d="M550.108 255.542H501.652C499.993 255.542 498.648 257.236 498.648 259.325V280.001C498.648 282.09 499.993 283.784 501.652 283.784H550.108C551.767 283.784 553.111 282.09 553.111 280.001V259.325C553.111 257.236 551.767 255.542 550.108 255.542Z" fill="#CDD0DB"/>
<path opacity="0.05" d="M550.108 255.542H501.652C499.993 255.542 498.648 257.236 498.648 259.325V280.001C498.648 282.09 499.993 283.784 501.652 283.784H550.108C551.767 283.784 553.111 282.09 553.111 280.001V259.325C553.111 257.236 551.767 255.542 550.108 255.542Z" fill="black"/>
<path d="M550.108 256.551H501.652C499.993 256.551 498.648 258.244 498.648 260.333V281.01C498.648 283.099 499.993 284.792 501.652 284.792H550.108C551.767 284.792 553.111 283.099 553.111 281.01V260.333C553.111 258.244 551.767 256.551 550.108 256.551Z" fill="#CDD0DB"/>
<path d="M541.498 273.193C542.825 273.193 543.901 271.839 543.901 270.167C543.901 268.496 542.825 267.142 541.498 267.142C540.171 267.142 539.095 268.496 539.095 270.167C539.095 271.839 540.171 273.193 541.498 273.193Z" fill="#9DA7C0"/>
<path opacity="0.05" d="M475.47 300.265C476.193 297.554 477.377 295.076 478.941 293.002C480.504 290.929 482.408 289.311 484.52 288.262C487.259 286.83 490.599 284.228 492.289 279.477C495.445 270.672 501.051 261.594 515.468 267.646C529.885 273.698 511.463 277.732 511.463 277.732C511.463 277.732 544.301 271.68 531.487 283.784C518.672 295.887 502.653 302.947 502.653 302.947L494.764 313.467C489.958 319.892 481.613 319.862 477.144 313.024C475.141 309.937 474.084 305.782 475.47 300.265Z" fill="black"/>
<path d="M474.669 298.247C475.392 295.537 476.576 293.058 478.14 290.985C479.703 288.912 481.607 287.294 483.719 286.245C486.458 284.812 489.798 282.21 491.488 277.46C494.644 268.654 500.25 259.577 514.667 265.629C529.084 271.68 510.662 275.715 510.662 275.715C510.662 275.715 543.5 269.663 530.686 281.766C517.871 293.87 501.852 300.93 501.852 300.93L493.963 311.45C489.158 317.875 480.812 317.845 476.343 311.006C474.34 307.92 473.283 303.764 474.669 298.247Z" fill="#FFB9B9"/>
<path opacity="0.05" d="M587.551 319.085L581.945 336.232L574.736 329.585L554.713 311.016L541.098 299.921C521.875 281.766 541.098 278.741 541.098 278.741C533.889 274.706 541.098 270.672 541.098 270.672C566.727 263.611 561.922 289.835 561.922 289.835L578.156 300.436L583.547 303.956L587.551 319.085Z" fill="black"/>
<path d="M589.153 317.068L583.547 334.214L576.338 327.568L556.315 308.999L542.699 297.904C523.477 279.749 542.699 276.723 542.699 276.723C535.491 272.689 542.699 268.655 542.699 268.655C568.329 261.594 563.523 287.818 563.523 287.818L579.758 298.419L585.148 301.939L589.153 317.068Z" fill="#FFB9B9"/>
<path opacity="0.05" d="M589.153 317.068L583.547 334.214L576.338 327.568C582.834 327.86 590.507 323.906 579.726 298.419L585.116 301.939L589.153 317.068Z" fill="black"/>
<path d="M618.787 215.198L620.333 223.136L615.584 281.767L611.579 321.103C611.579 321.103 609.977 347.327 591.556 340.266C573.135 333.206 571.533 326.146 571.533 326.146C571.533 326.146 597.963 337.24 581.144 297.904C581.144 297.904 590.755 303.956 589.153 287.818C587.551 271.68 589.153 243.439 589.153 243.439L618.787 215.198Z" fill="#FFD037"/>
<path opacity="0.05" d="M585.949 118.371C585.95 128.207 583.296 137.752 578.422 145.438C573.548 153.125 566.744 158.497 559.126 160.672C557.973 156.476 557.156 152.301 557.997 148.054C559.599 139.814 567.176 133.803 566.335 125.381C566.252 124.428 565.976 123.518 565.534 122.738C563.844 119.934 560.4 121.326 557.661 122.022C550.581 123.797 542.828 117.776 540.905 109.011C537.829 112.821 533.977 115.486 529.773 116.713C525.57 117.939 521.179 117.679 517.086 115.96C517.597 104.696 521.573 94.1252 528.172 86.4925C534.77 78.8598 543.471 74.7658 552.427 75.0795C561.383 75.3932 569.89 80.0899 576.141 88.1727C582.392 96.2554 585.896 107.088 585.909 118.371H585.949Z" fill="black"/>
<path d="M541.746 106.994C543.66 115.759 551.421 121.78 558.494 119.995C561.233 119.309 564.677 117.917 566.367 120.721C566.798 121.5 567.061 122.408 567.128 123.354C567.977 131.786 560.424 137.787 558.798 146.037C557.124 154.53 562.002 162.73 563.083 171.374C563.652 176.104 563.083 180.925 563.083 185.706C563.083 190.487 563.98 195.631 566.799 198.818C569.618 202.005 574.808 202.066 576.707 197.91C585.717 203.912 582.121 222.5 588.961 232.012C592.733 237.256 598.94 238.517 604.539 237.852C605.85 237.825 607.125 237.305 608.199 236.359C609.125 235.209 609.75 233.731 609.993 232.123C611.406 225.389 611.163 218.274 609.296 211.718C608.399 208.582 607.11 205.415 607.446 202.116C607.703 199.534 608.928 197.285 610.225 195.258C614.526 188.54 620.397 182.045 620.357 173.411C620.317 164.777 614.374 158.282 612.156 150.213C609.136 139.189 613.325 127.378 615.047 115.92C616.394 106.627 616.117 97.0765 614.236 87.932C612.355 78.7875 608.914 70.2687 604.154 62.9679C602.408 60.3253 600.382 57.7735 597.747 56.7246C593.798 55.131 589.594 57.3499 585.469 57.9954C571.853 60.1438 559.511 45.1558 545.847 46.4972C544.942 46.5411 544.051 46.7976 543.22 47.2537C541.45 48.3329 540.497 50.7233 539.4 52.7809C533.369 64.1278 521.515 67.3655 512.224 74.4056C485.129 94.9511 520.994 132.149 541.746 106.994Z" fill="#F78181"/>
<path opacity="0.3" d="M480.227 798.177C470.864 803.412 458.474 799.72 456.848 790.976C454.886 802.534 469.535 808.203 480.227 802.212C494.644 794.143 524.278 772.962 524.278 772.962C524.278 772.962 524.278 771.398 524.238 768.927C523.373 769.573 494.428 790.179 480.227 798.177Z" fill="white"/>
<path opacity="0.3" d="M580.303 769.351C579.382 778.428 571.389 780.334 556.315 783.048C548.65 784.43 546.151 780.143 545.687 775.08C545.182 781.565 546.648 788.817 556.315 787.082C573.135 784.056 581.144 782.039 580.343 769.936C580.327 769.744 580.311 769.542 580.303 769.351Z" fill="white"/>
<path d="M679.393 787.546C679.393 787.546 667.796 713.524 691.672 662.841C701.795 641.652 706.188 616.899 704.19 592.299C703.16 580.629 701.284 569.103 698.584 557.865" stroke="#535461" stroke-width="2" stroke-miterlimit="10"/>
<path d="M713.505 525.791C712.864 534.616 698.287 558.752 698.287 558.752C698.287 558.752 687.459 531.681 688.108 522.845C688.228 520.714 688.685 518.635 689.451 516.729C690.218 514.823 691.279 513.129 692.572 511.746C693.865 510.363 695.364 509.319 696.981 508.675C698.599 508.031 700.302 507.799 701.992 507.995C703.681 508.19 705.323 508.808 706.82 509.812C708.317 510.816 709.64 512.187 710.712 513.843C711.783 515.5 712.582 517.409 713.06 519.458C713.538 521.508 713.687 523.657 713.497 525.78L713.505 525.791Z" fill="#6C63FF"/>
<path d="M730.925 577.129C726.576 584.099 703.934 594.397 703.934 594.397C703.934 594.397 706.529 564.259 710.878 557.29C711.883 555.531 713.16 554.046 714.632 552.925C716.105 551.804 717.742 551.07 719.446 550.767C721.15 550.464 722.884 550.599 724.546 551.162C726.207 551.726 727.761 552.707 729.113 554.047C730.465 555.387 731.588 557.058 732.414 558.958C733.24 560.859 733.752 562.951 733.919 565.108C734.086 567.264 733.905 569.441 733.386 571.507C732.867 573.573 732.022 575.485 730.901 577.129H730.925Z" fill="#6C63FF"/>
<path d="M723.909 660.602C717.357 663.85 693.69 658.343 693.69 658.343C693.69 658.343 708.011 633.975 714.562 630.727C716.126 629.915 717.802 629.503 719.493 629.515C721.185 629.526 722.857 629.962 724.414 630.796C725.97 631.629 727.379 632.845 728.559 634.371C729.739 635.897 730.666 637.704 731.286 639.686C731.906 641.667 732.207 643.784 732.171 645.914C732.134 648.043 731.762 650.143 731.076 652.089C730.389 654.036 729.402 655.791 728.172 657.252C726.941 658.714 725.492 659.853 723.909 660.602Z" fill="#6C63FF"/>
<path d="M707.306 722.248C701.283 726.848 677.215 726.454 677.215 726.454C677.215 726.454 688.067 699.403 694.082 694.794C695.514 693.659 697.112 692.894 698.781 692.544C700.45 692.194 702.158 692.267 703.805 692.756C705.452 693.246 707.005 694.144 708.373 695.397C709.742 696.65 710.899 698.234 711.776 700.056C712.654 701.878 713.235 703.902 713.485 706.01C713.735 708.117 713.65 710.266 713.233 712.332C712.817 714.398 712.079 716.338 711.061 718.041C710.043 719.743 708.767 721.174 707.306 722.248Z" fill="#6C63FF"/>
<path d="M677.151 593.015C681.732 599.752 704.695 608.83 704.695 608.83C704.695 608.83 701.091 578.854 696.517 572.126C694.302 568.962 691.186 567.023 687.845 566.728C684.503 566.433 681.203 567.806 678.659 570.55C676.114 573.295 674.53 577.19 674.248 581.393C673.966 585.597 675.008 589.772 677.151 593.015Z" fill="#6C63FF"/>
<path d="M658.457 665.433C664.424 670.133 688.5 670.143 688.5 670.143C688.5 670.143 677.944 642.921 671.977 638.201C670.557 637.049 668.969 636.264 667.306 635.892C665.643 635.519 663.938 635.567 662.29 636.031C660.641 636.496 659.083 637.368 657.704 638.597C656.326 639.827 655.155 641.389 654.26 643.192C653.365 644.996 652.764 647.006 652.491 649.105C652.217 651.204 652.278 653.351 652.67 655.42C653.061 657.489 653.775 659.44 654.77 661.159C655.765 662.878 657.021 664.331 658.465 665.433H658.457Z" fill="#6C63FF"/>
<path d="M647.949 738.951C653.203 744.852 676.927 749.995 676.927 749.995C676.927 749.995 670.175 720.897 664.913 714.997C663.675 713.51 662.212 712.353 660.612 711.593C659.012 710.833 657.307 710.486 655.598 710.573C653.889 710.66 652.211 711.179 650.665 712.099C649.119 713.02 647.735 714.322 646.597 715.93C645.458 717.537 644.589 719.417 644.039 721.456C643.489 723.496 643.271 725.654 643.397 727.802C643.523 729.949 643.991 732.043 644.773 733.959C645.555 735.874 646.635 737.572 647.949 738.951Z" fill="#6C63FF"/>
<path d="M454.926 136.022C454.816 132.239 453.549 128.656 451.388 126.024C449.228 123.392 446.343 121.914 443.337 121.901H233.774C230.899 121.862 228.11 123.144 225.931 125.508C223.752 127.871 222.332 131.154 221.937 134.741C221.741 136.795 221.893 138.879 222.382 140.854C222.872 142.829 223.688 144.652 224.776 146.202C225.865 147.752 227.201 148.994 228.698 149.847C230.195 150.7 231.819 151.144 233.462 151.151H443.304H444.033C445.87 150.954 447.712 151.448 449.326 152.57C450.94 153.692 452.254 155.392 453.1 157.455C453.741 159.045 454.197 160.744 454.453 162.498L454.926 162.79V136.062V136.022Z" fill="#F2F2F2"/>
<path d="M454.926 230.831C454.816 227.048 453.549 223.466 451.388 220.834C449.228 218.201 446.343 216.724 443.337 216.711H353.112C350.237 216.672 347.448 217.954 345.269 220.317C343.09 222.681 341.67 225.963 341.275 229.551C341.079 231.605 341.231 233.688 341.72 235.664C342.21 237.639 343.026 239.461 344.114 241.011C345.203 242.561 346.539 243.804 348.036 244.657C349.533 245.51 351.157 245.954 352.8 245.961H443.304H444.033C445.87 245.764 447.712 246.257 449.326 247.38C450.94 248.502 452.254 250.202 453.1 252.265C453.741 253.855 454.197 255.553 454.453 257.308L454.926 257.6V230.872V230.831Z" fill="#F2F2F2"/>
<path opacity="0.2" d="M182.611 88.6169C182.747 80.8103 186.095 74.4963 190.18 74.4963H327.202C331.375 74.4963 334.787 81.0725 334.787 89.1212C334.787 97.17 331.375 103.746 327.202 103.746H190.156C188.862 103.694 187.588 104.153 186.511 105.057C185.434 105.961 184.609 107.266 184.149 108.789C183.54 110.818 183.126 112.931 182.915 115.083L182.611 115.375V88.6472V88.6169Z" fill="#F2F2F2"/>
<path opacity="0.2" d="M182.611 183.427C182.779 175.62 186.848 169.306 191.814 169.306H358.406C363.476 169.306 367.625 175.882 367.625 183.931C367.625 191.98 363.476 198.556 358.406 198.556H191.814C188.61 198.556 185.631 200.412 184.509 203.599C183.777 205.597 183.273 207.716 183.012 209.893L182.635 210.185V183.457L182.611 183.427Z" fill="#F2F2F2"/>
<path opacity="0.2" d="M358.014 235.874C360.226 235.874 362.019 233.617 362.019 230.831C362.019 228.046 360.226 225.788 358.014 225.788C355.802 225.788 354.009 228.046 354.009 230.831C354.009 233.617 355.802 235.874 358.014 235.874Z" fill="white"/>
<path opacity="0.2" d="M371.63 235.874C373.841 235.874 375.634 233.617 375.634 230.831C375.634 228.046 373.841 225.788 371.63 225.788C369.418 225.788 367.625 228.046 367.625 230.831C367.625 233.617 369.418 235.874 371.63 235.874Z" fill="white"/>
<path opacity="0.2" d="M385.245 235.874C387.457 235.874 389.25 233.617 389.25 230.831C389.25 228.046 387.457 225.788 385.245 225.788C383.034 225.788 381.241 228.046 381.241 230.831C381.241 233.617 383.034 235.874 385.245 235.874Z" fill="white"/>
<defs>
<linearGradient id="paint0_linear" x1="539.023" y1="807.759" x2="539.023" y2="43.2291" gradientUnits="userSpaceOnUse">
<stop stop-color="#808080" stop-opacity="0.25"/>
<stop offset="0.54" stop-color="#808080" stop-opacity="0.12"/>
<stop offset="1" stop-color="#808080" stop-opacity="0.1"/>
</linearGradient>
</defs>
</svg>
